<svg xmlns="http://www.w3.org/2000/svg" height="300" viewBox="0 0 10417 6917">
  <path fill="#c2986b" d="M5314 6906.4125c-34.1921-1.8771-53.2502-4.5524-71.983-10.1046-32.42-9.6091-40.6525-27.3491-22.8955-49.3367 2.4302-3.0091 10.4509-14.2462 17.8237-24.9712 38.9094-56.6 85.9837-120.7457 162.5517-221.5 98.4885-129.5992 131.204-173.7619 174.7179-235.8523 113.6546-162.1751 190.1024-302.7566 244.7888-450.1477 11.3056-30.471 15.5827-43.2471 14.7549-44.0748-.4014-.4015-9.6238-2.03-20.4942-3.619-94.5171-13.8162-162.1618-23.8732-332.0203-49.3628-463.893-69.6135-629.5499-92.7474-844.244-117.8982-501.501-58.7495-885.2887-71.0982-1228-39.512-154.8837 14.275-269.3679 34.3712-384.5 67.4941-104.8796 30.1733-196.5096 66.1199-298.5 117.1022-67.3334 33.6582-120.5242 63.5995-189 106.3889-74.2605 46.4042-123.1349 79.6911-285 194.1052-97.4771 68.9016-157.8898 110.0264-213.1133 145.0732-239.258 151.8414-503.1364 260.9494-780.3867 322.673-209.0492 46.5401-420.9827 64.7274-613 52.6054-185.06684-11.6833-337.11166-51.2166-416.5-108.2946-14.24905-10.2447-32.91354-29.1828-39.84074-40.4249-9.96313-16.169-16.1498-38.5225-16.15607-58.3747-.0159-50.5012 33.27394-97.6621 108.49681-153.7045 19.86933-14.803 61.13365-42.2501 102.5-68.1781 75.16054-47.1099 111.94219-73.4946 136.01729-97.5697 8.60004-8.6001 19.52797-21.9498 23.88541-29.1787l2.26042-3.75h-2.59741c-1.42858 0-11.70278 1.1202-22.83156 2.4894-24.62007 3.0289-52.23802 5.8459-80.23415 8.1836-30.41174 2.5395-109.58758 2.5655-131 .043-93.07643-10.9643-150.78691-39.0902-231.57193-112.8592C57.971586 5985.6335 17 5944.8398 17 5943.1933c0-3.6597 43.280692-49.2593 68.5-72.1702 152.03906-138.1226 354.55268-219.8859 647.62033-261.4717 105.48283-14.9679 194.52563-22.8907 416.37967-37.0483 141.4618-9.0273 208.3192-14.3438 277.5-22.0664 239.139-26.695 383.0849-76.1639 482.0535-165.6638 26.5465-24.0067 86.9948-90.7851 130.5968-144.2729 66.9719-82.1562 119.5576-159.0848 203.3604-297.5 77.0331-127.2337 108.9316-176.1865 152.4787-234 55.8249-74.1137 121.1939-143.6839 195.5106-208.0758 154.3684-133.753 341.2859-272.6332 519-385.6182 295.2247-187.6947 588.6489-327.4116 869-413.7832 175.9202-54.1982 334.2358-93.3289 694-171.5356 246.8512-53.6612 351.7981-77.6541 472.6577-108.0587 308.3685-77.5759 558.2186-162.1517 786.3423-266.1816 102.3779-46.6867 216.5567-105.5518 293-151.0565 252.1625-150.1059 475.0644-371.7659 708.6385-704.6904 95.9947-136.826 176.2976-262.5319 336.3364-526.5 147.2465-242.8684 195.9107-321.4594 264.4021-427 221.4467-341.2343 412.5482-567.72943 626.123-742.08612 147.0318-120.03278 313.4635-215.72969 479.5-275.70862 108.8504-39.32105 236.2313-69.71718 386.5-92.22811 70.212-10.51807 126.363-17.53242 260-32.47904 279.4989-31.26054 369.6648-46.38312 516.3547-86.6028 90.7315-24.876892 147.4574-44.874588 225.3303-79.436181 50.45-22.390864 66.789-28.0068947 95.965-32.9847327 26.639-4.54507841 79.349-6.2461045 108.881-3.5137788 37.153 3.4374023 68.683 14.3920775 97.469 33.8644605 12.893 8.72164 35.084 31.172057 44.158 44.674922 19.155 28.50312 30.578 58.64038 37.334 98.5 3.43 20.23223 4.312 45.30845 3.661 104-.605 54.48794-1.649 75.42902-5.708 114.5-15.763 151.74363-58.463 281.59513-131.207 399-55.354 89.33999-126.276 170.53986-243.774 279.1041-95.0986 87.8681-129.2232 116.0829-280.464 231.8922-144.7571 110.8446-212.5736 168.74-293.0034 250.1388-66.2769 67.0756-120.6516 131.7095-176.4433 209.7343-18.2032 25.4572-42.984 62.3353-52.1651 77.6306-54.4991 90.7933-99.9344 228.6205-147.9816 448.8995-16.1161 73.8864-30.6592 146.7362-61.9056 310.1005-57.2832 299.4909-83.2947 418.4231-125.539 574-35.8807 132.1415-55.8966 208.9339-124.46 477.5-39.0168 152.8306-58.3398 227.7207-77.1475 299-63.2016 239.5284-111.8175 404.0029-158.1372 535-16.6981 47.2242-24.7013 75.9453-33.7169 121-14.4543 72.2347-21.4208 144.831-22.647 236-1.0154 75.496 2.5432 145.3495 11.2077 220 33.9742 292.7099 134.3168 532.9348 269.9983 646.3886 37.6045 31.4441 71.1223 50.8127 114.2946 66.0464 7.8947 2.7858 14.3932 5.515 14.441 6.065.2864 3.2949-55.0408 39.3761-92.795 60.5154-270.9708 151.7219-635.9645 173.3342-934 55.3048-156.4247-61.948-280.8952-156.7208-363.8918-277.0702-4.2671-6.1875-8.1313-11.25-8.5871-11.25-1.7177 0-31.1 9.0721-45.3815 14.0121-119.4919 41.3321-221.965 118.346-319.9886 240.4879-47.186 58.796-80.6996 107.6616-172.1438 251-95.687 149.989-152.4229 224.8721-223.1499 294.5255-48.6947 47.9554-90.1053 79.4161-149.3573 113.4705-196.4598 112.9128-398.8327 193.7273-684.5 273.3445-106.4428 29.6663-297.2775 78.3991-331.2229 84.5833-55.7869 10.1633-120.6645 18.2236-173.2771 21.5275-17.7106 1.1122-68.3099 2.0481-79 1.4612z"/>
  <path fill="#ae8e6c" d="M5314 6906.4125c-34.1921-1.8771-53.2502-4.5524-71.983-10.1046-32.42-9.6091-40.6525-27.3491-22.8955-49.3367 2.4302-3.0091 10.4509-14.2462 17.8237-24.9712 38.9094-56.6 85.9837-120.7457 162.5517-221.5 98.4885-129.5992 131.204-173.7619 174.7179-235.8523 113.6546-162.1751 190.1024-302.7566 244.7888-450.1477 11.3056-30.471 15.5827-43.2471 14.7549-44.0748-.4014-.4015-9.6238-2.03-20.4942-3.619-94.5171-13.8162-162.1618-23.8732-332.0203-49.3628-463.893-69.6135-629.5499-92.7474-844.244-117.8982-501.501-58.7495-885.2887-71.0982-1228-39.512-154.8837 14.275-269.3679 34.3712-384.5 67.4941-104.8796 30.1733-196.5096 66.1199-298.5 117.1022-67.3334 33.6582-120.5242 63.5995-189 106.3889-74.2605 46.4042-123.1349 79.6911-285 194.1052-97.4771 68.9016-157.8898 110.0264-213.1133 145.0732-239.258 151.8414-503.1364 260.9494-780.3867 322.673-209.0492 46.5401-420.9827 64.7274-613 52.6054-185.06684-11.6833-337.11166-51.2166-416.5-108.2946-14.24905-10.2447-32.91354-29.1828-39.84074-40.4249-9.96313-16.169-16.1498-38.5225-16.15607-58.3747-.0159-50.5012 33.27394-97.6621 108.49681-153.7045 19.86933-14.803 61.13365-42.2501 102.5-68.1781 75.16054-47.1099 111.94219-73.4946 136.01729-97.5697 8.60004-8.6001 19.52797-21.9498 23.88541-29.1787l2.26042-3.75h-2.59741c-1.42858 0-11.70278 1.1202-22.83156 2.4894-24.62007 3.0289-52.23802 5.8459-80.23415 8.1836-30.41174 2.5395-109.58758 2.5655-131 .043-93.07643-10.9643-150.78691-39.0902-231.57193-112.8592C57.971586 5985.6335 17 5944.8398 17 5943.1933c0-3.6597 43.280692-49.2593 68.5-72.1702 152.03906-138.1226 354.55268-219.8859 647.62033-261.4717 105.48283-14.9679 194.52563-22.8907 416.37967-37.0483 141.4618-9.0273 208.3192-14.3438 277.5-22.0664 239.139-26.695 383.0849-76.1639 482.0535-165.6638 26.5465-24.0067 86.9948-90.7851 130.5968-144.2729 66.9719-82.1562 119.5576-159.0848 203.3604-297.5 77.0331-127.2337 108.9316-176.1865 152.4787-234 55.8249-74.1137 121.1939-143.6839 195.5106-208.0758 154.3684-133.753 341.2859-272.6332 519-385.6182 295.2247-187.6947 588.6489-327.4116 869-413.7832 175.9202-54.1982 334.2358-93.3289 694-171.5356 246.8512-53.6612 351.7981-77.6541 472.6577-108.0587 308.3685-77.5759 558.2186-162.1517 786.3423-266.1816 102.3779-46.6867 216.5567-105.5518 293-151.0565 252.1625-150.1059 475.0644-371.7659 708.6385-704.6904 95.9947-136.826 176.2976-262.5319 336.3364-526.5 147.2465-242.8684 195.9107-321.4594 264.4021-427 221.4467-341.2343 412.5482-567.72943 626.123-742.08612 147.0318-120.03278 313.4635-215.72969 479.5-275.70862 108.8504-39.32105 236.2313-69.71718 386.5-92.22811 70.212-10.51807 126.363-17.53242 260-32.47904 279.4989-31.26054 369.6648-46.38312 516.3547-86.6028 90.7315-24.876892 147.4574-44.874588 225.3303-79.436181 50.45-22.390864 66.789-28.0068947 95.965-32.9847327 26.639-4.54507841 79.349-6.2461045 108.881-3.5137788 37.153 3.4374023 68.683 14.3920775 97.469 33.8644605 12.893 8.72164 35.084 31.172057 44.158 44.674922 19.155 28.50312 30.578 58.64038 37.334 98.5 3.43 20.23223 4.312 45.30845 3.661 104-.605 54.48794-1.649 75.42902-5.708 114.5-15.763 151.74363-58.463 281.59513-131.207 399-55.354 89.33999-126.276 170.53986-243.774 279.1041-95.0986 87.8681-129.2232 116.0829-280.464 231.8922-144.7571 110.8446-212.5736 168.74-293.0034 250.1388-66.2769 67.0756-120.6516 131.7095-176.4433 209.7343-18.2032 25.4572-42.984 62.3353-52.1651 77.6306-54.4991 90.7933-99.9344 228.6205-147.9816 448.8995-16.1161 73.8864-30.6592 146.7362-61.9056 310.1005-57.2832 299.4909-83.2947 418.4231-125.539 574-35.8807 132.1415-55.8966 208.9339-124.46 477.5-39.0168 152.8306-58.3398 227.7207-77.1475 299-63.2016 239.5284-111.8175 404.0029-158.1372 535-16.6981 47.2242-24.7013 75.9453-33.7169 121-14.4543 72.2347-21.4208 144.831-22.647 236-1.0154 75.496 2.5432 145.3495 11.2077 220 33.9742 292.7099 134.3168 532.9348 269.9983 646.3886 37.6045 31.4441 71.1223 50.8127 114.2946 66.0464 7.8947 2.7858 14.3932 5.515 14.441 6.065.2864 3.2949-55.0408 39.3761-92.795 60.5154-270.9708 151.7219-635.9645 173.3342-934 55.3048-156.4247-61.948-280.8952-156.7208-363.8918-277.0702-4.2671-6.1875-8.1313-11.25-8.5871-11.25-1.7177 0-31.1 9.0721-45.3815 14.0121-119.4919 41.3321-221.965 118.346-319.9886 240.4879-47.186 58.796-80.6996 107.6616-172.1438 251-95.687 149.989-152.4229 224.8721-223.1499 294.5255-48.6947 47.9554-90.1053 79.4161-149.3573 113.4705-196.4598 112.9128-398.8327 193.7273-684.5 273.3445-106.4428 29.6663-297.2775 78.3991-331.2229 84.5833-55.7869 10.1633-120.6645 18.2236-173.2771 21.5275-17.7106 1.1122-68.3099 2.0481-79 1.4612zm261.1268-214.3724c47.5207-8.8044 94.899-19.1342 144.8732-31.5863 344.5343-85.8478 635.5025-236.7156 887-459.9118 43.3586-38.4794 109.7717-103.5808 147.8448-144.9247 239.3353-259.8967 433.6689-589.4121 599.8504-1017.1173 18.689-48.1003 40.5146-106.8641 57.9243-155.9569 4.0875-11.5262 7.9562-21.2809 8.5971-21.6769 2.0889-1.2911 6.2292 1.8119 15.9993 11.9909 27.9684 29.1392 44.9369 71.7789 54.2288 136.2708 4.7846 33.2083 7.1798 65.7005 10.0528 136.3721 3.9731 97.7349 8.4671 141.977 18.5886 183 3.1767 12.8752 9.6302 33.2066 10.7624 33.9064.9618.5944 39.5272-22.0572 64.1515-37.6798 156.674-99.3998 301.5787-236.9787 432.5969-410.7266 258.7934-343.195 466.7113-824.2216 645.7634-1494 58.285-218.0259 104.1229-413.0213 190.6431-811 54.99-252.9448 70.8329-323.7666 94.9612-424.5 51.9019-216.685 97.1722-356.2121 141.7512-436.8897 18.55-33.571 55.918-85.9513 92.8206-130.1103 42.5585-50.9271 100.7772-109.153 158.9636-158.9834 71.9183-61.5904 136.4712-109.691 287-213.8538 161.9533-112.0683 216.266-152.3679 286-212.2097 91.753-78.73738 159.438-156.57675 209.52-240.9531 10.136-17.07605 30.808-57.31132 38.533-75 22.022-50.42272 38.701-104.54266 48.848-158.5 4.178-22.22144 8.856-54.77583 8.056-56.07006-.316-.51147-2.011-.93009-3.766-.93028-1.755-.00019-13.316-1.136-25.691-2.52403-143.391-16.08324-224.9772-45.73321-272.213-98.9268-8.3916-9.4501-19.0978-24.25414-25.0589-34.65049-9.9092-17.28182-21.8724-45.46042-28.72-67.64834-1.7399-5.6375-3.4929-10.25-3.8957-10.25-.4027 0-10.8303 5.13941-23.1723 11.42092-75.4574 38.40419-142.8083 59.02179-231.9401 71.00203-54.4339 7.31649-110.6884 10.02774-230 11.08513-146.8705 1.30163-216.4023 4.21098-300.5 12.57351-273.036 27.15024-511.4463 112.57129-723.3119 259.1585C8200.4799 764.12397 8050.8302 913.27222 7904.394 1108.5c-105.6376 140.8354-205.4645 295.8682-350.6079 544.5-20.3213 34.8104-31.8973 54.7287-86.5952 149-83.6556 144.1797-136.5465 233.3881-184.6525 311.4436-157.6842 255.8544-292.0459 438.2446-439.4666 596.5564-21.9537 23.5757-92.2222 93.5267-113.0969 112.586-87.1015 79.5266-179.2257 150.4228-283.4749 218.154-215.3753 139.9306-464.6489 261.6524-813.5 397.2372-158.3312 61.5371-279.3097 100.1446-443.4568 141.519-116.5175 29.369-194.4453 46.2593-447.5432 97.0019-83.325 16.7055-168.825 34.028-190 38.4945-243.8305 51.4319-401.0043 94.9113-576 159.3405-217.3351 80.0175-429.5608 176.5311-637.5 289.9148-213.3836 116.3525-416.3429 251.0076-571.5 379.1664-91.7385 75.7755-175.6268 163.3814-259.2795 270.7698-44.702 57.3858-84.7671 113.3867-151.541 211.8159-88.5464 130.5234-104.0968 153.1501-134.0157 195-52.8375 73.908-97.5826 131.3533-147.6044 189.5-45.8961 53.3507-108.6764 118.2975-132.0686 136.6261-85.6496 67.1094-226.951 108.1194-452.4908 131.3267-86.0648 8.8557-166.5258 14.2788-356.5 24.0281-205.6559 10.554-296.45781 16.8588-390 27.0794-238.3745 26.0453-387.8407 71.3259-482 146.0213-15.77559 12.5146-41.19755 38.4337-52.35746 53.3814-11.02241 14.7635-20.82434 30.7891-19.54445 31.9541 1.5178 1.3816 26.0772 11.547 41.1635 17.0381 56.21569 20.4612 105.34793 30.2936 175.73841 35.169 11.27366.7808 37.0422 1.0424 76.5.7766 106.81121-.7195 181.50776-.3651 202.5.9609 24.27277 1.5331 60.53676 4.8314 62.8407 5.7155 2.60491.9996 3.151 4.7483 3.04798 20.9228-.0722 11.3376-.6343 17.5637-2.3021 25.5-10.69063 50.8719-45.34195 97.7339-111.58658 150.9081-36.20665 29.0629-66.23747 49.3732-162 109.563-87.6601 55.0971-122.7125 84.8406-130.16389 110.4495-3.57538 12.2879.78456 29.1508 7.87019 30.4394 7.08002 1.2877 64.85517 8.722 93.7937 12.0692 127.02722 14.6926 227.86155 20.3771 341.5 19.2518 58.02649-.5746 75.25658-1.1758 121-4.2216 212.882-14.1747 409.7576-58.8804 643.5-146.1232 75.6983-28.2539 185.1625-73.3626 245.5-101.1673 122.4103-56.409 232.3462-120.0614 473.5-274.1548 94.0902-60.1221 140.3216-89.2427 194-122.1984 303.8627-186.5555 519.3478-277.5194 776.4088-327.7497 111.6874-21.8239 224.4949-34.3136 363.5912-40.2556 38.9214-1.6626 183.9778-1.6591 227 .01 203.7833 7.8852 366.6319 23.4628 723 69.1599 210.8958 27.0431 304.2556 38.3135 405.5 48.9519 316.1991 33.2248 557.136 38.355 777.3324 16.5513l25.3324-2.5084 9.8467-6.5765c59.1894-39.5317 112.6103-108.6099 160.0685-206.9837 27.4188-56.8349 49.5369-112.7927 94.4325-238.9105 44.8011-125.852 63.1555-172.2495 89.4036-226 49.8046-101.9896 102.3808-158.8536 167.2967-180.9405 5.892-2.0047 13.0538-3.9222 15.9151-4.261l5.2023-.6162-.6712 38.4089c-3.1519 180.3652-23.2135 362.8254-58.2636 529.9088-58.0414 276.6823-157.0736 533.5254-307.8813 798.5-82.4394 144.849-180.5711 293.6555-319.5076 484.5-17.833 24.4955-65.656 89.7329-67.2584 91.75-1.3653 1.7186-1.8234 1.7741 22.3787-2.7099zm4060.0205-5586.5696c-1.7351-1.46-3.7759-4.7368-4.8267-7.75-2.695-7.7279-2.4343-35.5746.545-58.2205 18.9125-143.75474 59.8445-260.40168 140.966-401.72052 18.5455-32.30735 74.1711-123.28031 83.0226-135.77948 7.0812-9.99915 18.6402-21.56914 24.4323-24.45547 18.0755-9.0074 24.3687 8.90014 12.5728 35.77612-3.6362 8.28467-9.7771 18.445-38.175 63.16143-40.8268 64.28761-63.7016 103.65319-87.1732 150.01792-55.3232 109.28317-85.6336 208.89931-98.0481 322.2388-2.7122 24.7612-5.5343 35.6864-11.9355 46.207-7.3375 12.0592-15.0466 15.8541-21.3802 10.5247zm129.9366-.2328c-3.7113-3.7113-6.731-12.1671-8.1747-22.8914-2.1172-15.726.3838-84.15852 4.5992-125.8463 9.9893-98.78749 30.3813-177.0767 69.0245-265 19.4523-44.25888 66.4563-139.23511 75.9676-153.5 6.6324-9.9471 15.4616-19.35979 20.7097-22.07819 13.4376-6.96052 20.7734 4.76413 16.2964 26.04659-2.2755 10.8174-6.2961 20.0243-22.0669 50.5316-21.3106 41.22366-40.8942 80.2368-47.6876 95-44.2603 96.18608-67.8285 186.52119-76.2478 292.25264-.8649 10.86105-2.1822 36.84736-2.9274 57.74736-1.222 34.2704-1.5733 38.687-3.5798 45-6.6745 20.9999-17.8474 30.8036-25.9132 22.7377zm-283.8697-25.7109c-9.3418-7.8606-7.3617-33.8348 6.7865-89.0268 24.9636-97.38201 70.7681-194.28081 142.5206-301.5 29.0965-43.47868 59.7947-85.18774 112.9774-153.5 17.1275-22 39.5492-51.08844 49.826-64.64097 20.6461-27.22717 32.4805-39.65962 42.3468-44.48676 7.9957-3.91189 12.6694-3.79349 16.4308.41623 2.5069 2.80564 2.8977 4.04323 2.8977 9.17565 0 12.72714-6.3377 26.44625-21.4228 46.37337-8.2126 10.84866-13.478 17.44137-64.1373 80.30574C9681.2982 672.02044 9629.8117 748.27081 9587.5623 832c-35.0365 69.43498-54.9889 125.67368-69.0048 194.5-4.5466 22.3267-8.1404 33.0195-14.1308 42.0444-8.1227 12.2374-16.8268 16.3556-23.2125 10.9824zm-133.8611-20.4531c-4.4028-2.6847-5.7367-7.4133-5.0726-17.9817.6833-10.8723 3.9059-22.9266 12.1148-45.31604 47.175-128.6671 135.8282-275.12208 260.4578-430.27596 49.6076-61.75748 110.1197-130.46943 150.6256-171.0364 17.2326-17.25858 31.6176-26.48128 42.5356-27.27102 5.2048-.37648 6.121-.14819 8.3497 2.08054 3.7738 3.77377 4.2736 8.63171 1.7011 16.53387-4.5767 14.05864-6.4674 16.47608-47.1855 60.33034-135.3856 145.81339-246.7568 293.7174-315.2347 418.64048-29.1088 53.10278-49.8913 99.03652-66.1093 146.11559-7.7698 22.5551-11.9727 30.4941-21.426 40.4721-4.3327 4.5733-12.7621 9.6075-16.1096 9.621-.825 0-2.9161-.8575-4.6469-1.9128zM8812 1002.9012c-46.5903-4.03988-94.0345-19.04218-131.1416-41.46824-15.9586-9.64468-34.8724-23.72201-36.8587-27.43349-1.9824-3.70418 12.598-51.49371 23.0347-75.49947 10.8175-24.88193 20.282-42.26201 34.0349-62.5 56.165-82.64946 145.1205-132.52171 267.4307-149.93313 33.237-4.73144 47.445-5.51642 100-5.52492 52.2467-.008 78.7196 1.2491 81.3342 3.86363 3.6669 3.66693 8.1429 36.56859 8.8556 65.09442.9792 39.19255-2.762 65.11131-14.4342 100-5.5353 16.54527-18.2482 42.65274-27.9992 57.5-49.5071 75.38139-138.8725 125.80882-240.167 135.5222-16.3379 1.5667-48.218 1.7552-64.0894.379zm-381 4779.0835c46.6852-1.935 81.257-5.8896 118.4261-13.5467 6.5593-1.3513 12.1217-2.6525 12.3609-2.8916.2391-.2392-3.6683-5.0062-8.6832-10.5934-47.5047-52.9265-99.4059-156.1469-149.565-297.453-65.4026-184.2494-114.4535-394.9365-127.0642-545.7756l-.65-7.7756-29.6623 29.8112c-16.3143 16.3962-50.5873 50.0282-76.1623 74.7378-119.0431 115.0151-174.6335 172.8933-229.1774 238.609-87.618 105.5643-141.3329 200.4258-163.9066 289.4623l-3.3134 13.0691 6.4424 8.9309c43.1924 59.8759 121.9978 112.4739 229.455 153.1477 128.8411 48.7679 290.4017 75.7015 421.5 70.2679z"/>
  <path fill="#738aa9" d="M5314 6906.4125c-34.1921-1.8771-53.2502-4.5524-71.983-10.1046-32.42-9.6091-40.6525-27.3491-22.8955-49.3367 2.4302-3.0091 10.4509-14.2462 17.8237-24.9712 38.9094-56.6 85.9837-120.7457 162.5517-221.5 98.4885-129.5992 131.204-173.7619 174.7179-235.8523 113.6546-162.1751 190.1024-302.7566 244.7888-450.1477 11.3056-30.471 15.5827-43.2471 14.7549-44.0748-.4014-.4015-9.6238-2.03-20.4942-3.619-94.5171-13.8162-162.1618-23.8732-332.0203-49.3628-463.893-69.6135-629.5499-92.7474-844.244-117.8982-501.501-58.7495-885.2887-71.0982-1228-39.512-154.8837 14.275-269.3679 34.3712-384.5 67.4941-104.8796 30.1733-196.5096 66.1199-298.5 117.1022-67.3334 33.6582-120.5242 63.5995-189 106.3889-74.2605 46.4042-123.1349 79.6911-285 194.1052-97.4771 68.9016-157.8898 110.0264-213.1133 145.0732-239.258 151.8414-503.1364 260.9494-780.3867 322.673-209.0492 46.5401-420.9827 64.7274-613 52.6054-185.06684-11.6833-337.11166-51.2166-416.5-108.2946-14.24905-10.2447-32.91354-29.1828-39.84074-40.4249-9.96313-16.169-16.1498-38.5225-16.15607-58.3747-.0159-50.5012 33.27394-97.6621 108.49681-153.7045 19.86933-14.803 61.13365-42.2501 102.5-68.1781 75.16054-47.1099 111.94219-73.4946 136.01729-97.5697 8.60004-8.6001 19.52797-21.9498 23.88541-29.1787l2.26042-3.75h-2.59741c-1.42858 0-11.70278 1.1202-22.83156 2.4894-24.62007 3.0289-52.23802 5.8459-80.23415 8.1836-30.41174 2.5395-109.58758 2.5655-131 .043-93.07643-10.9643-150.78691-39.0902-231.57193-112.8592C57.971586 5985.6335 17 5944.8398 17 5943.1933c0-3.6597 43.280692-49.2593 68.5-72.1702 152.03906-138.1226 354.55268-219.8859 647.62033-261.4717 105.48283-14.9679 194.52563-22.8907 416.37967-37.0483 141.4618-9.0273 208.3192-14.3438 277.5-22.0664 239.139-26.695 383.0849-76.1639 482.0535-165.6638 26.5465-24.0067 86.9948-90.7851 130.5968-144.2729 66.9719-82.1562 119.5576-159.0848 203.3604-297.5 77.0331-127.2337 108.9316-176.1865 152.4787-234 55.8249-74.1137 121.1939-143.6839 195.5106-208.0758 154.3684-133.753 341.2859-272.6332 519-385.6182 295.2247-187.6947 588.6489-327.4116 869-413.7832 175.9202-54.1982 334.2358-93.3289 694-171.5356 246.8512-53.6612 351.7981-77.6541 472.6577-108.0587 308.3685-77.5759 558.2186-162.1517 786.3423-266.1816 102.3779-46.6867 216.5567-105.5518 293-151.0565 252.1625-150.1059 475.0644-371.7659 708.6385-704.6904 95.9947-136.826 176.2976-262.5319 336.3364-526.5 147.2465-242.8684 195.9107-321.4594 264.4021-427 221.4467-341.2343 412.5482-567.72943 626.123-742.08612 147.0318-120.03278 313.4635-215.72969 479.5-275.70862 108.8504-39.32105 236.2313-69.71718 386.5-92.22811 70.212-10.51807 126.363-17.53242 260-32.47904 279.4989-31.26054 369.6648-46.38312 516.3547-86.6028 90.7315-24.876892 147.4574-44.874588 225.3303-79.436181 50.45-22.390864 66.789-28.0068947 95.965-32.9847327 26.639-4.54507841 79.349-6.2461045 108.881-3.5137788 37.153 3.4374023 68.683 14.3920775 97.469 33.8644605 12.893 8.72164 35.084 31.172057 44.158 44.674922 19.155 28.50312 30.578 58.64038 37.334 98.5 3.43 20.23223 4.312 45.30845 3.661 104-.605 54.48794-1.649 75.42902-5.708 114.5-15.763 151.74363-58.463 281.59513-131.207 399-55.354 89.33999-126.276 170.53986-243.774 279.1041-95.0986 87.8681-129.2232 116.0829-280.464 231.8922-144.7571 110.8446-212.5736 168.74-293.0034 250.1388-66.2769 67.0756-120.6516 131.7095-176.4433 209.7343-18.2032 25.4572-42.984 62.3353-52.1651 77.6306-54.4991 90.7933-99.9344 228.6205-147.9816 448.8995-16.1161 73.8864-30.6592 146.7362-61.9056 310.1005-57.2832 299.4909-83.2947 418.4231-125.539 574-35.8807 132.1415-55.8966 208.9339-124.46 477.5-39.0168 152.8306-58.3398 227.7207-77.1475 299-63.2016 239.5284-111.8175 404.0029-158.1372 535-16.6981 47.2242-24.7013 75.9453-33.7169 121-14.4543 72.2347-21.4208 144.831-22.647 236-1.0154 75.496 2.5432 145.3495 11.2077 220 33.9742 292.7099 134.3168 532.9348 269.9983 646.3886 37.6045 31.4441 71.1223 50.8127 114.2946 66.0464 7.8947 2.7858 14.3932 5.515 14.441 6.065.2864 3.2949-55.0408 39.3761-92.795 60.5154-270.9708 151.7219-635.9645 173.3342-934 55.3048-156.4247-61.948-280.8952-156.7208-363.8918-277.0702-4.2671-6.1875-8.1313-11.25-8.5871-11.25-1.7177 0-31.1 9.0721-45.3815 14.0121-119.4919 41.3321-221.965 118.346-319.9886 240.4879-47.186 58.796-80.6996 107.6616-172.1438 251-95.687 149.989-152.4229 224.8721-223.1499 294.5255-48.6947 47.9554-90.1053 79.4161-149.3573 113.4705-196.4598 112.9128-398.8327 193.7273-684.5 273.3445-106.4428 29.6663-297.2775 78.3991-331.2229 84.5833-55.7869 10.1633-120.6645 18.2236-173.2771 21.5275-17.7106 1.1122-68.3099 2.0481-79 1.4612zm266.657-214.497c408.6963-77.4142 752.5771-243.1665 1037.4775-500.0693 90.8148-81.8903 179.8335-177.5681 259.7232-279.1518 207.6813-264.0772 385.7371-606.165 534.6519-1027.1944 4.2797-12.1 8.3191-22.5872 8.9765-23.305 2.698-2.9456 18.9895 13.3819 30.6618 30.7296 18.9801 28.2087 31.7282 67.1896 38.779 118.5768 4.3548 31.7392 6.8973 66.6238 9.5475 130.9986 4.2274 102.6853 8.3072 143.573 18.4729 185.1386 3.0399 12.4295 9.3562 32.7851 10.9295 35.2225.6901 1.0691 3.4254-.097 12.7509-5.4352 239.9569-137.3621 448.7061-355.705 632.3636-661.4259 90.4992-150.6472 175.9555-325.9592 254.2065-521.5 118.838-296.9634 222.615-640.048 327.3225-1082.122 31.424-132.6717 57.4221-248.7139 111.9925-499.878 34.5235-158.8969 55.6378-254.4416 70.4954-319 70.4564-306.1432 119.9191-459.5593 177.4378-550.3503 50.1815-79.2095 126.1528-165.9901 212.554-242.7963 78.2967-69.6019 146.6796-121.1818 316-238.3532 75.6492-52.35 109.8808-76.4083 143.5-100.8534 156.7225-113.9556 254.292-208.07118 324.272-312.79386 21.411-32.0405 44.308-73.11496 59.285-106.35294 23.471-52.08543 41.675-111.06216 52.318-169.5 2.386-13.09647 7.612-47.52702 7.621-50.20469 0-1.46148-1.249-1.66518-26.496-4.30501-93.157-9.74046-162.843-26.54748-211.7252-51.06467C9934.8895 417.39147 9900.35 373.79602 9876.5775 299c-2.0103-6.325-3.8387-12.03695-4.0631-12.69323-.2571-.75189-9.7669 3.56577-25.7112 11.67357-94.9057 48.26007-183.3226 70.34168-312.3032 77.99597-33.9361 2.01392-76.7964 3.03941-168 4.01964-139.4301 1.49854-203.4632 4.24894-280.5 12.04824-343.574 34.78388-627.5068 158.06326-880.4803 382.29136-49.8313 44.16896-107.7557 101.94808-156.5572 156.16445-124.4456 138.2537-245.1129 306.3188-386.9908 539-47.3211 77.607-89.6489 149.3757-180.4732 306-96.181 165.8618-142.0657 243.4831-193.2592 326.9289-133.0687 216.9027-249.5597 381.2097-370.14 522.0711-45.084 52.667-81.1529 91.6472-130.0521 140.5496-37.3008 37.3033-59.4451 58.1196-94.0472 88.4073-189.2556 165.6583-435.4305 314.5301-756.7572 457.6414-98.0011 43.6474-207.0817 88.5386-330.7428 136.1145-147.1296 56.6048-277.0611 96.9927-444.8979 138.2918-107.7489 26.5135-188.5696 43.8633-418.6021 89.8613-144.6411 28.9229-201.8458 40.7358-267.5 55.2396-179.214 39.5903-316.4824 77.7089-450.5 125.1012-457.8037 161.8919-921.8065 413.5543-1242.7889 674.0548-126.4533 102.626-229.3275 215.2714-345.8856 378.7385-26.1821 36.7192-50.5957 72.1651-103.3135 150-130.6327 192.8721-188.834 271.2414-270.6978 364.5-39.2185 44.6775-95.5416 103.1226-113.9483 118.2414-72.8768 59.8592-188.1855 99.6978-359.3659 124.1592-109.9603 15.7132-210.115 23.6204-463.5 36.593-168.08277 8.6054-245.23349 13.5824-326.5 21.0628-163.45788 15.0458-285.04402 37.4011-380.5 69.96-50.79762 17.3265-102.22218 42.2849-137 66.4916-31.39656 21.8533-59.00774 48.5199-77.64819 74.992C196.78055 5944.5422 188 5958.9514 188 5960.5134c0 .6508 1.6875 1.8871 3.75 2.7473 74.196 30.9467 121.39071 42.7489 199.75 49.9523 10.57478.9721 46.2949 1.287 146 1.287 137.24144 0 141.4743.101 189.41398 4.5183 15.42734 1.4216 20.8014 2.2685 22 3.4671 2.31903 2.319 2.14054 30.6348-.27018 42.8606-11.25828 57.096-56.10817 112.423-141.6438 174.7325-28.73136 20.9297-54.4564 37.9088-115.25474 76.0704-101.43653 63.6693-132.35049 88.4455-145.58796 116.6827-2.29383 4.8931-2.65664 6.9678-2.65249 15.1684.004 8.405.31902 10.097 2.73098 14.6792 1.4994 2.8486 3.11922 5.4222 3.59959 5.7191.48038.2969 12.52644 2.1457 26.76902 4.1085 191.97617 26.4569 369.29942 34.4341 532.3956 23.9508 243.0896-15.625 474.4879-74.1324 763-192.9188 130.3273-53.6585 204.6778-89.5938 310-149.8302 72.5838-41.5124 135.1654-79.972 271-166.5432 135.9408-86.6388 170.0077-108.0771 227-142.851 256.5344-156.5246 449.831-243.5472 657-295.7831 153.7548-38.7679 309.6913-58.9843 498.5-64.6281 43.2659-1.2933 163.4585-.6813 205 1.0437 208.805 8.6708 357.4302 23.1532 739.5 72.0587 387.3264 49.5784 539.4815 64.4909 747 73.2125 41.4893 1.7438 220.6419 1.7478 257.5.01 60.462-2.8575 107.6006-6.1572 154.4975-10.8149l25.4974-2.5323 9.633-6.413c58.1181-38.6908 108.9045-103.2087 155.8304-197.9638 30.6492-61.8884 50.4047-111.3618 100.0703-250.6047 33.6128-94.2371 50.1339-137.6908 68.9668-181.3953 55.6049-129.0398 114.8654-199.5235 187.9232-223.5135 13.4889-4.4294 18.0494-4.9917 18.1371-2.2365.6236 19.5773-1.0981 82.435-3.5948 131.25-21.1034 412.6007-121.2287 778.1724-312.2311 1140-87.8287 166.3793-193.1474 331.6504-347.5462 545.3862-22.5387 31.2005-82.375 113.0531-89.451 122.3638-2.3693 3.1175-2.3874 3.25-.4443 3.25 1.1141 0 14.105-2.288 28.8687-5.0845zm4055.0565-5586.9263c-1.406-1.1059-3.3792-4.1434-4.3849-6.75-2.9596-7.6704-2.5013-36.0065 1.0113-62.5354 17.6524-133.31833 55.9683-245.96533 127.4348-374.65303 25.1067-45.20887 86.1724-145.60275 98.4202-161.80577 13.8849-18.36878 26.1222-26.35674 33.9555-22.16451 4.7231 2.52772 6.0947 12.32566 3.2581 23.27281-3.5437 13.67525-5.9231 17.94396-39.9378 71.6467-49.4321 78.04415-73.0662 119.10885-97.5529 169.5-50.4735 103.86931-78.3048 198.35354-90.4043 306.9124-3.2304 28.9841-6.7059 40.556-15.3437 51.0876-6.0115 7.3296-11.7032 9.2281-16.4563 5.4892zm129.9373-.8318c-7.2904-7.6095-9.1428-20.9176-8.304-59.6574 2.422-111.85754 18.8475-207.38636 50.6369-294.5 16.1117-44.15132 30.9131-77.22349 67.1323-150 24.9146-50.06188 32.9058-64.22985 41.9763-74.42186 15.7748-17.72537 29.0385-12.34633 26.4612 10.73124-1.2471 11.1669-6.2808 23.49314-22.13 54.19062-21.8419 42.30461-45.0145 88.77286-51.7136 103.70194-37.2028 82.90713-58.521 158.68092-69.1529 245.79806-3.8212 31.31064-5.5962 57.15138-6.5256 95-.923 37.5902-1.7248 43.8429-7.1721 55.931-6.6168 14.6835-14.8771 19.835-21.2085 13.2264zm-282.9078-24.1865c-2.8751-1.7642-5.4847-8.043-6.2231-14.973-1.7215-16.1558 6.8474-59.1052 21.1478-105.9979 26.7126-87.59324 69.548-173.80029 134.5649-270.81426 29.263-43.66431 58.9702-83.91929 116.7375-158.18574 19.0376-24.475 40.8651-52.825 48.5055-63 20.5216-27.32923 35.1891-40.83812 46.2305-42.57857 3.7861-.5968 4.5102-.35901 7.25 2.38085 2.7777 2.7777 3.0439 3.62177 3.0439 9.65234 0 4.01789-.8123 9.04616-2.0722 12.82693-4.4356 13.31109-11.4782 23.58812-43.0923 62.88344-56.0531 69.67223-78.2257 97.57774-92.2983 116.16286-110.8706 146.42287-173.8458 272.16734-198.5045 396.35995-2.2046 11.1033-5.3362 23.8262-6.9591 28.2732-3.4671 9.5-10.5924 20.6719-15.6397 24.5216-3.9244 2.9933-9.9445 4.1737-12.6909 2.4883zm-135.8411-22.7673c-3.148-2.8127-3.3757-3.4547-3.7328-10.5255-.6518-12.9089 3.3188-27.7936 16.987-63.6781 20.5721-54.01017 53.6348-120.75393 90.1569-182 68.2066-114.3796 163.9369-241.02437 270.2328-357.5 22.666-24.83669 46.7812-50.07343 53.8314-56.33503 22.9801-20.40958 41.4688-25.18491 44.2215-11.42168 1.0488 5.24412-2.9507 16.1858-9.3685 25.63036-3.2422 4.77113-16.4164 19.87225-30.3416 34.77942-198.3199 212.3053-334.1978 412.13644-389.8551 573.34693-3.4179 9.9-7.7755 20.9824-9.6835 24.6277-6.9437 13.2657-17.7132 23.7949-26.0414 25.4606-2.4735.4947-3.6916.041-6.4067-2.3847zm-530.4019-54.885c-66.8943-5.77276-125.068-28.46386-169.4598-66.09902l-3.4597-2.93318 3.8545-14.3932c23.395-87.36051 65.6348-152.80791 128.7508-199.48977 28.1991-20.8566 63.8696-39.03279 100.8142-51.3707 61.1242-20.41284 136.169-29.70438 217.8196-26.96894 37.5646 1.25848 53.3559 2.56306 54.8386 4.53043 1.2729 1.68916 3.6082 13.50602 5.9575 30.14605 2.1301 15.08719 2.9387 54.04091 1.452 69.9425-5.7802 61.82148-30.5828 115.85612-73.5079 160.14294-24.941 25.73231-49.5392 43.65189-82.837 60.34629-39.2128 19.65998-81.7899 31.55297-128.2228 35.8163-10.1072.9281-46.5807 1.1432-56 .3303zm-364.9829 4779.6591c34.4152-2.2012 67.9766-6.4467 95.4829-12.0785 7.975-1.6328 15.1064-3.1809 15.8476-3.4401.8959-.3133-.7802-2.8287-5-7.504-37.1477-41.1573-72.3407-101.8667-109.8263-189.4551-82.2236-192.1223-154.8572-470.5717-170.0744-652-.6458-7.7-1.3658-14.2052-1.6-14.4561-.2341-.2508-18.7454 17.7861-41.1363 40.0819-22.3908 22.2959-61.8606 61.0298-87.7106 86.0754-144.0151 139.5337-217.1119 221.113-276.813 308.936-46.2852 68.0874-79.5235 137.7283-94.7148 198.446l-3.2733 13.0831 4.2759 6.2966c27.8351 40.989 74.8126 79.7029 138.9202 114.4833 107.8346 58.5038 267.2829 101.212 412.605 110.5163 9.35.5987 19.025 1.2234 21.5 1.3883 12.055.8031 87.4594.5261 101.5171-.3731z"/>
  <path fill="#88796b" d="M5323.5 6905.2765c-62.403-1.1625-103.7598-12.294-111.1197-29.9088-3.4567-8.273-.8612-16.3051 9.9894-30.9133 3.658-4.9249 16.844-23.5794 29.3021-41.4544 38.248-54.8785 82.9317-115.3403 164.4367-222.5 67.6237-88.909 105.3717-139.6733 140.5397-189 130.6432-183.2408 212.1789-332.7192 270.5371-495.9724 7.7841-21.7756 8.7302-25.1162 7.3907-26.0957-.8449-.6178-5.4826-1.6651-10.3061-2.3273-26.6873-3.6641-174.3734-25.5707-337.7699-50.1022-102.3-15.3588-217.95-32.6529-257-38.4312-593.1272-87.767-930.2372-122.9712-1290.5-134.7664-51.3592-1.6815-237.855-1.6878-284.5-.01-143.0367 5.1462-254.9584 13.8754-368 28.7016-238.4251 31.2712-445.7174 101.5944-661 224.2419-88.049 50.162-179.0508 109.4846-309.5 201.7582-163.9308 115.9569-212.3685 149.2336-276 189.6122-258.7022 164.1643-542.0601 277.2315-843 336.3789-189.1832 37.1826-383.27807 50.9576-556.5 39.4951-204.44657-13.5286-369.27217-62.0023-434.23948-127.7058-12.32104-12.4607-20.40655-25.216-25.62134-40.4193-17.13934-49.9681-.71425-97.6069 50.99372-147.9005 30.78721-29.9451 70.39435-58.5823 151.3671-109.4432 80.87175-50.7974 116.23403-76.4095 141.04002-102.1519 13.00901-13.5001 24.38544-29.3686 22.41979-31.2724-.59309-.5744-9.74755.1623-23.95981 1.9282-27.69679 3.4413-56.51494 6.3644-85.5 8.6725-30.74997 2.4487-103.08978 2.456-125.25193.013C215.9172 6105.1384 156.26602 6075.492 71.5 5996.3009c-23.725157-22.1648-53.565095-51.6903-53.531074-52.967.0501-1.8802 24.15941-28.4378 42.051067-46.3214C211.24006 5745.861 420.36828 5656.1627 724.5 5612.007c107.22774-15.568 198.5905-23.8252 420.5-38.0041 178.3536-11.3959 251.9916-17.7561 337-29.1072 196.7681-26.2742 328.6224-73.7877 418.2261-150.707 32.154-27.6023 102.4511-105.1987 153.7266-169.6887 63.6221-80.0184 110.5815-149.659 196.2247-291 72.3886-119.4662 98.552-159.653 141.2766-217 62.8117-84.3088 125.6172-150.8116 213.046-225.5876 329.5876-281.8891 709.9177-521.6138 1075.5-677.895 166.4107-71.1382 310.5633-118.653 535.0387-176.3568 110.8016-28.4827 226.8293-55.1656 465.9613-107.1574 226.2327-49.1872 328.0573-72.3842 443.5-101.0352 332.6714-82.5638 593.8781-171.6601 841.5-287.0316 14.025-6.5345 49.125-23.6784 78-38.0975 162.9571-81.375 260.9107-141.5518 369-226.6916 113.0444-89.0428 226.9932-201.7103 335.4191-331.6473 122.1578-146.3932 242.6913-317.9401 392.9787-559.299 40.6745-65.3223 70.9108-114.7544 150.5952-246.201 109.3389-180.3646 152.7806-250.8046 209.9928-340.5 159.7204-250.4044 291.1332-426.29559 435.8753-583.40309C7962.2302 789.14594 8039.327 712.09593 8064 689.53455c157.2304-143.77399 308.6634-244.84217 482.5627-322.06802 122.8929-54.57472 257.8527-92.87453 427.9373-121.44295 80.4233-13.50838 151.4299-22.82326 305-40.01091 256.5903-28.71773 344.2985-42.25143 460.6226-71.07578 115.9417-28.72962 199.627-56.190955 277.6804-91.120865 54.611-24.439119 71.462-30.650064 97.197-35.8248212 26.285-5.285265 48.918-7.33767825 81.5-7.39050623 32.593-.052846 45.753 1.41155523 71 7.90103423C10347.031 28.94391 10396.168 87.689862 10410.947 180c6.5 40.60079 6.696 110.34324.527 187.5-14.214 177.75786-63.536 325.15859-153.252 458-58.78 87.03444-130.625 164.64121-265.222 286.4913-63.2315 57.2433-106.6195 92.5435-228 185.4993-76.1021 58.2807-115.3075 89.1666-153.4241 120.8674-137.182 114.0911-240.257 224.14-332.7953 355.3115-34.7818 49.3027-51.671 76.4491-68.6423 110.3305-54.2846 108.373-97.6904 260.4141-152.1647 533-10.1436 50.7578-16.0256 81.1341-46.4736 240-47.0878 245.6863-76.023 376.2893-115.5661 521.6223-33.4871 123.0752-57.8367 216.4174-119.4438 457.8777-126.6815 496.5101-172.5572 658.8848-244.9535 867-29.5556 84.9622-45.4106 179.219-50.6314 301-1.4818 34.5641-.626 124.9139 1.5107 159.5 9.1901 148.7505 34.0483 285.1521 74.2614 407.4866 72.4905 220.5273 184.218 362.6534 321.1626 408.5438 6.4002 2.1448 11.7514 4.2528 11.8914 4.6846.3276 1.0096-25.8736 19.2695-45.2313 31.5222-135.1207 85.5264-294.4513 138.0712-466 153.6795-39.6903 3.6112-61.2213 4.5192-106.5 4.4912-45.0868-.028-64.7976-.8696-104.5-4.463-160.6472-14.5396-312.9551-62.2257-437.598-137.0076-91.9524-55.1686-169.2868-125.7838-224.7106-205.187-6.4303-9.2123-12.2889-16.7498-13.0193-16.75-2.167-.0005-27.6358 7.5532-42.1721 12.5078-33.9769 11.5808-76.6357 30.9178-108 48.956-70.8984 40.7751-139.3828 100.5275-203.3921 177.4591-46.0997 55.4063-89.7715 117.6699-163.1297 232.5768-71.6897 112.2932-101.4508 156.567-137.8022 205-73.2071 97.5378-144.0524 166.6164-222.0153 216.4785-46.7562 29.9035-155.1481 87.0966-228.9816 120.8225-177.9577 81.2879-359.3366 141.2038-663.1791 219.0716-109.9322 28.173-142.0166 35.7767-173 40.9993-86.9111 14.6497-163.9911 21.5783-227 20.4046zm257.157-213.361c408.6963-77.4142 752.5771-243.1665 1037.4775-500.0693 90.8148-81.8903 179.8335-177.5681 259.7232-279.1518 207.6813-264.0772 385.7371-606.165 534.6519-1027.1944 4.2797-12.1 8.3191-22.5872 8.9765-23.305 2.698-2.9456 18.9895 13.3819 30.6618 30.7296 18.9801 28.2087 31.7282 67.1896 38.779 118.5768 4.3548 31.7392 6.8973 66.6238 9.5475 130.9986 4.2274 102.6853 8.3072 143.573 18.4729 185.1386 3.0399 12.4295 9.3562 32.7851 10.9295 35.2225.6901 1.0691 3.4254-.097 12.7509-5.4352 239.9569-137.3621 448.7061-355.705 632.3636-661.4259 90.4992-150.6472 175.9555-325.9592 254.2065-521.5 118.838-296.9634 222.615-640.048 327.3225-1082.122 31.424-132.6717 57.4221-248.7139 111.9925-499.878 34.5235-158.8969 55.6378-254.4416 70.4954-319 70.4564-306.1432 119.9191-459.5593 177.4378-550.3503 50.1815-79.2095 126.1528-165.9901 212.554-242.7963 78.2967-69.6019 146.6796-121.1818 316-238.3532 75.6492-52.35 109.8808-76.4083 143.5-100.8534 156.7225-113.9556 254.292-208.07118 324.272-312.79386 21.411-32.0405 44.308-73.11496 59.285-106.35294 23.471-52.08543 41.675-111.06216 52.318-169.5 2.386-13.09647 7.612-47.52702 7.621-50.20469 0-1.46148-1.249-1.66518-26.496-4.30501-93.157-9.74046-162.843-26.54748-211.7252-51.06467C9934.8895 417.39147 9900.35 373.79602 9876.5775 299c-2.0103-6.325-3.8387-12.03695-4.0631-12.69323-.2571-.75189-9.7669 3.56577-25.7112 11.67357-94.9057 48.26007-183.3226 70.34168-312.3032 77.99597-33.9361 2.01392-76.7964 3.03941-168 4.01964-139.4301 1.49854-203.4632 4.24894-280.5 12.04824-343.574 34.78388-627.5068 158.06326-880.4803 382.29136-49.8313 44.16896-107.7557 101.94808-156.5572 156.16445-124.4456 138.2537-245.1129 306.3188-386.9908 539-47.3211 77.607-89.6489 149.3757-180.4732 306-96.181 165.8618-142.0657 243.4831-193.2592 326.9289-133.0687 216.9027-249.5597 381.2097-370.14 522.0711-45.084 52.667-81.1529 91.6472-130.0521 140.5496-37.3008 37.3033-59.4451 58.1196-94.0472 88.4073-189.2556 165.6583-435.4305 314.5301-756.7572 457.6414-98.0011 43.6474-207.0817 88.5386-330.7428 136.1145-147.1296 56.6048-277.0611 96.9927-444.8979 138.2918-107.7489 26.5135-188.5696 43.8633-418.6021 89.8613-144.6411 28.9229-201.8458 40.7358-267.5 55.2396-179.214 39.5903-316.4824 77.7089-450.5 125.1012-457.8037 161.8919-921.8065 413.5543-1242.7889 674.0548-126.4533 102.626-229.3275 215.2714-345.8856 378.7385-26.1821 36.7192-50.5957 72.1651-103.3135 150-130.6327 192.8721-188.834 271.2414-270.6978 364.5-39.2185 44.6775-95.5416 103.1226-113.9483 118.2414-72.8768 59.8592-188.1855 99.6978-359.3659 124.1592-109.9603 15.7132-210.115 23.6204-463.5 36.593-168.08277 8.6054-245.23349 13.5824-326.5 21.0628-163.45788 15.0458-285.04402 37.4011-380.5 69.96-50.79762 17.3265-102.22218 42.2849-137 66.4916-31.39656 21.8533-59.00774 48.5199-77.64819 74.992C196.78055 5944.5422 188 5958.9514 188 5960.5134c0 .6508 1.6875 1.8871 3.75 2.7473 74.196 30.9467 121.39071 42.7489 199.75 49.9523 10.57478.9721 46.2949 1.287 146 1.287 137.24144 0 141.4743.101 189.41398 4.5183 15.42734 1.4216 20.8014 2.2685 22 3.4671 2.31903 2.319 2.14054 30.6348-.27018 42.8606-11.25828 57.096-56.10817 112.423-141.6438 174.7325-28.73136 20.9297-54.4564 37.9088-115.25474 76.0704-101.43653 63.6693-132.35049 88.4455-145.58796 116.6827-2.29383 4.8931-2.65664 6.9678-2.65249 15.1684.004 8.405.31902 10.097 2.73098 14.6792 1.4994 2.8486 3.11922 5.4222 3.59959 5.7191.48038.2969 12.52644 2.1457 26.76902 4.1085 191.97617 26.4569 369.29942 34.4341 532.3956 23.9508 243.0896-15.625 474.4879-74.1324 763-192.9188 130.3273-53.6585 204.6778-89.5938 310-149.8302 72.5838-41.5124 135.1654-79.972 271-166.5432 135.9408-86.6388 170.0077-108.0771 227-142.851 256.5344-156.5246 449.831-243.5472 657-295.7831 153.7548-38.7679 309.6913-58.9843 498.5-64.6281 43.2659-1.2933 163.4585-.6813 205 1.0437 208.805 8.6708 357.4302 23.1532 739.5 72.0587 387.3264 49.5784 539.4815 64.4909 747 73.2125 41.4893 1.7438 220.6419 1.7478 257.5.01 60.462-2.8575 107.6006-6.1572 154.4975-10.8149l25.4974-2.5323 9.633-6.413c58.1181-38.6908 108.9045-103.2087 155.8304-197.9638 30.6492-61.8884 50.4047-111.3618 100.0703-250.6047 33.6128-94.2371 50.1339-137.6908 68.9668-181.3953 55.6049-129.0398 114.8654-199.5235 187.9232-223.5135 13.4889-4.4294 18.0494-4.9917 18.1371-2.2365.6236 19.5773-1.0981 82.435-3.5948 131.25-21.1034 412.6007-121.2287 778.1724-312.2311 1140-87.8287 166.3793-193.1474 331.6504-347.5462 545.3862-22.5387 31.2005-82.375 113.0531-89.451 122.3638-2.3693 3.1175-2.3874 3.25-.4443 3.25 1.1141 0 14.105-2.288 28.8687-5.0845zm4055.0565-5586.9263c-1.406-1.1059-3.3792-4.1434-4.3849-6.75-2.9596-7.6704-2.5013-36.0065 1.0113-62.5354 17.6524-133.31833 55.9683-245.96533 127.4348-374.65303 25.1067-45.20887 86.1724-145.60275 98.4202-161.80577 13.8849-18.36878 26.1222-26.35674 33.9555-22.16451 4.7231 2.52772 6.0947 12.32566 3.2581 23.27281-3.5437 13.67525-5.9231 17.94396-39.9378 71.6467-49.4321 78.04415-73.0662 119.10885-97.5529 169.5-50.4735 103.86931-78.3048 198.35354-90.4043 306.9124-3.2304 28.9841-6.7059 40.556-15.3437 51.0876-6.0115 7.3296-11.7032 9.2281-16.4563 5.4892zm129.9373-.8318c-7.2904-7.6095-9.1428-20.9176-8.304-59.6574 2.422-111.85754 18.8475-207.38636 50.6369-294.5 16.1117-44.15132 30.9131-77.22349 67.1323-150 24.9146-50.06188 32.9058-64.22985 41.9763-74.42186 15.7748-17.72537 29.0385-12.34633 26.4612 10.73124-1.2471 11.1669-6.2808 23.49314-22.13 54.19062-21.8419 42.30461-45.0145 88.77286-51.7136 103.70194-37.2028 82.90713-58.521 158.68092-69.1529 245.79806-3.8212 31.31064-5.5962 57.15138-6.5256 95-.923 37.5902-1.7248 43.8429-7.1721 55.931-6.6168 14.6835-14.8771 19.835-21.2085 13.2264zm-282.9078-24.1865c-2.8751-1.7642-5.4847-8.043-6.2231-14.973-1.7215-16.1558 6.8474-59.1052 21.1478-105.9979 26.7126-87.59324 69.548-173.80029 134.5649-270.81426 29.263-43.66431 58.9702-83.91929 116.7375-158.18574 19.0376-24.475 40.8651-52.825 48.5055-63 20.5216-27.32923 35.1891-40.83812 46.2305-42.57857 3.7861-.5968 4.5102-.35901 7.25 2.38085 2.7777 2.7777 3.0439 3.62177 3.0439 9.65234 0 4.01789-.8123 9.04616-2.0722 12.82693-4.4356 13.31109-11.4782 23.58812-43.0923 62.88344-56.0531 69.67223-78.2257 97.57774-92.2983 116.16286-110.8706 146.42287-173.8458 272.16734-198.5045 396.35995-2.2046 11.1033-5.3362 23.8262-6.9591 28.2732-3.4671 9.5-10.5924 20.6719-15.6397 24.5216-3.9244 2.9933-9.9445 4.1737-12.6909 2.4883zm-135.8411-22.7673c-3.148-2.8127-3.3757-3.4547-3.7328-10.5255-.6518-12.9089 3.3188-27.7936 16.987-63.6781 20.5721-54.01017 53.6348-120.75393 90.1569-182 68.2066-114.3796 163.9369-241.02437 270.2328-357.5 22.666-24.83669 46.7812-50.07343 53.8314-56.33503 22.9801-20.40958 41.4688-25.18491 44.2215-11.42168 1.0488 5.24412-2.9507 16.1858-9.3685 25.63036-3.2422 4.77113-16.4164 19.87225-30.3416 34.77942-198.3199 212.3053-334.1978 412.13644-389.8551 573.34693-3.4179 9.9-7.7755 20.9824-9.6835 24.6277-6.9437 13.2657-17.7132 23.7949-26.0414 25.4606-2.4735.4947-3.6916.041-6.4067-2.3847zm-530.4019-54.885c-66.8943-5.77276-125.068-28.46386-169.4598-66.09902l-3.4597-2.93318 3.8545-14.3932c23.395-87.36051 65.6348-152.80791 128.7508-199.48977 28.1991-20.8566 63.8696-39.03279 100.8142-51.3707 61.1242-20.41284 136.169-29.70438 217.8196-26.96894 37.5646 1.25848 53.3559 2.56306 54.8386 4.53043 1.2729 1.68916 3.6082 13.50602 5.9575 30.14605 2.1301 15.08719 2.9387 54.04091 1.452 69.9425-5.7802 61.82148-30.5828 115.85612-73.5079 160.14294-24.941 25.73231-49.5392 43.65189-82.837 60.34629-39.2128 19.65998-81.7899 31.55297-128.2228 35.8163-10.1072.9281-46.5807 1.1432-56 .3303zm-364.9829 4779.6591c34.4152-2.2012 67.9766-6.4467 95.4829-12.0785 7.975-1.6328 15.1064-3.1809 15.8476-3.4401.8959-.3133-.7802-2.8287-5-7.504-37.1477-41.1573-72.3407-101.8667-109.8263-189.4551-82.2236-192.1223-154.8572-470.5717-170.0744-652-.6458-7.7-1.3658-14.2052-1.6-14.4561-.2341-.2508-18.7454 17.7861-41.1363 40.0819-22.3908 22.2959-61.8606 61.0298-87.7106 86.0754-144.0151 139.5337-217.1119 221.113-276.813 308.936-46.2852 68.0874-79.5235 137.7283-94.7148 198.446l-3.2733 13.0831 4.2759 6.2966c27.8351 40.989 74.8126 79.7029 138.9202 114.4833 107.8346 58.5038 267.2829 101.212 412.605 110.5163 9.35.5987 19.025 1.2234 21.5 1.3883 12.055.8031 87.4594.5261 101.5171-.3731z"/>
  <path fill="#49678f" d="M5323.5 6905.2765c-62.403-1.1625-103.7598-12.294-111.1197-29.9088-3.4567-8.273-.8612-16.3051 9.9894-30.9133 3.658-4.9249 16.844-23.5794 29.3021-41.4544 38.248-54.8785 82.9317-115.3403 164.4367-222.5 67.6237-88.909 105.3717-139.6733 140.5397-189 130.6432-183.2408 212.1789-332.7192 270.5371-495.9724 7.7841-21.7756 8.7302-25.1162 7.3907-26.0957-.8449-.6178-5.4826-1.6651-10.3061-2.3273-26.6873-3.6641-174.3734-25.5707-337.7699-50.1022-102.3-15.3588-217.95-32.6529-257-38.4312-593.1272-87.767-930.2372-122.9712-1290.5-134.7664-51.3592-1.6815-237.855-1.6878-284.5-.01-143.0367 5.1462-254.9584 13.8754-368 28.7016-238.4251 31.2712-445.7174 101.5944-661 224.2419-88.049 50.162-179.0508 109.4846-309.5 201.7582-163.9308 115.9569-212.3685 149.2336-276 189.6122-258.7022 164.1643-542.0601 277.2315-843 336.3789-189.1832 37.1826-383.27807 50.9576-556.5 39.4951-204.44657-13.5286-369.27217-62.0023-434.23948-127.7058-12.32104-12.4607-20.40655-25.216-25.62134-40.4193-17.13934-49.9681-.71425-97.6069 50.99372-147.9005 30.78721-29.9451 70.39435-58.5823 151.3671-109.4432 80.87175-50.7974 116.23403-76.4095 141.04002-102.1519 13.00901-13.5001 24.38544-29.3686 22.41979-31.2724-.59309-.5744-9.74755.1623-23.95981 1.9282-27.69679 3.4413-56.51494 6.3644-85.5 8.6725-30.74997 2.4487-103.08978 2.456-125.25193.013C215.9172 6105.1384 156.26602 6075.492 71.5 5996.3009c-23.725157-22.1648-53.565095-51.6903-53.531074-52.967.0501-1.8802 24.15941-28.4378 42.051067-46.3214C211.24006 5745.861 420.36828 5656.1627 724.5 5612.007c107.22774-15.568 198.5905-23.8252 420.5-38.0041 178.3536-11.3959 251.9916-17.7561 337-29.1072 196.7681-26.2742 328.6224-73.7877 418.2261-150.707 32.154-27.6023 102.4511-105.1987 153.7266-169.6887 63.6221-80.0184 110.5815-149.659 196.2247-291 72.3886-119.4662 98.552-159.653 141.2766-217 62.8117-84.3088 125.6172-150.8116 213.046-225.5876 329.5876-281.8891 709.9177-521.6138 1075.5-677.895 166.4107-71.1382 310.5633-118.653 535.0387-176.3568 110.8016-28.4827 226.8293-55.1656 465.9613-107.1574 226.2327-49.1872 328.0573-72.3842 443.5-101.0352 332.6714-82.5638 593.8781-171.6601 841.5-287.0316 14.025-6.5345 49.125-23.6784 78-38.0975 162.9571-81.375 260.9107-141.5518 369-226.6916 113.0444-89.0428 226.9932-201.7103 335.4191-331.6473 122.1578-146.3932 242.6913-317.9401 392.9787-559.299 40.6745-65.3223 70.9108-114.7544 150.5952-246.201 109.3389-180.3646 152.7806-250.8046 209.9928-340.5 159.7204-250.4044 291.1332-426.29559 435.8753-583.40309C7962.2302 789.14594 8039.327 712.09593 8064 689.53455c157.2304-143.77399 308.6634-244.84217 482.5627-322.06802 122.8929-54.57472 257.8527-92.87453 427.9373-121.44295 80.4233-13.50838 151.4299-22.82326 305-40.01091 256.5903-28.71773 344.2985-42.25143 460.6226-71.07578 115.9417-28.72962 199.627-56.190955 277.6804-91.120865 54.611-24.439119 71.462-30.650064 97.197-35.8248212 26.285-5.285265 48.918-7.33767825 81.5-7.39050623 32.593-.052846 45.753 1.41155523 71 7.90103423C10347.031 28.94391 10396.168 87.689862 10410.947 180c6.5 40.60079 6.696 110.34324.527 187.5-14.214 177.75786-63.536 325.15859-153.252 458-58.78 87.03444-130.625 164.64121-265.222 286.4913-63.2315 57.2433-106.6195 92.5435-228 185.4993-76.1021 58.2807-115.3075 89.1666-153.4241 120.8674-137.182 114.0911-240.257 224.14-332.7953 355.3115-34.7818 49.3027-51.671 76.4491-68.6423 110.3305-54.2846 108.373-97.6904 260.4141-152.1647 533-10.1436 50.7578-16.0256 81.1341-46.4736 240-47.0878 245.6863-76.023 376.2893-115.5661 521.6223-33.4871 123.0752-57.8367 216.4174-119.4438 457.8777-126.6815 496.5101-172.5572 658.8848-244.9535 867-29.5556 84.9622-45.4106 179.219-50.6314 301-1.4818 34.5641-.626 124.9139 1.5107 159.5 9.1901 148.7505 34.0483 285.1521 74.2614 407.4866 72.4905 220.5273 184.218 362.6534 321.1626 408.5438 6.4002 2.1448 11.7514 4.2528 11.8914 4.6846.3276 1.0096-25.8736 19.2695-45.2313 31.5222-135.1207 85.5264-294.4513 138.0712-466 153.6795-39.6903 3.6112-61.2213 4.5192-106.5 4.4912-45.0868-.028-64.7976-.8696-104.5-4.463-160.6472-14.5396-312.9551-62.2257-437.598-137.0076-91.9524-55.1686-169.2868-125.7838-224.7106-205.187-6.4303-9.2123-12.2889-16.7498-13.0193-16.75-2.167-.0005-27.6358 7.5532-42.1721 12.5078-33.9769 11.5808-76.6357 30.9178-108 48.956-70.8984 40.7751-139.3828 100.5275-203.3921 177.4591-46.0997 55.4063-89.7715 117.6699-163.1297 232.5768-71.6897 112.2932-101.4508 156.567-137.8022 205-73.2071 97.5378-144.0524 166.6164-222.0153 216.4785-46.7562 29.9035-155.1481 87.0966-228.9816 120.8225-177.9577 81.2879-359.3366 141.2038-663.1791 219.0716-109.9322 28.173-142.0166 35.7767-173 40.9993-86.9111 14.6497-163.9911 21.5783-227 20.4046zm258.3406-212.7802c479.3596-91.0394 869.4917-303.5591 1181.1684-643.4271 257.9157-281.2443 469.2276-657.114 643.4706-1144.5692 14.8332-41.4967 14.9529-41.8109 16.0663-42.182.5753-.1918 4.521 2.8534 8.7682 6.7669 22.1307 20.3921 39.972 54.6249 50.0895 96.109 10.0358 41.1487 14.2932 82.2764 18.0957 174.8061 4.8988 119.2098 10.2574 164.1171 25.0747 210.1386 5.3669 16.6692 4.1936 15.7142 13.2406 10.7776 27.9046-15.2267 87.2582-53.0249 119.2311-75.9301 166.0995-118.9923 312.1144-274.4795 447.4582-476.4861 234.3534-349.7825 424.5181-821.7708 591.4591-1468 52.6353-203.7514 92.2503-374.7559 174.556-753.5 75.7452-348.5549 105.1704-473.2921 140.8307-597 33.2331-115.2876 66.1697-200.8676 97.3703-253 39.6866-66.3114 107.8432-149.3826 176.3138-214.8962 89.4006-85.5397 165.1774-144.4294 353.9662-275.0838 153.1206-105.9697 210.8583-148.4541 274.4496-201.9449 57.0705-48.00568 115.4394-106.37555 154.1304-154.13293 76.466-94.38391 125.894-194.87962 151.315-307.65165 6.875-30.50211 14.94-80.8558 13.224-82.57173-.43-.42992-7.27-1.44817-15.2-2.26278-119.714-12.29727-196.975-32.98142-247.524-66.26642-24.4978-16.13109-44.69-36.90878-60.923-62.68959-10.9646-17.41358-24.5607-48.54983-32.4224-74.25-1.9911-6.50884-3.6373-10.25-4.5102-10.25-.7561 0-7.8243 3.4671-15.7071 7.70467-67.8051 36.45024-144.9794 61.30833-227.3323 73.22449-62.6183 9.06063-110.6823 11.48256-259.5 13.07614-115.5333 1.23717-165.5941 2.884-229 7.53334-364.1362 26.70086-662.0447 148.67474-925.5 378.93113-58.6098 51.22422-128.3334 121.28844-185.6283 186.53537C7921.5858 1074.1813 7815.6336 1220.9308 7695.3143 1414c-54.7428 87.8425-102.9451 168.9769-210.3863 354.1241-160.7604 277.0289-226.9033 385.9492-312.967 515.3759-133.5117 200.7814-261.2227 359.9376-393.6044 490.5185-153.6426 151.5526-334.9321 279.9101-576.8566 408.4289-30.9681 16.4513-135.3085 68.4432-170.5 84.9585-131.1844 61.5648-280.9632 124.4656-445.5 187.0912-157.0459 59.7745-317.208 106.945-516.5 152.1184-85.6917 19.4237-163.8667 35.711-326 67.9204-306.0083 60.7917-453.7222 95.7317-608 143.8156-232.7039 72.5269-509.9452 190.7459-758.5 323.4334-259.1692 138.3538-506.5175 304.7822-664.5 447.109-37.7643 34.0219-95.3948 92.9648-133.0756 136.1061-72.0989 82.5471-128.7001 159.0021-245.4162 331.5-81.6505 120.6735-118.8409 173.614-163.3302 232.5-65.0517 86.1024-125.7418 156.5512-192.1551 223.0529-36.9653 37.0145-60.3003 53.8504-105.557 76.1583-95.5343 47.0906-233.2817 76.2965-444.4659 94.2381-62.4426 5.3049-137.4913 10.1272-242 15.5498-32.175 1.6695-84.375 4.3838-116 6.0318-157.95595 8.2312-255.95119 15.5861-346.5 26.006-147.70426 16.9972-262.37788 42.8548-348 78.4703-81.79811 34.0247-140.08781 77.5781-176.30122 131.73C191.19705 5952.2027 187 5959.2507 187 5960.7223c0 2.5512 45.73068 20.5318 74 29.0958 48.2107 14.6051 92.86428 22.1057 150 25.1961 12.19151.6594 64.28796.9481 139 .7703 124.26101-.2958 131.64752-.124 178.276 4.1475 11.29232 1.0344 19.26386 2.2084 20 2.9452 2.20807 2.2104 1.4713 33.7777-1.05741 45.3056-10.34147 47.1446-42.58589 91.9054-101.71859 141.2029-31.87034 26.5696-78.34684 58.6028-154 106.1422-93.04573 58.4687-123.3297 81.5367-140.18813 106.7849-10.5646 15.8222-12.04395 31.8757-4.03398 43.7756 2.23969 3.3274 2.57942 3.454 13.75925 5.127 18.65475 2.7917 80.35628 10.4938 109.96286 13.7266 282.06517 30.7986 519.87723 19.9393 757.5-34.5901 146.6976-33.6639 298.7436-84.8901 485.2839-163.4979 91.0401-38.3642 148.6079-65.9915 223.9648-107.4827 88.6488-48.8096 163.2172-94.2791 348.2513-212.3527 128.272-81.8526 180.3783-114.2411 251.5-156.3287 187.4272-110.9134 345.3286-184.7069 497.5252-232.5126 253.1982-79.531 533.9109-107.6262 885.4748-88.6231 171.4896 9.2696 316.4511 24.402 684.5154 71.4562 364.9775 46.6595 518.4857 61.5252 724.9846 70.2073 41.3794 1.7397 214.7297 1.7441 251.5.01 60.1881-2.8446 109.4146-6.2526 156-10.8 29.4021-2.8701 26.9417-2.0568 44.7977-14.8072 57.4198-41.0014 109.7917-110.7522 155.2555-206.7749 28.5663-60.3341 47.2375-107.8414 94.4587-240.3419 32.3088-90.6573 52.5436-143.6159 70.1128-183.5 10.1361-23.0102 32.123-66.7889 41.9361-83.5 36.2776-61.7791 74.2314-101.5241 117.9295-123.4951 16.486-8.289 40.2295-16.0561 41.7382-13.6537 1.4719 2.3438-.3803 78.4268-3.2779 134.6488-18.1121 351.4212-95.0643 672.5351-234.7289 979.5-30.3629 66.7338-70.158 145.7949-106.4576 211.5-94.1665 170.4487-204.6577 337.6496-385.1301 582.7981-13.8237 18.7778-25.134 34.38-25.134 34.6716 0 1.0881 4.563.397 32.8406-4.9734zm4053.6883-5588.8765c-1.3092-1.3092-3.0887-4.7658-3.9546-7.6815-5.98-20.137 5.3806-104.47032 23.903-177.4383 24.8025-97.70839 62.3448-185.18762 126.8157-295.5 14.6657-25.09372 66.0358-108.70106 73.084-118.94798 6.56-9.53709 18.9141-22.19298 24.3332-24.92751 2.3156-1.16848 6.0347-2.12451 8.2647-2.12451 3.5012 0 4.3249.44353 6.0361 3.25 3.7317 6.12048 2.0987 19.9528-3.9186 33.19215-3.5036 7.70844-7.2114 13.82125-36.1257 59.55785-13.0389 20.625-28.78 45.825-34.9801 56-89.1558 146.31282-135.8577 274.21589-151.8964 416-1.8645 16.4817-3.8139 29.1464-5.1566 33.5-6.4984 21.0705-18.7749 32.7496-26.4047 25.1198zm130.197-.384c-6.6915-6.9844-8.2015-19.0706-7.4004-59.2344 2.3293-116.78814 20.0281-215.00196 55.4139-307.5014 15.1752-39.66866 29.5557-71.08141 65.2351-142.5 27.7973-55.64105 34.8313-66.95415 46.711-75.12762 11.3449-7.80547 18.2172-1.45486 17.0056 15.71449-.8627 12.2245-4.1961 20.74029-20.9081 53.41313-44.4092 86.82282-53.6711 106.13891-68.3275 142.5-29.4271 73.00599-47.9594 148.79614-55.873 228.5-2.7147 27.34159-3.6667 43.7472-4.555 78.5-.7532 29.4683-1.1482 35.0663-2.963 42-5.559 21.239-16.5042 31.9131-24.3386 23.7358zm-284.595-25.7966c-6.3925-8.1267-5.0723-29.6493 4.3026-70.1471 14.4412-62.38237 38.4561-126.37155 71.9791-191.7921 42.9379-83.79396 90.4231-154.35771 190.1058-282.5 18.6114-23.925 40.617-52.5 48.9012-63.5 17.7959-23.62966 30.3151-36.71222 39.545-41.32443 3.4951-1.74656 7.5328-3.17557 8.9726-3.17557 6.4474 0 9.7148 6.45866 8.1142 16.03943-2.902 17.37107-10.2275 28.29428-60.6662 90.46057-70.6684 87.09961-100.8736 127.17881-137.9155 183-72.7909 109.69412-116.513 208.39846-137.0962 309.5-5.6701 27.8511-9.2445 37.7686-17.1193 47.5-6.8794 8.5014-15.0998 11.0544-19.1233 5.9392zm-134.4515-21.4083c-2.4568-2.9198-2.6788-3.905-2.6724-11.8576.011-13.8184 5.026-31.0338 20.4374-70.15937 62.7818-159.38633 198.9765-360.10277 368.4413-542.98895 36.1733-39.03828 51.4252-52.96224 64.999-59.33977 8.7778-4.12415 14.4143-4.20012 17.8211-.2402 2.2243 2.5853 2.4675 3.58726 1.9911 8.20319-.6859 6.64546-4.8022 15.87037-10.6506 23.86866-2.5005 3.4196-12.9164 15.16473-23.1465 26.10029-202.9339 216.92774-339.804 417.48166-395.406 579.38285-3.1166 9.075-7.4234 19.875-9.5705 24-7.5808 14.5639-17.6834 24.6216-25.8289 25.7142-3.2691.4384-4.0701.1034-6.415-2.6833zM8805 1000.4775c-60.7342-6.86992-114.0807-28.81261-157.4504-64.76316l-2.9505-2.4457 2.7345-10.88432c26.9716-107.35777 87.0645-186.01593 176.7968-231.41675 59.9567-30.33563 127.6595-45.68193 215.9641-48.95288 36.5926-1.35545 106.3242 1.00397 109.0086 3.68839 1.1559 1.15595 5.4388 26.73137 6.8191 40.7206 1.5744 15.95691 1.3436 50.81671-.4374 66.04133-7.3487 62.82213-33.4519 115.26306-79.7079 160.13203-47.8747 46.43902-113.0497 76.70913-187.2769 86.97957-16.6597 2.30509-66.3466 2.84119-83.5.90089zm-335 4781.1256c33.9547-3.1503 85.0039-11.1875 92.8369-14.6164 2.2965-1.0053 2.2272-1.1449-4-8.0661-33.6043-37.3494-62.4964-84.8353-96.1329-158-85.3134-185.5707-168.1459-491.7428-183.2709-677.4206-.896-11-1.8305-20.6526-2.0765-21.4501-.2863-.928-15.4653 13.5049-42.152 40.08-22.9375 22.8416-62.4046 61.5841-87.7046 86.0944-96.639 93.6226-155.3166 154.8212-202.5724 211.2757-90.8609 108.5477-145.0875 203.2285-169.445 295.8548l-3.6434 13.8548 5.487 8.2449c52.2231 78.4737 184.4172 151.3231 349.1738 192.4225 72.0014 17.9612 142.4674 28.4499 225 33.4909 3.3.2015 27.375.2522 53.5.1126 34.1949-.1827 52.4019-.7086 65-1.8774z"/>
  <path fill="#5f626b" d="M5314 6903.8907c-56.9779-1.8623-93.5925-12.273-100.6164-28.6086-3.1888-7.4162-.2958-17.9423 7.4984-27.2821 2.0654-2.475 5.7236-7.425 8.1292-11 35.8897-53.3353 94.7251-133.5208 188.9383-257.5 104.5852-137.6281 148.0739-197.5204 198.9553-274 97.8507-147.0787 165.4847-278.9441 213.6236-416.5 6.0934-17.4115 6.3963-18.5039 5.5229-19.9169-.4131-.6686-9.407-2.4564-20.6417-4.1034-111.2863-16.3138-165.6944-24.4051-352.9096-52.4827-118.8-17.817-242.325-36.2612-274.5-40.987-563.9835-82.8374-897.3869-117.1658-1250-128.7046-51.3015-1.6787-235.9094-1.685-282.5-.01-142.892 5.1385-256.6275 14.0045-369 28.7646-258.7398 33.9855-477.1325 112.2524-716.5 256.777-76.4556 46.1621-147.9266 94.0908-288 193.1338-150.7556 106.5961-204.4814 142.9344-278.2443 188.1944C1683.6331 6506.0889 1313.1803 6628.0174 941 6659.4538c-108.26902 9.145-223.71157 9.8632-322 2.0033-157.59988-12.6029-291.00106-46.0393-367.77491-92.1812-18.56373-11.157-29.06904-19.1288-41.87507-31.7763-17.77699-17.557-25.34993-30.3597-31.01054-52.4262-3.3776-13.1668-4.16491-31.2085-1.92158-44.0347 7.80379-44.6179 40.18881-85.5488 107.0821-135.3392 20.50056-15.2591 54.98797-38.1604 103.5-68.7291 81.29933-51.2288 107.70208-70.3369 134.51025-97.3473 18.19272-18.33 29.25836-33.7944 25.73841-35.9698-.41324-.2554-9.52574.624-20.25 1.9543-27.20167 3.3741-62.46525 6.9627-88.99866 9.057-32.49657 2.5648-103.79752 2.5739-127 .016-89.75008-9.894-147.02058-36.8132-224.014953-105.295C72.482485 5996.4869 19 5944.2841 19 5943.0277c0-2.7927 47.75157-52.2825 69.174435-71.6925C155.54608 5810.2938 234.19653 5759.9432 325 5719.7239c135.51448-60.0231 297.59161-98.1621 515-121.1867 75.73299-8.0205 144.42091-13.338 304-23.5343 149.543-9.555 217.1908-14.9593 289-23.0877 235.6647-26.6761 380.5183-77.1228 478.5-166.6424 31.1565-28.4657 102.5356-108.6305 147.6048-165.7728 62.9615-79.8274 106.8115-145.2514 195.7113-292 65.2326-107.6807 97.1281-156.5775 137.6538-211.0281 39.0725-52.4979 75.7168-94.7883 123.96-143.0595 31.0315-31.0496 50.3627-49.0354 80.5701-74.9628 364.5249-312.8763 785.7037-571.0084 1184.5-725.9566 139.154-54.0668 286.3521-98.8108 491.5303-149.4112 107.6244-26.5419 191.9411-45.67 416.9697-94.5938 258.4055-56.1803 387.6189-86.2203 521-121.1239 270.1564-70.6954 496.8038-148.5048 704.5-241.8589 112.2648-50.4601 241.2615-116.973 323.1034-166.5977 146.802-89.013 283.1328-202.5597 418.2934-348.3869 110.2378-118.9376 220.3224-261.0415 339.3243-438.0206 74.0677-110.1533 146.0208-224.4132 268.5804-426.5 81.1103-133.7416 96.6834-159.3656 120.0313-197.5 171.4434-280.0213 289.5373-453.8074 415.5361-611.5C8035.9321 682.18299 8279.9917 484.27428 8556 364.2564c131.9424-57.37307 281.9616-97.40245 471-125.67617 72.5689-10.85384 127.9104-17.76237 265-33.08117 266.6213-29.79305 353.746-44.12864 492.8566-81.09509C9885.1514 97.752187 9948.5014 75.833434 10028 40.277665c39.486-17.660242 55.533-23.81244 75-28.753643C10119.12 7.4321744 10148.954 3 10160.377 3c2.52 0 4.626-.509674 4.847-1.1728513.523-1.56715757 61.498-1.84074726 62.562-.2807073.393.5755428 5.214 1.6006792 10.714 2.2780808 24.113 2.9698315 47.613 9.9328798 68.448 20.2807208 35.186 17.475704 60.878 43.227343 79.211 79.394757 15.817 31.20364 25.665 71.05301 27.503 111.28821.359 7.85852 1.032 14.52258 1.495 14.80902 1.1.67986 1.103 57.40277 0 57.40277-.462 0-1.127 10.4625-1.478 23.25-1.728 63.05396-9.543 131.74974-21.812 191.75-32.597 159.40286-98.22 291.39557-208.793 419.96027-43.94 51.08952-101.564 108.54513-182.138 181.60673-72.1167 65.3927-108.1984 94.8832-235.439 192.4304-79.6516 61.0637-104.6221 80.6687-144.5 113.4508-156.0096 128.2497-270.8626 253.7472-372.5263 407.0518-17.4576 26.3253-27.0881 42.7554-38.9078 66.3788-35.7222 71.3962-66.5999 161.9721-98.4532 288.8001-24.7228 98.4368-44.9701 195.2148-89.611 428.3211-49.2245 257.0411-70.8519 360.0144-101.0241 481-10.7512 43.1104-11.5807 46.2605-33.8358 128.5-30.0664 111.1045-52.2458 196.4056-114.1456 439-50.6907 198.6644-77.3957 301.3572-103.6195 398.4637-50.1348 185.6492-92.4483 325.9302-133.2852 441.8777-16.7244 47.4854-24.5605 75.372-33.0358 117.5665-17.3244 86.2495-24.3877 170.8491-23.2599 278.5921.6333 60.5015 2.356 93.6097 7.7527 149 20.5978 211.4112 76.7408 402.9052 157.7331 538 29.4455 49.1151 57.7569 85.6604 93.3505 120.5 32.0547 31.3757 61.6195 52.8401 97.6204 70.8737 13.3459 6.6852 36.6865 16.2773 46.4975 19.1088 3.1625.9127 5.75 2.038 5.75 2.5007 0 1.8005-37.3597 26.8531-63 42.2465-188.0905 112.9214-421.9799 163.2484-658.5 141.6923-201.6845-18.3813-387.3284-88.4837-524.7415-198.1516-54.742-43.6889-99.3448-91.1313-138.691-147.5204-5.6165-8.0493-9.903-13.25-10.9209-13.25-.9215 0-9.8418 2.4556-19.8228 5.4568-89.0497 26.7769-168.6971 72.0389-242.8238 137.9916-24.1209 21.4611-60.0842 58.6997-84.6688 87.6714-49.4578 58.2835-93.2437 120.6321-179.3468 255.3802-41.7819 65.3869-71.9418 111.2222-93.4371 142-82.1763 117.663-154.4072 194.1559-238.5473 252.6226-44.7318 31.0829-159.763 92.9226-247 132.785-156.7077 71.6064-323.9718 128.9931-559.7677 192.0507-98.8246 26.4281-236.6537 60.9475-261.4639 65.4838-90.2168 16.4953-182.1415 24.7079-251.2684 22.4486zm267.8406-211.3944c479.3596-91.0394 869.4917-303.5591 1181.1684-643.4271 257.9157-281.2443 469.2276-657.114 643.4706-1144.5692 14.8332-41.4967 14.9529-41.8109 16.0663-42.182.5753-.1918 4.521 2.8534 8.7682 6.7669 22.1307 20.3921 39.972 54.6249 50.0895 96.109 10.0358 41.1487 14.2932 82.2764 18.0957 174.8061 4.8988 119.2098 10.2574 164.1171 25.0747 210.1386 5.3669 16.6692 4.1936 15.7142 13.2406 10.7776 27.9046-15.2267 87.2582-53.0249 119.2311-75.9301 166.0995-118.9923 312.1144-274.4795 447.4582-476.4861 234.3534-349.7825 424.5181-821.7708 591.4591-1468 52.6353-203.7514 92.2503-374.7559 174.556-753.5 75.7452-348.5549 105.1704-473.2921 140.8307-597 33.2331-115.2876 66.1697-200.8676 97.3703-253 39.6866-66.3114 107.8432-149.3826 176.3138-214.8962 89.4006-85.5397 165.1774-144.4294 353.9662-275.0838 153.1206-105.9697 210.8583-148.4541 274.4496-201.9449 57.0705-48.00568 115.4394-106.37555 154.1304-154.13293 76.466-94.38391 125.894-194.87962 151.315-307.65165 6.875-30.50211 14.94-80.8558 13.224-82.57173-.43-.42992-7.27-1.44817-15.2-2.26278-119.714-12.29727-196.975-32.98142-247.524-66.26642-24.4978-16.13109-44.69-36.90878-60.923-62.68959-10.9646-17.41358-24.5607-48.54983-32.4224-74.25-1.9911-6.50884-3.6373-10.25-4.5102-10.25-.7561 0-7.8243 3.4671-15.7071 7.70467-67.8051 36.45024-144.9794 61.30833-227.3323 73.22449-62.6183 9.06063-110.6823 11.48256-259.5 13.07614-115.5333 1.23717-165.5941 2.884-229 7.53334-364.1362 26.70086-662.0447 148.67474-925.5 378.93113-58.6098 51.22422-128.3334 121.28844-185.6283 186.53537C7921.5858 1074.1813 7815.6336 1220.9308 7695.3143 1414c-54.7428 87.8425-102.9451 168.9769-210.3863 354.1241-160.7604 277.0289-226.9033 385.9492-312.967 515.3759-133.5117 200.7814-261.2227 359.9376-393.6044 490.5185-153.6426 151.5526-334.9321 279.9101-576.8566 408.4289-30.9681 16.4513-135.3085 68.4432-170.5 84.9585-131.1844 61.5648-280.9632 124.4656-445.5 187.0912-157.0459 59.7745-317.208 106.945-516.5 152.1184-85.6917 19.4237-163.8667 35.711-326 67.9204-306.0083 60.7917-453.7222 95.7317-608 143.8156-232.7039 72.5269-509.9452 190.7459-758.5 323.4334-259.1692 138.3538-506.5175 304.7822-664.5 447.109-37.7643 34.0219-95.3948 92.9648-133.0756 136.1061-72.0989 82.5471-128.7001 159.0021-245.4162 331.5-81.6505 120.6735-118.8409 173.614-163.3302 232.5-65.0517 86.1024-125.7418 156.5512-192.1551 223.0529-36.9653 37.0145-60.3003 53.8504-105.557 76.1583-95.5343 47.0906-233.2817 76.2965-444.4659 94.2381-62.4426 5.3049-137.4913 10.1272-242 15.5498-32.175 1.6695-84.375 4.3838-116 6.0318-157.95595 8.2312-255.95119 15.5861-346.5 26.006-147.70426 16.9972-262.37788 42.8548-348 78.4703-81.79811 34.0247-140.08781 77.5781-176.30122 131.73C191.19705 5952.2027 187 5959.2507 187 5960.7223c0 2.5512 45.73068 20.5318 74 29.0958 48.2107 14.6051 92.86428 22.1057 150 25.1961 12.19151.6594 64.28796.9481 139 .7703 124.26101-.2958 131.64752-.124 178.276 4.1475 11.29232 1.0344 19.26386 2.2084 20 2.9452 2.20807 2.2104 1.4713 33.7777-1.05741 45.3056-10.34147 47.1446-42.58589 91.9054-101.71859 141.2029-31.87034 26.5696-78.34684 58.6028-154 106.1422-93.04573 58.4687-123.3297 81.5367-140.18813 106.7849-10.5646 15.8222-12.04395 31.8757-4.03398 43.7756 2.23969 3.3274 2.57942 3.454 13.75925 5.127 18.65475 2.7917 80.35628 10.4938 109.96286 13.7266 282.06517 30.7986 519.87723 19.9393 757.5-34.5901 146.6976-33.6639 298.7436-84.8901 485.2839-163.4979 91.0401-38.3642 148.6079-65.9915 223.9648-107.4827 88.6488-48.8096 163.2172-94.2791 348.2513-212.3527 128.272-81.8526 180.3783-114.2411 251.5-156.3287 187.4272-110.9134 345.3286-184.7069 497.5252-232.5126 253.1982-79.531 533.9109-107.6262 885.4748-88.6231 171.4896 9.2696 316.4511 24.402 684.5154 71.4562 364.9775 46.6595 518.4857 61.5252 724.9846 70.2073 41.3794 1.7397 214.7297 1.7441 251.5.01 60.1881-2.8446 109.4146-6.2526 156-10.8 29.4021-2.8701 26.9417-2.0568 44.7977-14.8072 57.4198-41.0014 109.7917-110.7522 155.2555-206.7749 28.5663-60.3341 47.2375-107.8414 94.4587-240.3419 32.3088-90.6573 52.5436-143.6159 70.1128-183.5 10.1361-23.0102 32.123-66.7889 41.9361-83.5 36.2776-61.7791 74.2314-101.5241 117.9295-123.4951 16.486-8.289 40.2295-16.0561 41.7382-13.6537 1.4719 2.3438-.3803 78.4268-3.2779 134.6488-18.1121 351.4212-95.0643 672.5351-234.7289 979.5-30.3629 66.7338-70.158 145.7949-106.4576 211.5-94.1665 170.4487-204.6577 337.6496-385.1301 582.7981-13.8237 18.7778-25.134 34.38-25.134 34.6716 0 1.0881 4.563.397 32.8406-4.9734zm4053.6883-5588.8765c-1.3092-1.3092-3.0887-4.7658-3.9546-7.6815-5.98-20.137 5.3806-104.47032 23.903-177.4383 24.8025-97.70839 62.3448-185.18762 126.8157-295.5 14.6657-25.09372 66.0358-108.70106 73.084-118.94798 6.56-9.53709 18.9141-22.19298 24.3332-24.92751 2.3156-1.16848 6.0347-2.12451 8.2647-2.12451 3.5012 0 4.3249.44353 6.0361 3.25 3.7317 6.12048 2.0987 19.9528-3.9186 33.19215-3.5036 7.70844-7.2114 13.82125-36.1257 59.55785-13.0389 20.625-28.78 45.825-34.9801 56-89.1558 146.31282-135.8577 274.21589-151.8964 416-1.8645 16.4817-3.8139 29.1464-5.1566 33.5-6.4984 21.0705-18.7749 32.7496-26.4047 25.1198zm130.197-.384c-6.6915-6.9844-8.2015-19.0706-7.4004-59.2344 2.3293-116.78814 20.0281-215.00196 55.4139-307.5014 15.1752-39.66866 29.5557-71.08141 65.2351-142.5 27.7973-55.64105 34.8313-66.95415 46.711-75.12762 11.3449-7.80547 18.2172-1.45486 17.0056 15.71449-.8627 12.2245-4.1961 20.74029-20.9081 53.41313-44.4092 86.82282-53.6711 106.13891-68.3275 142.5-29.4271 73.00599-47.9594 148.79614-55.873 228.5-2.7147 27.34159-3.6667 43.7472-4.555 78.5-.7532 29.4683-1.1482 35.0663-2.963 42-5.559 21.239-16.5042 31.9131-24.3386 23.7358zm-284.595-25.7966c-6.3925-8.1267-5.0723-29.6493 4.3026-70.1471 14.4412-62.38237 38.4561-126.37155 71.9791-191.7921 42.9379-83.79396 90.4231-154.35771 190.1058-282.5 18.6114-23.925 40.617-52.5 48.9012-63.5 17.7959-23.62966 30.3151-36.71222 39.545-41.32443 3.4951-1.74656 7.5328-3.17557 8.9726-3.17557 6.4474 0 9.7148 6.45866 8.1142 16.03943-2.902 17.37107-10.2275 28.29428-60.6662 90.46057-70.6684 87.09961-100.8736 127.17881-137.9155 183-72.7909 109.69412-116.513 208.39846-137.0962 309.5-5.6701 27.8511-9.2445 37.7686-17.1193 47.5-6.8794 8.5014-15.0998 11.0544-19.1233 5.9392zm-134.4515-21.4083c-2.4568-2.9198-2.6788-3.905-2.6724-11.8576.011-13.8184 5.026-31.0338 20.4374-70.15937 62.7818-159.38633 198.9765-360.10277 368.4413-542.98895 36.1733-39.03828 51.4252-52.96224 64.999-59.33977 8.7778-4.12415 14.4143-4.20012 17.8211-.2402 2.2243 2.5853 2.4675 3.58726 1.9911 8.20319-.6859 6.64546-4.8022 15.87037-10.6506 23.86866-2.5005 3.4196-12.9164 15.16473-23.1465 26.10029-202.9339 216.92774-339.804 417.48166-395.406 579.38285-3.1166 9.075-7.4234 19.875-9.5705 24-7.5808 14.5639-17.6834 24.6216-25.8289 25.7142-3.2691.4384-4.0701.1034-6.415-2.6833zM8805 1000.4775c-60.7342-6.86992-114.0807-28.81261-157.4504-64.76316l-2.9505-2.4457 2.7345-10.88432c26.9716-107.35777 87.0645-186.01593 176.7968-231.41675 59.9567-30.33563 127.6595-45.68193 215.9641-48.95288 36.5926-1.35545 106.3242 1.00397 109.0086 3.68839 1.1559 1.15595 5.4388 26.73137 6.8191 40.7206 1.5744 15.95691 1.3436 50.81671-.4374 66.04133-7.3487 62.82213-33.4519 115.26306-79.7079 160.13203-47.8747 46.43902-113.0497 76.70913-187.2769 86.97957-16.6597 2.30509-66.3466 2.84119-83.5.90089zm-335 4781.1256c33.9547-3.1503 85.0039-11.1875 92.8369-14.6164 2.2965-1.0053 2.2272-1.1449-4-8.0661-33.6043-37.3494-62.4964-84.8353-96.1329-158-85.3134-185.5707-168.1459-491.7428-183.2709-677.4206-.896-11-1.8305-20.6526-2.0765-21.4501-.2863-.928-15.4653 13.5049-42.152 40.08-22.9375 22.8416-62.4046 61.5841-87.7046 86.0944-96.639 93.6226-155.3166 154.8212-202.5724 211.2757-90.8609 108.5477-145.0875 203.2285-169.445 295.8548l-3.6434 13.8548 5.487 8.2449c52.2231 78.4737 184.4172 151.3231 349.1738 192.4225 72.0014 17.9612 142.4674 28.4499 225 33.4909 3.3.2015 27.375.2522 53.5.1126 34.1949-.1827 52.4019-.7086 65-1.8774z"/>
  <path fill="#002a63" d="M5314 6903.8907c-56.9779-1.8623-93.5925-12.273-100.6164-28.6086-3.1888-7.4162-.2958-17.9423 7.4984-27.2821 2.0654-2.475 5.7236-7.425 8.1292-11 35.8897-53.3353 94.7251-133.5208 188.9383-257.5 104.5852-137.6281 148.0739-197.5204 198.9553-274 97.8507-147.0787 165.4847-278.9441 213.6236-416.5 6.0934-17.4115 6.3963-18.5039 5.5229-19.9169-.4131-.6686-9.407-2.4564-20.6417-4.1034-111.2863-16.3138-165.6944-24.4051-352.9096-52.4827-118.8-17.817-242.325-36.2612-274.5-40.987-563.9835-82.8374-897.3869-117.1658-1250-128.7046-51.3015-1.6787-235.9094-1.685-282.5-.01-142.892 5.1385-256.6275 14.0045-369 28.7646-258.7398 33.9855-477.1325 112.2524-716.5 256.777-76.4556 46.1621-147.9266 94.0908-288 193.1338-150.7556 106.5961-204.4814 142.9344-278.2443 188.1944C1683.6331 6506.0889 1313.1803 6628.0174 941 6659.4538c-108.26902 9.145-223.71157 9.8632-322 2.0033-157.59988-12.6029-291.00106-46.0393-367.77491-92.1812-18.56373-11.157-29.06904-19.1288-41.87507-31.7763-17.77699-17.557-25.34993-30.3597-31.01054-52.4262-3.3776-13.1668-4.16491-31.2085-1.92158-44.0347 7.80379-44.6179 40.18881-85.5488 107.0821-135.3392 20.50056-15.2591 54.98797-38.1604 103.5-68.7291 81.29933-51.2288 107.70208-70.3369 134.51025-97.3473 18.19272-18.33 29.25836-33.7944 25.73841-35.9698-.41324-.2554-9.52574.624-20.25 1.9543-27.20167 3.3741-62.46525 6.9627-88.99866 9.057-32.49657 2.5648-103.79752 2.5739-127 .016-89.75008-9.894-147.02058-36.8132-224.014953-105.295C72.482485 5996.4869 19 5944.2841 19 5943.0277c0-2.7927 47.75157-52.2825 69.174435-71.6925C155.54608 5810.2938 234.19653 5759.9432 325 5719.7239c135.51448-60.0231 297.59161-98.1621 515-121.1867 75.73299-8.0205 144.42091-13.338 304-23.5343 149.543-9.555 217.1908-14.9593 289-23.0877 235.6647-26.6761 380.5183-77.1228 478.5-166.6424 31.1565-28.4657 102.5356-108.6305 147.6048-165.7728 62.9615-79.8274 106.8115-145.2514 195.7113-292 65.2326-107.6807 97.1281-156.5775 137.6538-211.0281 39.0725-52.4979 75.7168-94.7883 123.96-143.0595 31.0315-31.0496 50.3627-49.0354 80.5701-74.9628 364.5249-312.8763 785.7037-571.0084 1184.5-725.9566 139.154-54.0668 286.3521-98.8108 491.5303-149.4112 107.6244-26.5419 191.9411-45.67 416.9697-94.5938 258.4055-56.1803 387.6189-86.2203 521-121.1239 270.1564-70.6954 496.8038-148.5048 704.5-241.8589 112.2648-50.4601 241.2615-116.973 323.1034-166.5977 146.802-89.013 283.1328-202.5597 418.2934-348.3869 110.2378-118.9376 220.3224-261.0415 339.3243-438.0206 74.0677-110.1533 146.0208-224.4132 268.5804-426.5 81.1103-133.7416 96.6834-159.3656 120.0313-197.5 171.4434-280.0213 289.5373-453.8074 415.5361-611.5C8035.9321 682.18299 8279.9917 484.27428 8556 364.2564c131.9424-57.37307 281.9616-97.40245 471-125.67617 72.5689-10.85384 127.9104-17.76237 265-33.08117 266.6213-29.79305 353.746-44.12864 492.8566-81.09509C9885.1514 97.752187 9948.5014 75.833434 10028 40.277665c39.486-17.660242 55.533-23.81244 75-28.753643C10119.12 7.4321744 10148.954 3 10160.377 3c2.52 0 4.626-.509674 4.847-1.1728513.523-1.56715757 61.498-1.84074726 62.562-.2807073.393.5755428 5.214 1.6006792 10.714 2.2780808 24.113 2.9698315 47.613 9.9328798 68.448 20.2807208 35.186 17.475704 60.878 43.227343 79.211 79.394757 15.817 31.20364 25.665 71.05301 27.503 111.28821.359 7.85852 1.032 14.52258 1.495 14.80902 1.1.67986 1.103 57.40277 0 57.40277-.462 0-1.127 10.4625-1.478 23.25-1.728 63.05396-9.543 131.74974-21.812 191.75-32.597 159.40286-98.22 291.39557-208.793 419.96027-43.94 51.08952-101.564 108.54513-182.138 181.60673-72.1167 65.3927-108.1984 94.8832-235.439 192.4304-79.6516 61.0637-104.6221 80.6687-144.5 113.4508-156.0096 128.2497-270.8626 253.7472-372.5263 407.0518-17.4576 26.3253-27.0881 42.7554-38.9078 66.3788-35.7222 71.3962-66.5999 161.9721-98.4532 288.8001-24.7228 98.4368-44.9701 195.2148-89.611 428.3211-49.2245 257.0411-70.8519 360.0144-101.0241 481-10.7512 43.1104-11.5807 46.2605-33.8358 128.5-30.0664 111.1045-52.2458 196.4056-114.1456 439-50.6907 198.6644-77.3957 301.3572-103.6195 398.4637-50.1348 185.6492-92.4483 325.9302-133.2852 441.8777-16.7244 47.4854-24.5605 75.372-33.0358 117.5665-17.3244 86.2495-24.3877 170.8491-23.2599 278.5921.6333 60.5015 2.356 93.6097 7.7527 149 20.5978 211.4112 76.7408 402.9052 157.7331 538 29.4455 49.1151 57.7569 85.6604 93.3505 120.5 32.0547 31.3757 61.6195 52.8401 97.6204 70.8737 13.3459 6.6852 36.6865 16.2773 46.4975 19.1088 3.1625.9127 5.75 2.038 5.75 2.5007 0 1.8005-37.3597 26.8531-63 42.2465-188.0905 112.9214-421.9799 163.2484-658.5 141.6923-201.6845-18.3813-387.3284-88.4837-524.7415-198.1516-54.742-43.6889-99.3448-91.1313-138.691-147.5204-5.6165-8.0493-9.903-13.25-10.9209-13.25-.9215 0-9.8418 2.4556-19.8228 5.4568-89.0497 26.7769-168.6971 72.0389-242.8238 137.9916-24.1209 21.4611-60.0842 58.6997-84.6688 87.6714-49.4578 58.2835-93.2437 120.6321-179.3468 255.3802-41.7819 65.3869-71.9418 111.2222-93.4371 142-82.1763 117.663-154.4072 194.1559-238.5473 252.6226-44.7318 31.0829-159.763 92.9226-247 132.785-156.7077 71.6064-323.9718 128.9931-559.7677 192.0507-98.8246 26.4281-236.6537 60.9475-261.4639 65.4838-90.2168 16.4953-182.1415 24.7079-251.2684 22.4486zm269-210.4431c177.954-33.428 353.021-87.4318 508-156.7053 205.1538-91.7011 383.8935-209.8901 551.5-364.6714 24.5744-22.694 85.8986-83.9543 109.6851-109.5709 130.0312-140.0356 245.4176-298.9139 351.5081-484 110.5466-192.8603 212.2069-417.9953 302.766-670.5 6.4107-17.875 12.5903-35.0875 13.7323-38.25 1.1421-3.1625 2.6007-5.75 3.2413-5.75 1.5752 0 16.4005 15.061 22.1479 22.5 16.5986 21.4841 29.9964 54.5123 37.9278 93.5 8.0398 39.5203 11.3961 76.3465 14.9925 164.5 3.4099 83.5817 6.4088 119.6805 13.0841 157.5 4.8287 27.3571 15.2088 63.144 18.4988 63.7776.8099.156 10.4476-4.9588 21.4171-11.3662 86.6066-50.5879 161.7167-105.8581 243.3364-179.0605 37.367-33.5134 103.9618-101.5819 142.8685-146.0301 168.3003-192.2712 319.9752-445.5701 452.584-755.8208 135.6547-317.3767 252.4695-692.0461 368.2133-1181 31.9228-134.8564 58.7395-254.5856 114.005-509 56.0391-257.9759 78.7859-358.1093 105.5181-464.5 42.0179-167.2262 79.7058-281.3674 117.1263-354.7271 25.3903-49.7754 73.3037-115.8557 128.9787-177.882 18.4923-20.6019 70.6014-72.7497 92.4949-92.5635 80.8481-73.1685 154.1353-129.005 319.3738-243.3266 176.2714-121.9547 233.9676-165.1196 307.5397-230.083 150.6233-132.99927 238.6173-271.40008 275.8793-433.9178 7.428-32.39834 15.78-84.70085 13.836-86.64526-.578-.57805-9.31-1.9024-19.403-2.94299-153.964-15.87297-238.9177-46.50627-286.6103-103.34829-20.0018-23.83905-36.5276-56.15518-49.2569-96.32143-2.3109-7.29189-4.564-13.48197-5.007-13.75574-.443-.27377-10.8567 4.64633-23.1416 10.93356-67.8202 34.70931-129.2691 55.10565-203.3362 67.49206-65.3292 10.92516-122.867 14.38307-259.5 15.59546-130.3256 1.15642-194.3814 3.43761-268 9.54416-362.1326 30.03832-660.8047 157.39717-923.5 393.796C8066.5431 896.8955 7942.2729 1042.931 7815.8426 1227c-87.5428 127.4528-167.4804 257.165-311.8323 506-158.9967 274.0799-212.2282 362.9693-289.5443 483.5-165.8511 258.551-326.7918 457.8327-491.966 609.1674-178.5508 163.5904-417.8885 314.2472-723 455.1096-125.3409 57.8668-294.0535 127.7515-439.5 182.0513-144.511 53.9505-305.0264 100.4994-494 143.2584-79.4363 17.9741-132.7143 29.0698-316.5 65.9146-81.95 16.4291-167.45 33.7464-190 38.4829-229.5917 48.2246-384.7037 89.9594-541.2838 145.6392-142.2825 50.5956-282.9017 108.7329-429.2162 177.4545-66.5473 31.2561-180.2055 89.0736-249.5 126.9197-212.5544 116.0891-409.7653 246.2357-563.5 371.874-100.2846 81.9567-188.2705 173.5963-277.1209 288.6284-47.5646 61.5805-81.1098 109.0048-171.8845 243-60.9462 89.9643-86.37 126.7301-116.865 169-63.2568 87.6819-118.3318 155.9115-181.6001 224.975-25.1525 27.4565-74.5549 76.6214-86.2727 85.858-89.958 70.91-238.6851 112.1066-487.7568 135.1061-78.4293 7.2422-157.8595 12.266-349 22.0735-169.19592 8.6815-253.8859 14.4987-342.5 23.5256-205.98994 20.9836-348.68865 56.4623-446.5 111.0118-16.38765 9.1394-43.69508 27.3883-57 38.0917-20.99206 16.8874-41.76219 38.5329-56.47825 58.8583C194.9421 5943.6594 186 5958.5655 186 5960.8746c0 3.9994 54.65961 25.0021 90.02712 34.5926 68.18757 18.49 126.36671 23.6211 242.47288 21.3846 67.39609-1.2983 145.14497-.5806 177 1.6338 29.78393 2.0704 50.54775 4.1613 51.57623 5.1938 1.58552 1.5917 2.16162 18.8397.99604 29.8206-4.50078 42.4017-25.55612 80.0941-69.01801 123.5531-40.6952 40.6925-80.10729 69.4277-190.55426 138.9323-70.78475 44.5451-98.38584 64.0787-119.35421 84.4686-13.57528 13.2007-19.41056 20.6566-24.3812 31.1525-2.97485 6.2817-3.26422 7.7366-3.2604 16.3935.004 8.3898.33385 10.1726 2.82495 15.2549 1.55142 3.1652 3.65464 6.2012 4.67382 6.7467 5.64791 3.0227 129.67354 17.7393 197.49704 23.4347 73.13046 6.1409 123.81357 8.5259 196.5 9.2467 59.53589.5904 100.80505-.294 150.5-3.2252 242.7959-14.3209 465.9892-68.3063 744-179.9566 140.2584-56.3284 217.2977-92.3881 319.9934-149.779 80.7527-45.1282 152.7044-89.1527 315.5066-193.0466 182.5741-116.5116 259.1567-163.2611 352.5-215.1825 223.0814-124.0868 403.7186-192.7562 616.5-234.3629 112.2812-21.9552 223.8408-34.3464 363-40.3194 38.533-1.6539 186.781-1.6559 229 0 208.0055 8.1431 361.4577 22.9688 741.9787 71.6859 236.157 30.2345 335.6275 41.8938 456.0213 53.4518 277.3406 26.625 503.344 29.6677 706.9741 9.5178l25.474-2.5208 6.3891-4.0059c23.8617-14.9612 54.5183-42.5112 77.2666-69.4365 41.1092-48.6577 79.0596-115.1503 116.128-203.4667 18.2907-43.5782 33.5658-84.0344 64.766-171.5333 33.9663-95.256 47.3509-131.0132 64.0087-171 53.1878-127.6766 105.383-198.4867 169.9872-230.6117 11.2172-5.5778 33.9492-13.8883 37.9892-13.8883 1.9532 0 2.0169.6098 2.0101 19.25-.016 44.3544-3.8575 130.1079-8.5449 190.75-32.8809 425.3922-152.2294 801.4971-375.7519 1184.1137-86.7154 148.4359-183.1518 291.9156-337.7183 502.463-17.4705 23.798-32.0774 43.7753-32.4598 44.394-1.2704 2.0555.2993 4.1108 2.7099 3.5484 1.2496-.2916 15.547-3.0237 31.772-6.0715zM9636.2603 1102.75c-1.1486-1.2375-2.8609-4.9302-3.8052-8.2059-5.6312-19.5361 5.9255-103.71003 24.0328-175.0441 25.1307-99.00271 63.8244-189.05045 128.1731-298.28318 16.1772-27.46108 66.6052-109.34583 72.1869-117.21682 6.6504-9.37802 18.6471-21.57712 23.5561-23.95353 9.0226-4.36776 13.6964-1.85215 14.3822 7.741.785 10.98164-4.6241 25.2905-17.2805 45.71253-3.7495 6.05-15.3236 24.41149-25.7202 40.80331-45.5552 71.82476-67.8607 110.47384-92.6927 160.61041-51.9884 104.96574-81.2513 202.93791-93.5428 313.18098-1.4929 13.3903-3.3869 25.4078-4.6494 29.5-3.9903 12.9351-10.1418 22.9273-15.9701 25.9412-3.9443 2.0397-6.2408 1.8316-8.6702-.7859zm131.0308.7414c-5.268-3.6899-8.2923-19.3115-8.2888-42.8138.01-61.19017 7.2018-136.37488 18.4807-193.1776 14.2388-71.70988 34.1402-130.34188 70.6013-208 11.9778-25.51138 54.736-110.56744 58.8504-117.06724 16.0634-25.37641 32.1691-33.26063 34.6157-16.94546 1.8122 12.08479-2.1507 25.56497-14.8915 50.65478-5.1273 10.09686-18.3729 36.13292-29.4348 57.85792-11.0618 21.725-23.1117 46.025-26.7774 54-41.9795 91.32764-65.5652 179.35192-74.8906 279.5-1.6351 17.5598-3.1467 45.7635-4.4753 83.5-.7822 22.2158-1.1026 25.2459-3.4367 32.5-5.343 16.6055-13.6033 24.719-20.353 19.9914zm-285.1922-27.0928c-2.7836-3.5387-3.6188-8.1833-3.4886-19.3986.1337-11.5077 1.223-18.4303 7.073-44.9485 22.4807-101.9061 71.1268-208.08996 147.6451-322.2772 29.0535-43.35615 58.4412-83.18309 117.1572-158.7743 19.8656-25.575 42.2528-54.63252 49.7495-64.57226 23.6415-31.34623 40.871-44.85173 49.0307-38.43332 2.4675 1.94097 2.7342 2.77182 2.7342 8.51856 0 7.4095-3.3358 17.72106-8.7252 26.97129-5.9225 10.1652-20.3484 28.67219-71.4761 91.69673-88.2861 108.82933-144.3527 191.48578-186.7515 275.319-34.0183 67.26269-55.8849 128.75835-69.0455 194.177-4.4418 22.079-6.3071 28.3637-11.0715 37.3026-7.8215 14.6746-17.7153 20.9229-22.8313 14.419zm-134.0735-20.3732c-2.8246-2.8246-3.3855-6.1197-2.7065-15.9008.7323-10.5504 3.6573-21.2749 12.1002-44.36521 59.9193-163.8727 192.9384-363.95142 371.3647-558.58259 38.8265-42.3528 54.5584-57.07451 68.1574-63.78085 6.2647-3.08941 15.2322-4.32688 17.5308-2.41917 4.5411 3.76875 1.6104 16.94475-6.5056 29.24835-2.6394 4.00118-10.3042 13.12487-17.033 20.27487C9681.7 536.57134 9592.0016 646.93261 9521.4999 752c-63.155 94.11884-107.7578 179.6704-134.985 258.9114-3.1014 9.0263-6.5744 18.2513-7.7177 20.5-5.767 11.343-15.4988 22.3125-22.3255 25.1649-4.5445 1.8988-6.0979 1.7975-8.4463-.5509zM8816.5 1000.326c-48.4988-4.09602-91.9479-17.00461-129.2643-38.40409-12.3729-7.09534-29.5638-18.92061-36.5449-25.13848l-4.8092-4.28343 3.1295-12c17.8659-68.50621 48.9739-125.4908 91.986-168.50292 64.4211-64.42112 156.7551-100.27469 278.0029-107.94935 31.1427-1.97125 109.694-.83032 125.4324 1.82186 4.7744.80456 4.5984.29094 8.2666 24.13041 2.4604 15.99043 2.6974 20.08784 2.7468 47.5.044 24.26807-.2921 32.19724-1.7582 41.5-4.9909 31.66841-12.4571 55.40507-25.6354 81.5-13.1671 26.07282-28.5752 47.25946-49.4623 68.01221C9026.21 960.5553 8952.9445 992.99699 8872 999.98946c-10.5826.91414-46.1095 1.12964-55.5.33654zm-364 4783.6263c33.32-2.0716 67.9579-6.5651 96.4725-12.5151 9.0598-1.8904 16.5973-3.4372 16.75-3.4372.1526 0 .2775-.7226.2775-1.6058 0-.8831-3.2264-5.0456-7.1697-9.25-59.3049-63.2298-127.1909-210.0281-186.6629-403.6442-47.8295-155.7132-83.2177-323.3906-92.3023-437.3502-.8474-10.6289-1.6182-15.5016-2.5064-15.8424-.7361-.2825-15.2516 13.5522-34.0706 32.4728-18.0335 18.1307-54.3881 53.8021-80.7881 79.2697-54.4696 52.5459-115.0552 112.9253-142.9366 142.4501-127.2393 134.7393-200.7143 243.678-236.0616 350-8.7217 26.2343-13.1308 43.8242-11.7464 46.8624 3.0861 6.7735 21.1517 28.6217 35.7065 43.1829 28.1119 28.1244 58.6148 50.4642 100.8929 73.8923 114.6254 63.5188 278.0359 106.8627 435.6452 115.553 36.8185 2.0301 75.4514 2.0165 108.5-.038z"/>
</svg>
