<svg xmlns="http://www.w3.org/2000/svg" height="300" viewBox="0 0 300 295">
  <g fill="#00546b">
    <path d="M289.5 286c-5.1-3.9-14.7-9.7-22.1-13.4-13.9-7-26.3-15.7-31.5-22.2-3.8-4.7-7.3-12.4-6.1-13.6 3.4-3.4 28.5-8.8 41-8.8 3.4 0 6.2-.4 6.2-.8 0-1.5-4.1-4.6-20.3-15.6-15.4-10.5-21.9-13.7-37.2-18.3-9.2-2.8-11.8-4.7-15.9-11.6-4-6.9-19.3-39.3-25.3-53.7-7.4-17.8-15.7-31.2-28.7-46.7-21.9-26.1-59.4-50.1-78.8-50.4-10-.1-16.7-1.4-19.5-3.7C42.3 20 22.5 10 17.1 10c-3.5 0-7.1 2.2-7.8 4.8-1 4.2 1.5 9.4 10.6 21.6 10.6 14.2 12.4 17.6 19 37.5 6 17.9 9.5 25 16.2 32.7 3.1 3.4 4.9 6.5 4.9 8 0 1.4-1.9 8-4.2 14.7l-4.2 12.2v16c-.1 17.9 1.1 24.2 6.7 35.5 2.2 4.3 4.3 7 6.5 8.3 1.8 1.1 3.5 1.7 3.8 1.4.3-.3 1.2-5.3 1.9-11.2 2-14.9 3.8-20.3 9.2-27.6 4-5.5 4.7-6.1 5.4-4.4 9.6 25.4 25.9 54 40 70l5.3 6-6.9-6.5c-3.9-3.6-9.2-8.4-11.9-10.5-8.2-6.6-16.3-17.1-21.3-27.7-2.6-5.4-5-9.8-5.5-9.8-.9 0-1.4 1.8-3.3 14.4-.9 5.4-1.8 10.4-2.2 11-6.8 12.1-21.5 5.9-29.6-12.5-4.8-10.8-6.1-18.3-6.1-34.4 0-13.7.3-16.1 3.3-27.5 1.8-6.8 3.6-13.1 4.1-13.9.8-1.6-1.3-7.1-2.8-7.1-.5 0-2.9-3.5-5.5-7.8-4.6-7.7-11.3-24-15.6-38.1-2.6-8.4-3.2-9.6-11.6-20.6C5.7 31.6 3.3 27.7 1.7 22.2.3 17.6.3 16.4 1.6 12.1 3.3 6.3 7.2 2.6 13.2 1c8.4-2.3 28.6 4.9 41.1 14.7 5.8 4.5 5.9 4.6 16 5.4C88 22.4 98.1 26.3 117 38.8c33.4 22.1 57.4 50.3 71.5 83.8 8.2 19.6 25.8 55.6 28.1 57.5 1 .9 6.9 3.8 12.9 6.5 13.3 5.8 20.5 10 33.3 19.5 10.1 7.6 26.2 23.1 26.2 25.4 0 1.4-15.4 5.5-20.5 5.5-2.2 0-15.6 2.8-22.3 4.6-2.6.7 2.1 6.4 9.1 11 3.7 2.4 9.9 6.5 13.8 9 6.8 4.6 26 23.8 28.7 29 .7 1.3 1.1 2.4 1 2.3-.2 0-4.3-3.2-9.3-6.9z"/>
    <path d="M70 65.6c-.6-2-2.9-5.7-5-8.2-2.2-2.6-3.7-5.1-3.4-5.6.9-1.4 6.8-.8 8.9 1 1.2.9 2.9 3.1 3.9 4.7 1.5 2.6 1.6 3.5.4 6.9-1.7 5.2-3.3 5.5-4.8 1.2z"/>
  </g>
</svg>
