<?xml version="1.0" encoding="utf-8"?>
<!DOCTYPE svg PUBLIC "-//W3C//DTD SVG 20010904//EN" "http://www.w3.org/TR/2001/REC-SVG-20010904/DTD/svg10.dtd">
<svg version="1.0" xmlns="http://www.w3.org/2000/svg" width="666px" height="375px" viewBox="0 0 666 375" preserveAspectRatio="xMidYMid meet">
 <g fill="rgba(123, 132, 149, 0.8)">
  <path d="M104.3 373.3 c-2.7 -7.7 -3.2 -8.4 -5.2 -7.3 -2.9 1.5 -3.5 -0.3 -2.1 -5.6 1.3 -4.5 4 -8.1 4 -5.2 0 0.8 -0.4 1.8 -0.9 2.4 -0.5 0.5 -1.2 1.9 -1.6 3.2 -0.5 1.9 -0.3 2.2 1.8 2.2 2 0 2.8 0.9 4.6 5.6 2.4 6.5 2.4 6.4 1.1 6.4 -0.6 0 -1.3 -0.8 -1.7 -1.7z"/>
  <path d="M165.6 370.6 c3.2 -2.4 6.1 -4.2 6.3 -3.9 0.3 0.2 -0.4 1 -1.5 1.7 -1 0.8 -3.2 2.6 -4.7 4 -1.5 1.4 -3.5 2.6 -4.4 2.6 -1 0 1 -2 4.3 -4.4z"/>
  <path d="M212.9 373.3 c1.5 -2.8 4 -5.9 4.1 -5 0 1.6 -3.1 6.7 -4.1 6.7 -0.6 0 -0.6 -0.6 0 -1.7z"/>
  <path d="M238 374.6 c0 -1.2 5.2 -10.7 5.7 -10.3 0.5 0.5 -4.4 10.7 -5.2 10.7 -0.3 0 -0.5 -0.2 -0.5 -0.4z"/>
  <path d="M335.5 372.4 c-1.4 -2.2 -1.5 -2.8 -0.4 -3.5 0.8 -0.5 1.9 -0.9 2.5 -0.9 2.3 0 2.3 -3.1 -0.2 -11.7 -3.5 -12.5 -3.2 -11.7 -4.9 -10.3 -1.8 1.5 -2 9.1 -0.3 10.8 0.9 0.9 0.9 1.2 0 1.2 -1.3 0 -12.4 -9.7 -13.1 -11.4 -0.2 -0.6 -1 -1.7 -1.8 -2.4 -0.7 -0.7 -1.3 -1.8 -1.3 -2.3 0 -0.6 1.9 0.8 4.3 3 2.3 2.2 4.7 4.1 5.2 4 0.6 0 2.6 -1.3 4.5 -2.9 1.9 -1.7 3.9 -3 4.4 -3 0.5 0 6 5.1 12.2 11.4 10.5 10.6 11.5 11.4 16 12 7.7 1.1 14.9 3.4 17.8 5.7 1.5 1.2 2.5 2.4 2.2 2.7 -0.3 0.3 -1.5 -0.3 -2.6 -1.3 -1.9 -1.7 -2.1 -1.7 -3.8 -0.2 -1.3 1.2 -3.7 1.7 -7.5 1.7 -5.8 0 -6.5 -0.6 -4.8 -3.9 0.8 -1.4 0.5 -1.7 -1.4 -1.6 -1.3 0 -2.6 0.3 -3 0.7 -0.4 0.4 -1.3 0.4 -2.1 0.1 -0.8 -0.3 -1.6 0.5 -2 2.1 -0.8 3.3 -5.3 3.7 -6.1 0.6 -0.7 -2.6 -2.1 -2.5 -3.4 0.3 -0.9 2.1 -0.9 2.1 -0.4 -0.4 0.7 -3.9 -0.6 -4.3 -2.6 -0.9 -2.3 3.7 -5.1 3.8 -7.4 0.4z m5.1 -2.1 c-1.1 -1.1 -1.9 0.6 -1.1 2.4 0.8 1.7 0.8 1.7 1.2 0 0.3 -1 0.2 -2.1 -0.1 -2.4z m29.4 3.3 c0 -0.2 0.3 -1.1 0.6 -2 0.4 -1.1 0.1 -1.6 -1 -1.6 -0.9 0 -1.6 0.2 -1.6 0.4 0 0.2 -0.3 1.1 -0.6 2 -0.4 1.1 -0.1 1.6 1 1.6 0.9 0 1.6 -0.2 1.6 -0.4z m5.5 -1.6 c0.3 -0.5 -0.1 -1 -0.9 -1 -0.8 0 -1.8 0.5 -2.1 1 -0.3 0.6 0.1 1 0.9 1 0.8 0 1.8 -0.4 2.1 -1z m-24.7 -3.7 c-0.2 -1 -1 -1.7 -1.6 -1.5 -0.7 0.1 -1.2 -0.5 -1.2 -1.3 0 -0.8 -0.4 -1.5 -1 -1.5 -0.5 0 -1 -0.9 -1 -2 0 -1.1 0.5 -2 1 -2 0.6 0 1 -0.4 1 -1 0 -1.5 -2.6 -1.2 -4 0.5 -1.7 2.1 -2.3 9 -0.7 7.7 1.4 -1.1 5.7 0.2 5.7 1.8 0 0.5 0.5 1 1.1 1 0.6 0 0.9 -0.8 0.7 -1.7z m3.7 -3.3 c-1 -1.1 -2.2 -2 -2.7 -2 -1.4 0 -0.9 2.2 1 4.1 2.4 2.4 4 0.5 1.7 -2.1z m-11.9 -8.4 c0.6 -2.6 -0.1 -4.6 -1.6 -4.6 -0.5 0 -0.8 1.6 -0.7 3.5 0.2 4 1.4 4.6 2.3 1.1z"/>
  <path d="M281 370.6 c0 -1.4 0.5 -2.6 1 -2.6 0.6 0 1 0.9 1 1.9 0 1.1 -0.4 2.3 -1 2.6 -0.6 0.4 -1 -0.5 -1 -1.9z"/>
  <path d="M183 369 c0 -1.6 0.4 -3 0.8 -3 0.5 0 0.7 1.4 0.4 3 -0.2 1.7 -0.6 3 -0.8 3 -0.2 0 -0.4 -1.3 -0.4 -3z"/>
  <path d="M267.3 366.3 c-1.6 -2.7 -4.2 -8.3 -5.7 -12.7 l-2.8 -7.8 3.3 -3.4 c2.9 -3 3.1 -3.7 2.6 -7.8 -0.6 -4.3 -4 -12.1 -5.8 -13.2 -0.5 -0.3 -0.9 -1.3 -0.9 -2.4 0 -2.2 -5 -12 -6.1 -12 -0.4 0 -1.1 0.5 -1.4 1 -0.3 0.6 -1.4 1 -2.3 1 -2.8 0 -8.6 5.4 -13.5 12.7 -7.4 10.9 -9.4 12.5 -17.4 13.2 -3.7 0.4 -8.5 1.5 -10.5 2.5 -2 1 -8.9 7 -15.3 13.3 -6.3 6.4 -11.8 11.3 -12.1 11 -0.8 -0.8 22 -23.4 26.1 -25.8 1.6 -1.1 3.9 -1.9 5 -1.9 5.3 0 22.3 -14.3 28 -23.6 2 -3.4 13.2 -13.4 14.9 -13.4 0.6 0 3.6 2.3 6.6 5 3 2.7 5.8 5 6.2 5 1.6 0 3.8 3.3 3.3 4.9 -0.3 1.1 0.5 2.2 2.5 3.4 2.9 1.7 4 3.7 2.1 3.7 -0.5 0 -1.1 1.9 -1.5 4.1 -0.8 5 -2.4 8.2 -3.7 7.4 -0.5 -0.4 -1.2 0.1 -1.6 1 -0.3 1 -0.1 2 0.5 2.4 0.7 0.4 0.3 3.3 -1.4 9 -1.3 4.6 -2.4 9.2 -2.4 10.2 0 3.7 1.9 1.8 3.4 -3.3 0.8 -2.9 2.4 -8.4 3.6 -12.2 1.1 -3.8 2 -7.6 2 -8.5 0 -0.9 0.9 -3.1 2 -4.9 2.7 -4.4 2.6 -7.6 -0.5 -9.2 -1.3 -0.7 -2.2 -1.7 -1.9 -2.2 0.3 -0.5 1.2 -0.4 1.9 0.2 0.9 0.7 3 0.9 5.7 0.5 l4.3 -0.6 13.7 12 c7.5 6.6 14 12.5 14.3 13.2 1.3 2 -3 -0.8 -7.3 -4.8 -2.3 -2.1 -6.4 -5.6 -9.2 -7.8 -2.8 -2.2 -5.6 -4.8 -6.1 -5.8 -0.8 -1.4 -1.4 -1.6 -2.4 -0.7 -1.7 1.4 -0.7 5.3 1.1 4.6 1.1 -0.4 1.3 0.6 0.8 5.2 -0.4 3.1 -1.1 6.2 -1.7 6.7 -0.6 0.7 -0.7 -0.8 -0.3 -4.2 0.7 -5.6 -0.9 -7.6 -2 -2.5 -1.2 5.4 -1.4 4.6 -1 -4 0.3 -5.5 0.1 -8.8 -0.5 -8.8 -0.6 0 -0.9 0.8 -0.8 1.8 0.1 0.9 -0.2 2.8 -0.8 4.1 -0.8 2 -1.1 2.1 -1.6 0.8 -1 -2.5 -2.8 -2 -2.2 0.6 0.7 2.6 -7.9 40.5 -8.8 39 -0.3 -0.5 0.7 -6.6 2.3 -13.4 3.4 -14.2 4.2 -19.2 3 -18.4 -0.5 0.3 -1.1 2 -1.5 3.8 -0.3 1.7 -1 4.3 -1.5 5.7 -0.4 1.4 -2 6.5 -3.5 11.3 -2.7 8.8 -2.7 8.9 -0.8 11.5 1 1.4 2.8 3 3.9 3.6 1 0.6 2.1 1.2 2.3 1.3 0.6 0.4 -2 3.3 -2.9 3.3 -0.5 0 -2.1 -2.1 -3.7 -4.7z m-3.3 -19.5 c0 -0.5 -0.7 -0.8 -1.5 -0.8 -1.5 0 -2 2.1 -0.8 3.3 0.7 0.7 2.3 -1.1 2.3 -2.5z m6.6 -21.2 c0.3 -1.9 0.3 -4 -0.1 -4.6 -0.4 -0.7 -0.1 -1.6 0.6 -2.1 1.2 -0.7 1.1 -0.9 -0.1 -0.9 -2.1 0 -5.3 -3.9 -4.6 -5.6 0.3 -0.8 0.2 -1.4 -0.3 -1.4 -0.5 0 -1.1 1.1 -1.3 2.5 -0.4 1.8 0 2.6 1.3 3 2.1 0.7 2.3 1.7 1 6.1 -0.9 3.1 0.1 6.4 1.9 6.4 0.5 0 1.2 -1.5 1.6 -3.4z m-8.2 -15.8 c-1 -1.6 -3.4 -0.7 -3.4 1.2 0 1.1 0.5 2 1 2 0.6 0 1 1 1.1 2.3 0.1 1.5 0.4 1.1 0.9 -1.3 0.5 -1.9 0.6 -3.8 0.4 -4.2z"/>
  <path d="M188 367.9 c0 -0.8 0.7 -2.4 1.5 -3.5 1.1 -1.4 1.4 -1.5 1.4 -0.4 0 0.8 -0.6 2.4 -1.4 3.4 -1.1 1.5 -1.5 1.6 -1.5 0.5z"/>
  <path d="M217.1 366.5 c0 -1.7 2.3 -4.1 5.6 -5.9 2.4 -1.2 3.5 -2.7 4.4 -5.9 0.7 -2.3 2.5 -5.8 3.9 -7.7 1.5 -1.9 4.3 -6.4 6.3 -10 2 -3.6 3.7 -5.8 3.7 -4.9 0 0.8 -1.8 4.4 -4 8 -4.3 6.8 -5.7 9.6 -8.8 17 -1.5 3.5 -2.7 4.8 -4.7 5.3 -1.5 0.4 -3.6 1.7 -4.6 2.9 -1 1.2 -1.8 1.8 -1.8 1.2z"/>
  <path d="M88 365.4 c0 -2.4 2.4 -9.3 3.1 -8.8 0.8 0.5 0.6 2.6 -0.8 7.7 -0.4 1.5 -2.3 2.5 -2.3 1.1z"/>
  <path d="M195 363.3 c0 -0.5 0.7 -1.8 1.5 -2.9 1.3 -1.8 1.4 -1.8 0.8 0.4 -0.5 2.2 -2.3 4.1 -2.3 2.5z"/>
  <path d="M82.5 360.8 c1.3 -4.1 3.7 -8.8 4.6 -8.8 1.4 0 1.1 1.6 -1.3 6.5 -2.3 4.7 -4.4 6.2 -3.3 2.3z"/>
  <path d="M200 359.3 c0 -1.9 1.1 -4.3 2.1 -4.3 1.3 0 1.1 1.4 -0.6 3.6 -0.8 1 -1.5 1.4 -1.5 0.7z"/>
  <path d="M73 358.5 c0 -2 4.5 -14.5 5.2 -14.5 1.3 0 1 2.1 -1.2 7.9 -1.8 5.1 -4 8.6 -4 6.6z"/>
  <path d="M205.1 354.4 c0.3 -0.5 1.1 -2.1 1.9 -3.6 0.7 -1.6 1.7 -2.8 2.2 -2.8 1.1 0 -1.8 5.6 -3.3 6.6 -0.7 0.4 -1 0.3 -0.8 -0.2z"/>
  <path d="M311.5 348.4 c0.3 -3.9 0 -6.5 -0.8 -7.3 -0.9 -1 -0.8 -1.1 0.8 -0.5 2 0.8 4.4 3.3 4.5 4.6 0 0.4 -0.6 0.5 -1.3 0.2 -0.9 -0.3 -1.7 1 -2.5 4.3 l-1.1 4.8 0.4 -6.1z"/>
  <path d="M494.1 351.6 c-0.6 -0.8 -2.2 -1.7 -3.5 -2 -1.3 -0.3 -2.6 -1.4 -2.8 -2.4 -0.4 -1.4 -1.8 -2 -5.6 -2.5 -5.6 -0.7 -10.8 -2.9 -8.1 -3.4 0.8 -0.2 4.4 0.3 8 1.2 l6.4 1.5 2.9 -3.2 c2.7 -3.1 2.8 -3.1 2.1 -0.8 -1.9 6.7 -1.8 7.6 1.1 8.9 2.5 1.1 2.9 1 5 -1.6 1.6 -2 2.3 -2.3 2.4 -1.2 0 0.9 -0.3 1.9 -0.7 2.3 -0.4 0.4 -0.8 1.5 -0.8 2.4 0 2.2 -4.7 2.8 -6.4 0.8z"/>
  <path d="M308 348.6 c0 -1.9 0.3 -3.7 0.8 -4 0.4 -0.2 0.6 1.3 0.4 3.5 -0.5 4.8 -1.2 5.1 -1.2 0.5z"/>
  <path d="M302 349.1 c0 -1.2 0.5 -2.1 1 -2.1 0.6 0 1 0.6 1 1.4 0 0.8 -0.4 1.8 -1 2.1 -0.5 0.3 -1 -0.3 -1 -1.4z"/>
  <path d="M504.5 350 c0.3 -0.5 1.5 -1 2.6 -1 1.1 0 1.7 0.5 1.4 1 -0.3 0.6 -1.5 1 -2.6 1 -1.1 0 -1.7 -0.4 -1.4 -1z"/>
  <path d="M68.8 349.4 c-1.4 -1.4 2.7 -12.4 4.9 -13.1 0.9 -0.3 0.8 0.9 -0.4 4.3 -2 6 -3.8 9.5 -4.5 8.8z"/>
  <path d="M299.1 344.5 c-0.2 -2.7 -0.2 -6.2 -0.1 -7.7 0.1 -1.6 -0.3 -2.8 -0.9 -2.8 -0.6 0 -1.1 1.7 -1.2 3.8 -0.1 2 -0.5 4.8 -0.9 6.2 -0.7 2.2 -0.8 2 -0.9 -1.5 0 -2.2 0.2 -5.7 0.5 -7.7 0.6 -3.2 1 -3.6 3.2 -3.4 1.5 0.2 2.9 1.2 3.3 2.5 0.5 1.1 1.5 2.1 2.3 2.1 2.2 0 2.7 1.5 2 5.9 -0.5 3.3 -0.9 3.8 -2 2.7 -0.7 -0.8 -1.2 -2.6 -1.1 -4.2 0.1 -2 -0.3 -2.9 -1.5 -3.2 -1.4 -0.3 -1.8 0.7 -2.1 6 -0.3 6.1 -0.3 6.2 -0.6 1.3z"/>
  <path d="M63.5 340.3 c0.3 -1.5 1.3 -4.3 2.2 -6.2 2.3 -5.2 2.9 -1.3 0.7 4.4 -1.8 4.9 -4.1 6.2 -2.9 1.8z"/>
  <path d="M291.5 335.6 c0.4 -4.4 0.9 -8.4 1.2 -8.9 1.1 -1.8 2.1 1.7 1.2 4 -0.5 1.4 -0.9 3.9 -1 5.6 0 1.8 -0.5 4.1 -1 5.2 -0.6 1.3 -0.7 -0.6 -0.4 -5.9z"/>
  <path d="M481.4 337.4 c-0.4 -1.4 -0.2 -3 0.4 -3.6 0.6 -0.6 1.1 0.2 1.4 2.6 0.5 4.1 -0.8 4.9 -1.8 1z"/>
  <path d="M40 327.5 c-5.2 -3 -9.8 -6.3 -10.3 -7.2 -0.6 -1 -2.7 -4.4 -4.9 -7.6 -2.1 -3.1 -5 -8.3 -6.3 -11.4 -3.2 -7 -10.8 -16.1 -15.2 -17.9 -1.8 -0.8 -3.3 -1.8 -3.3 -2.3 0 -0.4 1.6 -2.5 3.5 -4.5 1.9 -2.1 3.5 -4.2 3.5 -4.7 0 -0.5 0.7 -0.9 1.5 -0.9 2.1 0 1.9 0.6 -1.6 5 -3 3.8 -3.2 6 -0.4 6 0.8 0 2.4 -1.3 3.7 -3 2.2 -3 3.8 -3.9 3.8 -2 0 0.6 -1 2.4 -2.1 4 -2.1 2.7 -2 6 0 6 0.6 0 2 -1.8 3.1 -4 2 -3.9 4 -5.3 4 -2.7 0 0.6 -0.9 2.6 -2 4.2 -2.1 3.2 -2.6 6.5 -1.1 6.5 0.5 0 1.2 -0.8 1.6 -1.9 0.7 -2.4 4.5 -5.9 4.5 -4.2 0 0.7 -0.9 2.6 -2.1 4.2 -1.1 1.6 -1.9 3.9 -1.6 5.2 0.3 2.1 0.4 2.1 1.5 -0.5 0.6 -1.6 1.6 -2.8 2.2 -2.8 1.4 0 1.3 1.2 -0.6 4.8 -2 4.1 -0.8 6.4 1.7 3.1 2 -2.6 4 -1.8 2.1 0.9 -2.1 2.9 -2.4 4.1 -1.7 6 0.7 1.6 0.8 1.6 1.8 -0.2 4.2 -6.6 7.7 -7.7 3.8 -1.1 -1.1 2 -2.1 4.8 -2.1 6.3 l0.1 2.7 1.7 -2.1 c0.9 -1.2 2.2 -3 2.8 -4 2.2 -3.6 2.5 -0.6 0.4 3.6 -2.5 4.8 -2.1 7.9 1.2 9.9 2 1.2 2.3 1.2 3.3 -0.4 3.6 -6.2 6.6 -7.5 3.8 -1.7 -3 6.2 0.3 5.1 4.4 -1.4 1 -1.8 1.2 -1.8 1.8 -0.2 0.4 1.1 -0.1 2.7 -1.4 4.4 -1.2 1.5 -2.1 3.3 -2.1 4 0 2.3 2.6 1.6 4 -1.1 0.7 -1.4 1.9 -2.5 2.7 -2.5 1.1 0 1.1 0.5 -0.2 2.9 -0.8 1.6 -2 3.1 -2.7 3.4 -0.9 0.3 -0.7 0.7 0.5 1.2 1.2 0.5 2.6 0 4.2 -1.5 1.4 -1.3 2.8 -2 3.2 -1.6 0.9 0.9 -2.2 6 -3.9 6.3 -0.7 0.2 -5.6 -2.2 -10.8 -5.2z"/>
  <path d="M407.8 322.5 c-4.5 -4.2 -5.4 -7.9 -1.2 -4.6 3.3 2.6 4.4 2.6 4.4 0.3 0 -1.6 -5.8 -8.2 -7.2 -8.2 -0.3 0 -0.9 1.1 -1.2 2.5 -0.9 3.5 -2.7 2.2 -2 -1.4 0.5 -2.2 -0.2 -3.9 -2.9 -7.7 -1.9 -2.7 -3.8 -5.9 -4.1 -7.1 -0.9 -2.8 -2.3 -2.9 -3.1 -0.3 -0.4 1.1 -1 1.8 -1.5 1.5 -0.4 -0.3 -0.3 -2.1 0.2 -4 0.9 -2.6 0.8 -3.8 -0.2 -5 -1.7 -2 -3.7 -1.9 -4.9 0.3 -0.9 1.4 -1 1.2 -1.1 -1.2 0 -1.6 -0.8 -3.8 -1.7 -4.8 -1.6 -1.8 -1.5 -1.8 1.8 -1.6 2.2 0.2 3.8 1 4.5 2.3 0.7 1.4 1.9 2 4.2 1.9 3.6 -0.2 3.7 -0.1 2.1 2.4 -0.8 1.3 -0.6 2.9 1 6.5 2.1 4.9 4.1 5.5 4.1 1.3 0 -2.2 2.9 -7.1 3 -5 0 0.6 -0.7 3.3 -1.5 5.9 -1 3.3 -1.1 5.4 -0.4 6.7 1.2 2.2 3.5 2.4 4.3 0.3 0.3 -0.8 1 -1.5 1.5 -1.5 0.7 0 0.7 0.8 0 2.4 -1 2.1 -0.7 2.8 2.4 6 2 2 4 3.6 4.4 3.6 0.4 0 1.7 1.2 2.9 2.8 1.8 2.2 2.5 2.5 3.5 1.5 2.1 -2 2.9 -1.5 2.9 1.7 0 3.3 -1.4 3.8 -4.4 1.5 -3.1 -2.3 -4.6 -1.8 -4.6 1.5 0 1.7 -0.3 3 -0.7 3 -0.5 0 -2.5 -1.6 -4.5 -3.5z"/>
  <path d="M160 323.1 c0 -1 0.7 -2.4 1.5 -3.1 1.6 -1.3 1.8 -0.8 0.9 2.8 -0.8 2.7 -2.4 2.9 -2.4 0.3z"/>
  <path d="M90.3 318.8 c-4.9 -7.1 -13.1 -25.2 -13.9 -30.6 -0.5 -3.7 -1 -4.9 -2 -4.5 -1.8 0.7 -1.8 -0.1 0.2 -3.9 1.9 -3.7 1.5 -17.9 -0.5 -18.6 -0.6 -0.2 -1.1 -1.3 -1.1 -2.4 0 -1.4 -0.5 -1.8 -1.5 -1.4 -2 0.7 -1.9 -0.2 0.5 -4.9 1.1 -2.2 2 -4.7 2 -5.7 0 -3.2 -2 -1.9 -4.2 2.7 -1.2 2.5 -2.6 4.5 -3 4.5 -1.3 0 -0.9 -1.2 1.8 -6 3.6 -6.2 4.5 -8.8 3.4 -9.5 -0.5 -0.3 -2 1.6 -3.4 4.2 -3.2 6.2 -5.3 9 -6.1 8.1 -0.4 -0.4 0.4 -2.6 1.7 -5 1.4 -2.4 3.4 -6 4.6 -8.1 2.4 -4 2.7 -5.7 1.3 -5.7 -0.5 0 -3 3.6 -5.6 8 -2.6 4.4 -5.1 8 -5.6 8 -1.4 0 -1.1 -0.7 2.4 -6.3 4.7 -7.5 5.7 -10 4.5 -12 -2 -3.7 -4.6 -1.9 -9 6.1 -2.8 4.9 -4.4 7.1 -4.6 5.9 -0.2 -1 1.3 -4.7 3.2 -8.3 3.8 -6.9 4 -7.4 2.9 -7.4 -0.5 0 -2.4 2.5 -4.3 5.5 -3.1 4.8 -5 6.7 -5 5 0 -1.3 3.4 -7.1 5.3 -9.2 l2 -2.3 -5.7 -2.5 c-3.1 -1.4 -6.6 -2.5 -7.6 -2.5 -2.6 0 -4.9 4.5 -3.2 6.2 0.7 0.7 1.2 2.6 1.3 4.3 l0 3 1.6 -2.2 c1.6 -2.3 3.3 -3 3.3 -1.4 0 0.5 -1.2 2.4 -2.6 4.1 -3.2 3.8 -2.4 5.3 1.1 2 3 -2.8 3.4 -0.9 0.5 2.7 -2.2 2.9 -2.9 6.6 -0.8 4.5 1.9 -1.9 3 -1.4 1.8 0.7 -1.3 2.5 -1.3 4.1 0 4.1 0.6 0 1 -0.6 1 -1.4 0 -0.8 0.7 -1.7 1.6 -2 1.6 -0.6 1.6 0.4 -0.2 6.1 -0.5 1.7 -0.5 1.7 1 -0.1 2.2 -2.7 3.2 -1.3 1.2 1.6 -2.4 3.3 -1.9 4.5 0.7 2 3 -2.9 3.9 -2.8 3.1 0.3 -0.5 2.1 -0.3 2.4 1 1.9 1.4 -0.5 1.6 -0.2 1.1 1.9 -0.7 2.5 0.8 4.6 2 2.7 1.3 -2.1 2.4 -0.9 1.9 2.3 l-0.6 3.2 2.2 -2.5 2.2 -2.5 -0.6 3.2 c-0.3 1.9 -0.1 3.3 0.6 3.5 1.7 0.6 0 2.8 -2.1 2.8 -1.8 0 -5.7 -3.7 -8.6 -8.3 -1 -1.5 -3.1 -3.5 -4.6 -4.3 -1.8 -0.9 -2.9 -2.3 -2.9 -3.5 0 -1.2 -1.3 -3.4 -3 -4.9 -1.6 -1.5 -5.2 -7.4 -8 -13 -4.2 -8.3 -6.5 -11.5 -12.2 -17.1 -6.8 -6.7 -7.2 -6.9 -12.2 -7 -5.9 -0.1 -9.8 -1 -10.3 -2.4 -0.2 -0.6 3.4 -1 9 -0.9 8.7 0.1 9.6 0.3 13.5 3.2 3.2 2.3 5.8 3.2 10.5 3.7 3.4 0.3 8.7 1.1 11.7 1.7 6 1.1 31.6 13.7 36.4 17.8 3.2 2.8 35.7 22.4 46.1 27.9 9.2 4.8 11.6 7.7 17.5 20.7 5.9 13.2 11.7 21.5 17.9 25.8 4.8 3.4 5.5 5.5 0.9 2.9 -5.4 -3 -13.8 -12.4 -16.8 -18.8 -1.5 -3.3 -4.4 -9.4 -6.4 -13.6 -4 -8.6 -6.3 -10.7 -17.6 -16.4 -4.1 -2.1 -10.1 -5.5 -13.3 -7.7 -3.2 -2.2 -6.5 -3.7 -7.3 -3.4 -2.1 0.8 -1.7 2.6 0.6 2.6 1.8 0 1.9 0.3 1 2 -1.6 3 -0.2 4.5 2.3 2.3 2.2 -2 2.2 -2 0 5.1 -0.5 1.5 -0.2 1.8 1 1.3 1.4 -0.5 1.7 0 1.7 3.1 l0 3.7 2 -2.5 2 -2.5 -1 2.8 c-1.2 3.5 -1.2 3.7 0 3.7 0.6 0 1 -0.8 1 -1.8 0 -2.2 2.6 -6 3.5 -5.1 0.3 0.4 -0.6 3.3 -2 6.5 l-2.6 5.8 -2.4 -2.9 c-2.7 -3.2 -5.8 -9.4 -6.8 -13.6 -0.4 -1.4 -1.8 -3.9 -3.2 -5.5 -1.4 -1.6 -2.9 -3.3 -3.4 -3.9 -3.5 -4.2 -15.8 -14.5 -17 -14.3 -1.8 0.4 -3.4 8 -2.6 11.6 0.3 1.3 1 5.6 1.5 9.6 0.5 4 2.5 12.9 4.5 19.7 2 6.8 4.2 15.4 4.9 19.1 0.7 3.7 1.8 7.4 2.5 8.2 0.7 0.8 1 2.4 0.7 3.4 -0.4 1.1 0.1 2.9 1.2 4.3 2.3 2.9 3.7 6.9 2.4 6.9 -0.5 0 -2.2 -1.9 -3.9 -4.2z m2.2 -72.7 c-0.3 -0.6 -1.6 -1.6 -2.8 -2.2 -2.1 -1.1 -2.1 -1 0.2 1.5 2.3 2.5 4 2.9 2.6 0.7z"/>
  <path d="M157 319.1 c0 -1.2 0.5 -2.1 1 -2.1 0.6 0 1 0.6 1 1.4 0 0.8 -0.4 1.8 -1 2.1 -0.5 0.3 -1 -0.3 -1 -1.4z"/>
  <path d="M547.7 317.8 c-2.2 -2.7 -2.8 -3 -4.1 -1.9 -1.4 1.2 -1.6 1 -1.6 -0.8 0 -2.9 2.6 -3.7 5 -1.6 3.5 3.1 2.1 0.2 -2.1 -4.7 -4.5 -5.4 -6.6 -6 -7.5 -2.3 -0.3 1.3 -1.2 2.9 -2 3.6 -2.2 1.8 -1.8 -1.7 0.6 -5.7 1.5 -2.4 1.7 -3.4 0.9 -4 -1.3 -0.8 -3.9 2.1 -3.9 4.3 0 0.7 -0.4 1.3 -1 1.3 -1.3 0 -1.3 -0.1 0.6 -4.5 1 -2.6 1.2 -4.1 0.5 -4.8 -1 -1 -2.8 2.3 -3.4 6.4 -0.4 2.7 -1.6 3.4 -2.3 1.5 -0.4 -0.9 0.1 -3.4 1.1 -5.6 0.9 -2.1 1.5 -4.4 1.3 -5.1 -0.4 -1.3 -0.3 -1.4 -4.9 4.1 -1.8 2.1 -2 2.2 -1.6 0.5 0.3 -1.1 1.1 -3.5 1.8 -5.2 0.9 -2.3 1 -3.6 0.3 -4.3 -0.7 -0.7 -1.6 0.2 -3 3 -2.5 5.3 -5.1 5.6 -2.8 0.3 0.9 -2.1 1.9 -4.7 2.2 -5.7 0.9 -3.3 -1.3 -0.9 -3.3 3.4 -1.7 3.9 -3.5 5.3 -3.5 2.8 0 -0.7 0.9 -3.3 2 -5.7 3.9 -8.4 1.6 -10 -2.7 -1.8 -3.2 6.3 -4.3 4.2 -1.3 -2.7 4.1 -9.6 0.8 -12.1 -4.1 -3.1 -2.7 4.8 -4.9 6.9 -4.9 4.4 0 -0.6 1.4 -3.4 3 -6.1 3 -4.9 3.8 -7.8 2.1 -7.8 -1.2 0 -6.1 6.3 -6.1 7.7 0 0.5 -0.9 1.8 -2 2.8 -1.3 1.1 -2 1.4 -2 0.6 0 -1.5 5.1 -10.5 6.2 -10.9 1.6 -0.7 0.7 -2.9 -2.2 -5.7 -2.9 -2.8 -3 -2.8 -5.1 -0.9 -1.2 1 -3.5 4.3 -5.2 7.3 -1.7 3 -3.3 4.9 -3.5 4.3 -0.4 -1.2 5.3 -11.8 7.5 -14 0.7 -0.7 1.3 -1.8 1.3 -2.3 0 -1.6 -10.5 -16.9 -11.6 -16.9 -1.6 0 -2.6 1.4 -7.9 11.7 -2.5 5.1 -5.1 9.6 -5.7 9.9 -1.7 1.1 0 -4.3 2.7 -8.7 1.4 -2.1 2.5 -4.2 2.5 -4.7 0 -0.4 1.4 -2.9 3 -5.5 3 -4.8 3.8 -7.7 2.1 -7.7 -0.6 0 -1.3 0.5 -1.6 1 -1.4 2.3 -2.6 0.8 -1.9 -2.5 0.5 -2.8 0.3 -3.6 -1.1 -4.2 -1.2 -0.4 -2.3 0 -3.1 1.2 -1.7 2.3 -1.8 4.3 -0.2 2.7 1.5 -1.5 2.8 -1.5 2.8 -0.1 0 0.6 -1.6 4.4 -3.5 8.5 -1.9 4 -3.5 7.9 -3.5 8.6 0.1 2 3.7 -3.3 5.5 -7.9 0.9 -2.4 2.1 -4.3 2.6 -4.3 0.6 0 0.8 0.3 0.6 0.8 -3.1 5.3 -9.7 20.8 -9.7 22.8 0 3.9 2.1 10.4 3.4 10.4 0.6 0 1.6 -1 2.1 -2.3 3 -6.3 7.2 -13.4 8.9 -14.9 4 -3.7 3.6 -1.5 -1.2 7.5 -6.3 11.7 -6.8 14.3 -4.2 23.2 2.2 7.9 2.6 11.5 0.9 9.8 -0.5 -0.5 -1.7 -3.7 -2.5 -6.9 -0.9 -3.2 -3.3 -9.6 -5.5 -14 -2.1 -4.5 -4.3 -10.2 -4.8 -12.7 -0.6 -3.7 -2.3 -6.2 -8 -12.7 -3.9 -4.4 -7.1 -8.5 -7.1 -9 0 -2.5 4.3 -0.6 7.7 3.5 4.2 5 6.8 5.7 8.5 2.1 0.9 -2 0.6 -4.1 -1.7 -11.3 -1.8 -5.6 -2.8 -11.2 -2.9 -15.5 0 -3.8 -0.4 -6.8 -0.7 -6.8 -0.4 0 -1.2 1.3 -1.8 2.8 -1.6 3.9 -9.8 13.7 -11.5 13.7 -0.7 0 -2.1 0.6 -3 1.4 -2.5 2.1 -2.9 0.7 -0.6 -2.2 2.4 -3 2.5 -3.7 0.4 -3.7 -1.2 0 -0.9 -0.8 1 -3.3 4.8 -6.2 2.7 -7.9 -2.4 -2.1 -2 2.4 -3.5 3.3 -4.1 2.7 -0.6 -0.6 -0.4 -1.4 0.6 -2.3 3.8 -3.1 0.3 -6.2 -4 -3.4 -3.4 2.2 -4 1.4 -1.4 -2 1.4 -1.8 1.8 -3.1 1.2 -3.7 -0.7 -0.7 -1.7 0.2 -3.1 2.5 -1.2 2 -2.6 3.6 -3.2 3.6 -1.5 0 -1.3 -0.6 1.5 -5 2.8 -4.5 3.1 -6 1.1 -6 -0.8 0 -2.3 1.6 -3.5 3.5 -3 5.1 -4.5 4.3 -1.9 -1 1.8 -3.7 2 -4.7 0.9 -5.8 -1 -1 -1.8 -0.5 -3.9 2.2 -5.3 6.8 -6 7.6 -6.6 7.1 -0.3 -0.3 1.3 -3.4 3.4 -6.8 2.2 -3.5 4 -6.9 4 -7.7 0 -3.1 -2.1 -1.3 -5.7 5 -3.2 5.5 -5.3 7.9 -5.3 6 0 -0.8 4.3 -8.9 6.2 -11.7 1 -1.4 1.8 -3.2 1.8 -3.8 0 -2.2 -2.7 0.8 -6.1 6.8 -1.8 3.1 -3.4 5.2 -3.6 4.5 -0.4 -1 2.1 -6.2 6.4 -13.6 1.2 -2.1 0.9 -3.7 -0.7 -3.7 -0.6 0 -2.2 2.3 -3.6 5.2 -3.4 6.6 -6.5 10.9 -7.5 10.2 -0.9 -0.5 0.5 -3.6 3.1 -6.7 1.2 -1.6 1.2 -1.9 0 -2.7 -1.2 -0.7 -1.2 -1.2 0.3 -2.8 2 -2.2 4.9 -11.2 3.6 -11.2 -1.3 0 -1.1 -2.8 0.3 -3.6 1.6 -1 4 2.7 3.3 5.4 -0.4 1.5 -0.1 2.2 0.9 2.2 0.8 0 1.9 0.8 2.5 1.7 0.5 1 1.3 1.4 1.7 1 1 -0.9 -5.6 -13.7 -7 -13.7 -0.5 0 -1.8 0.7 -2.8 1.7 -1.6 1.4 -1.8 1.4 -1.8 0.1 0 -0.9 0.7 -2.1 1.5 -2.8 0.8 -0.7 1.5 -1.7 1.5 -2.3 0 -0.5 -0.8 -0.3 -1.8 0.6 -2.9 2.6 -3.6 2 -1.2 -1 1.9 -2.4 1.9 -2.8 0.5 -3.6 -1.2 -0.6 -1.3 -1.2 -0.5 -2.2 0.6 -0.7 0.7 -1.6 0.2 -1.9 -1.3 -0.8 -5.5 5.3 -4.8 7.1 0.4 0.9 0.1 2.1 -0.5 2.9 -1 1.3 -3 12.5 -2.3 13.3 0.2 0.2 1.1 -0.2 2 -1 1.6 -1.3 1.6 -1.2 0.4 1.1 -0.7 1.4 -2.8 4.6 -4.7 7.3 -3.8 5.2 -3.4 6.1 0.9 2 1.5 -1.4 3.1 -2.4 3.4 -2 0.9 0.9 -8.6 11.7 -10.2 11.7 -0.8 0 -1.4 0.6 -1.4 1.4 0 1.8 3.9 2.8 6.2 1.5 1.1 -0.6 2.2 -0.8 2.5 -0.5 0.9 0.8 -1.7 3.6 -3.3 3.6 -1.7 0 -1.7 1 -0.3 4.7 1 2.7 1.1 2.7 2.5 0.9 2.6 -3.6 2.6 -0.9 0 4.3 -2.9 5.7 -2.1 6.7 1.7 2.1 2.4 -2.7 4.7 -3.9 4.7 -2.4 0 0.4 -2 2.9 -4.5 5.5 -2.5 2.6 -4.5 5.6 -4.5 6.6 0 1.5 0.3 1.4 1.9 -0.6 1 -1.3 2.4 -2.2 3 -2 0.7 0.3 -0.6 2.5 -3.4 5.4 -5.5 6.1 -6.9 8.2 -5.5 9 0.5 0.3 2 -1 3.2 -2.9 1.3 -2 2.9 -3.6 3.6 -3.6 1.7 0 1.5 0.6 -1.3 4.7 -3.2 4.8 -1.9 6.6 1.7 2.3 1.5 -1.9 2.8 -3.8 2.8 -4.2 0 -0.4 0.7 -0.8 1.5 -0.8 2.2 0 1.9 0.6 -3.7 7.9 l-5.1 6.6 5.4 -5.2 c5.2 -5.1 6.9 -6.2 6.9 -4.5 0 0.4 -3.4 4.3 -7.5 8.7 -4.1 4.4 -7.4 8.3 -7.5 8.8 0 1.6 3.4 0.5 6.9 -2.2 2 -1.5 4.3 -2.8 5.1 -2.9 0.8 0 2.5 -0.4 3.8 -0.7 3.5 -1.1 1.9 1.4 -3.4 5.3 -2.4 1.8 -4.4 3.7 -4.4 4.2 0 2.1 3.7 0.9 6.5 -2 1.6 -1.6 3.6 -3 4.4 -3 1 0 0 1.5 -2.7 4.1 -2.3 2.2 -4 4.5 -3.6 5 0.6 1 1.3 0.7 5.7 -2.4 4.4 -3 4.6 -0.9 0.2 2.8 -3.8 3.1 -3.9 3.5 -2.3 5.1 1.6 1.6 1.9 1.5 5.9 -1.4 4 -3 5.9 -3.3 5.9 -1.1 0 0.5 -0.8 1.3 -1.7 1.6 -3 1.1 -7.2 4.6 -6.7 5.5 0.9 1.5 3.7 0.8 7.6 -1.8 5 -3.5 6.2 -2.2 1.9 1.8 -3.8 3.6 -2.6 5.1 1.5 1.9 1.5 -1.2 3.3 -2.1 4 -2.1 2.7 0 1.4 1.8 -2.8 3.9 -3.1 1.5 -3.7 2.2 -2.5 2.7 0.9 0.3 2.6 -0.1 3.9 -1 2.8 -2 4.8 -2 4.8 -0.1 0 0.8 0.5 1.5 1 1.5 0.6 0 1 0.7 1 1.5 0 1.8 4.7 6.5 6.6 6.5 0.8 0 2.4 2.1 3.5 4.8 1.2 2.6 2.5 5.4 2.9 6.2 0.4 0.8 2.1 1.9 3.9 2.4 1.7 0.5 3.1 1.3 3.1 1.9 0 0.5 -0.8 0.6 -1.7 0.2 -1 -0.3 -3 -0.9 -4.6 -1.2 -1.9 -0.4 -2.9 -1.4 -3.4 -3.2 -0.7 -2.8 -5.3 -9.1 -6.7 -9.1 -1.3 0 -5.6 -4.4 -5.6 -5.7 0 -0.7 -0.7 -1.3 -1.5 -1.3 -0.8 0 -1.5 -0.5 -1.5 -1.1 0 -0.6 -1.1 -0.8 -2.8 -0.4 -2.3 0.5 -4.1 -0.4 -10 -4.5 -4 -2.8 -7.2 -5.4 -7.2 -5.8 0 -0.4 -2.5 -3.3 -5.6 -6.4 -4.5 -4.6 -7 -6.2 -12.3 -7.9 -3.6 -1.2 -8.2 -2.1 -10.2 -2.1 -4.1 0.2 -5.6 -1.7 -3.9 -4.9 0.8 -1.4 2.2 -1.9 5.3 -2 6.9 -0.1 10.1 -0.9 12.2 -3 1.1 -1.1 1.4 -1.9 0.7 -1.9 -0.6 0 -1.2 -0.6 -1.2 -1.2 0 -0.7 -1.9 -2.1 -4.1 -3.2 -2.4 -1.1 -4.5 -2.9 -5.1 -4.5 -0.6 -1.4 -1.4 -3.4 -2 -4.4 -1.4 -2.7 -0.1 -3.3 3 -1.5 1.6 0.9 3.6 1.6 4.6 1.4 2.4 -0.3 4.8 -3.6 3.7 -5 -0.4 -0.6 -0.8 -3.2 -0.8 -5.8 0 -3.7 -1.1 -7.1 -5.1 -15.3 -2.9 -5.9 -5.2 -10.9 -5.2 -11.1 0 -0.2 0.9 -0.4 2 -0.4 4.7 0 9 -2.9 11 -7.2 1.1 -2.4 2 -5.5 2 -6.9 0 -1.4 1 -5.3 2.1 -8.8 1.9 -5.7 2 -7 1 -14.9 -0.6 -4.8 -1.2 -9.9 -1.4 -11.5 -0.2 -1.5 -0.7 -3 -1 -3.3 -0.3 -0.4 -3.9 2.3 -7.9 6 -4 3.6 -7.5 6.6 -7.9 6.6 -0.4 0 -2.7 3.3 -5.2 7.2 -4.6 7.4 -9.2 12.6 -10.2 11.6 -0.3 -0.3 0 -1.2 0.7 -1.9 3.9 -4.1 8.9 -11 8.6 -11.9 -0.4 -1.2 -5.7 3.7 -14.2 13 -3.9 4.2 -6.1 5.9 -6.4 5 -0.3 -0.8 2.2 -3.7 5.7 -6.9 3.4 -3.1 6.1 -5.9 6.1 -6.3 0 -1.8 -11.1 4.7 -17 10.1 -5 4.5 -7 5.6 -7 3.6 0 -0.8 0.3 -1.5 0.8 -1.5 0.4 -0.1 2.7 -1.9 5.2 -4 l4.5 -4 -3.5 0 c-3 0 -4.3 0.9 -9.7 6.7 -3.4 3.7 -6.6 6.4 -6.9 6 -0.7 -0.7 0.6 -2.5 6 -8.5 3.7 -4 2.9 -5 -5 -5.8 -5.4 -0.6 -6.6 -0.3 -11 2.1 -8.7 4.9 -13.2 8.4 -19.1 15.1 -7 7.9 -8.9 11.3 -9.7 17.9 -0.8 5.3 -1.1 6 -2.9 6 -0.7 0 -1.7 3 -2.3 7 -1.3 7.8 -6 21.4 -10.1 29.1 -2.6 5.1 -2.7 5.1 -6.8 4.6 -2.9 -0.3 -5 0.1 -6.8 1.3 -2.4 1.5 -5.3 1.3 -4.3 -0.4 0.3 -0.4 0.1 -1.3 -0.5 -2.1 -0.6 -1 -0.9 0.6 -0.9 4.8 0 5.7 -0.2 6.3 -2.5 7.2 -1.4 0.5 -2.5 1.6 -2.5 2.5 0 0.8 -0.7 1.5 -1.5 1.5 -0.8 0 -1.8 1.2 -2.1 2.8 -1.8 7.4 -3.1 4.1 -2.4 -6.4 0.3 -4.9 1 -7.9 1.8 -8.2 0.8 -0.2 1.2 1 1.2 4.3 0 2.9 0.4 4.4 1 4 1 -0.6 0.8 -6 -0.6 -15.6 -0.3 -2.1 -0.1 -4 0.5 -4.3 1.2 -0.8 3.1 2.5 3.1 5.3 0 1.1 0.5 2.3 1.1 2.6 0.7 0.5 0.9 -1.4 0.5 -6.1 -1.3 -14.2 -1.4 -17 -0.9 -19.7 0.7 -3.8 2.3 -3.4 2.1 0.6 -0.1 4.9 1.4 21.9 1.9 21.3 0.3 -0.3 0.7 -5.8 1 -12.3 0.2 -6.5 0.6 -12.8 0.9 -14 0.8 -4 2.3 -2.4 1.9 2 -1.1 11.5 -1.5 20.6 -0.9 22.1 1.6 4.2 2.4 0.4 2.4 -11.8 0 -7.4 0.3 -14.1 0.6 -15 1.6 -4.2 2.1 -0.4 1.6 12.9 -0.4 12.5 -0.3 14.5 1 14.5 2.3 0 2.8 -3.1 2.8 -17.2 0 -7.4 0.4 -12.9 1 -13.3 0.6 -0.4 1 0.6 1.1 2.2 0.1 2.2 0.3 1.9 1.1 -1.5 0.5 -2.4 1.2 -4.1 1.5 -3.8 0.4 0.3 0.6 7.1 0.6 15.1 -0.1 13.8 0.9 19.4 2.2 12.3 0.7 -3.8 0.7 -5.1 0.6 -21.2 -0.1 -6.8 0.3 -12.4 0.9 -13 0.7 -0.7 1 1.8 1 7.4 0 4.6 0.2 8.1 0.5 7.9 0.2 -0.3 0.7 -4.1 1.1 -8.5 0.3 -4.3 1.4 -10 2.4 -12.6 1.4 -3.6 1.5 -4.5 0.4 -4.1 -2.9 1.1 -1.2 -1.8 5 -8.3 6.6 -6.9 10.6 -8.6 4.4 -1.9 -3.8 4.3 -5.2 6.5 -4.1 6.5 1 0 13.3 -12.3 13.3 -13.3 0 -0.4 -2.3 -0.7 -5.1 -0.7 -5.7 0 -5.5 -0.2 -14.6 12 -3.1 4.1 -5.8 7.7 -6 7.9 -0.1 0.2 -0.6 0.2 -0.9 -0.2 -0.7 -0.7 1.8 -4.4 8.8 -13.1 2.7 -3.3 4.8 -6.3 4.8 -6.7 0 -0.4 -1.6 -1 -3.5 -1.3 -2 -0.4 -7.1 -2.2 -11.4 -4.1 l-7.9 -3.3 -3.7 3.3 c-3.5 3.3 -3.6 3.4 -1.8 5.3 1 1 2.3 2.7 2.9 3.8 1 1.7 1.3 1.5 3.5 -2.4 1.3 -2.3 3 -4.4 3.7 -4.7 2 -0.7 1.4 0.9 -1.8 5.3 -1.6 2.3 -3 4.6 -3 5.2 0 2.1 1.8 0.8 4.4 -3 1.5 -2.3 3.1 -3.8 3.7 -3.5 0.5 0.4 -0.4 2.3 -2.1 4.5 -2.9 3.7 -3.8 6 -2.2 6 0.4 0 1.8 -1.8 3.2 -4 1.4 -2.2 2.8 -4 3.2 -4 1.1 0 1.2 -0.3 -2.2 6.4 -1.7 3.2 -3 6.7 -3 7.6 0 1 -0.6 2.3 -1.4 2.9 -1.2 1 -1.6 0.6 -2.4 -2.2 -1.6 -5.8 -14.2 -23 -14.2 -19.3 0 0.9 1.1 3.4 2.5 5.6 2.8 4.4 3 5 1.5 5 -0.5 0 -1.9 -1.9 -3.1 -4.2 -2 -3.9 -2.2 -4.1 -3.5 -2.3 -0.8 1.1 -1.1 2.8 -0.8 3.9 1.5 4.9 3.4 8.6 4.3 8.6 0.6 0 1.1 0.5 1.1 1 0 0.6 -0.9 1 -1.9 1 -1.4 0 -2.3 -1.2 -3.3 -4.2 -1.5 -4.5 -3.2 -5.8 -4.1 -3.4 -0.8 1.9 2 10.1 3.9 11.7 2.1 1.8 1.7 3.1 -0.7 1.9 -1.1 -0.7 -2.8 -2.8 -3.6 -4.8 -1.5 -3.6 -1.6 -3.6 -2.6 -1.4 -1.3 2.9 0.6 9.4 3.5 12.2 1.2 1.1 1.9 2.3 1.5 2.6 -1.4 1.4 -3.9 -0.8 -6 -5.3 -3 -6.8 -3.5 -2.9 -0.5 4.9 1.4 3.6 3 6.3 4.1 6.6 2.1 0.5 2.2 1.8 0.3 2.5 -2.4 0.9 -5.8 -3.8 -6.3 -8.7 -0.7 -5.4 -2.3 -6.2 -2.3 -1.1 0 4.2 2.4 10.5 4.6 12.2 1.9 1.4 1 3.3 -1.5 3.3 -2.1 0 -4.2 -2.2 -6.5 -6.7 -2 -3.9 -3.6 -4.3 -3.6 -0.8 0 3.5 4.7 12.5 6.5 12.5 1.7 0 2 2.6 0.4 3.5 -0.5 0.4 -2.8 -0.5 -4.9 -1.9 -4.8 -3.2 -5 -3.2 -5 -0.3 0 2.9 3.4 6.7 6 6.7 1.1 0 2 0.5 2 1 0 1.3 -1.2 1.3 -4.5 0 -2.4 -0.9 -2.5 -0.9 -1.4 1.3 1.7 3.3 5.1 6.7 6.6 6.7 0.7 0 1.3 0.5 1.3 1 0 0.6 -0.9 1 -1.9 1 -2.1 0 -6.6 -4.7 -7.6 -8 -0.6 -2 -2.5 -2.8 -2.5 -1.1 0 1.9 7.4 13.6 11.2 17.7 4.1 4.5 4.5 5.4 2.4 5.4 -1.8 0 -7.5 -6.9 -10.7 -12.9 -1.3 -2.4 -3 -5.5 -3.8 -6.9 -1.2 -2.2 -1.2 -3.6 -0.1 -9.1 0.8 -3.6 1.4 -7.5 1.5 -8.6 0.2 -3.3 4.5 -16.5 5.4 -16.5 0.4 0 1.6 1.8 2.6 4 2.2 5 3.1 4.7 1 -0.3 -1.9 -4.7 -1.9 -6.8 0 -6.1 1.1 0.4 1.5 0 1.5 -1.6 0 -1.2 1.1 -4 2.4 -6.3 2.7 -4.8 11.6 -28.9 11.6 -31.5 0 -0.9 -0.5 -2.4 -1 -3.2 -0.9 -1.3 -1.3 -1.1 -3.1 1 -10.1 12.4 -17.8 20.4 -22.3 23.4 -3 2 -8.4 6 -12.1 9 -3.6 3 -7.2 5.3 -8 5 -1.9 -0.8 -4.6 0.9 -11.4 6.9 -7.2 6.4 -12.1 9.4 -12.1 7.5 0 -0.8 2.3 -3.1 5.1 -5.2 9.1 -6.7 8.6 -6.6 -34.1 9.1 -32.7 12 -33.8 12.5 -38.7 17.1 -2.6 2.3 -4.9 3.9 -5.2 3.4 -0.3 -0.5 -1.3 -1.1 -2.1 -1.4 -1.6 -0.5 -0.1 -1.5 15 -10.5 4.7 -2.8 11 -5.9 14 -6.8 3 -1 11.4 -3.8 18.5 -6.2 7.2 -2.5 18.3 -6.3 24.9 -8.4 14.9 -5 22.2 -8.6 31.4 -15.6 5.6 -4.3 7.1 -6 6.7 -7.4 -0.4 -1.3 -0.1 -1.9 0.9 -1.9 0.8 0 3 -1.6 4.9 -3.5 1.9 -1.9 3.9 -3.5 4.6 -3.5 0.7 0 6.2 -5 12.2 -11 l11.1 -11 5 4.4 c5.8 5.1 15.7 11.1 23.7 14.4 10.7 4.4 27.3 5.3 32.3 1.7 1.3 -0.8 3.1 -1.5 4.1 -1.5 1 0 4 -1.1 6.7 -2.5 5.7 -2.9 8.1 -3.1 14 -1 7.5 2.6 16.1 2 24.3 -1.8 11.3 -5.3 18.6 -10.4 26.4 -18.4 6 -6.3 7.6 -7.4 9.9 -7.1 4.1 0.4 9.7 8.3 12.9 18.1 4.2 12.8 11.7 26 22.4 39.7 5.1 6.6 13.4 15 14.7 15 0.6 0 3.3 -1.9 5.9 -4.2 l4.8 -4.3 2.3 3 c1.3 1.7 7.8 10 14.4 18.5 6.7 8.5 14.3 19.1 17 23.5 5.4 8.8 9.1 13.1 13.6 15.7 1.6 1 3.6 2.3 4.5 2.9 1.4 1.1 2.9 0.3 9.5 -4.7 12.4 -9.3 24.2 -19.5 32.9 -28.5 11.8 -12.1 16.5 -15.5 24.8 -18 10.7 -3.1 21.7 -12.2 33.3 -27.4 5.9 -7.7 19.4 -20.5 21.6 -20.5 0.8 0 4.3 2.5 7.9 5.6 3.5 3.1 8.1 6.7 10.2 8.1 3.2 2 3.8 2.9 3.3 4.8 -0.5 1.8 0.2 2.8 3.2 5.1 2 1.5 3.9 2.9 4.2 3.1 0.2 0.2 -0.2 0.8 -1 1.3 -0.8 0.5 -1.5 1.5 -1.5 2.2 -0.1 4 -2.1 11.3 -5.2 19.1 -1.8 4.9 -3.6 10.3 -3.9 12 -0.3 1.8 -1.3 5.1 -2.1 7.3 -1.2 3.3 -1.2 4.6 -0.3 6.4 0.6 1.2 1.3 2 1.6 1.8 0.2 -0.3 1.3 -3.8 2.4 -7.9 3.5 -13.6 8.7 -30.5 9.8 -32.5 1 -1.6 1.1 -1.2 1.2 2.8 0 2.6 -0.4 4.9 -0.9 5.2 -0.4 0.3 -1.6 3.4 -2.5 6.8 -3.2 11.6 -7.7 26.3 -8.7 28.3 -1.8 3.8 2.5 10.3 7.9 12 2.5 0.7 3 2.5 0.7 2.5 -0.8 0 -1.5 0.7 -1.5 1.5 0 0.8 -0.4 1.5 -1 1.5 -1.4 0 -8.7 -11.7 -10.6 -16.9 -0.8 -2.5 -2.4 -6.9 -3.5 -9.6 -1 -2.8 -1.9 -5.5 -1.9 -6.1 0 -0.5 1.8 -2.8 4 -4.9 3.6 -3.5 4 -4.4 4 -8.8 0 -2.9 -0.4 -4.6 -1 -4.2 -0.6 0.4 -1 -0.6 -1 -2.3 0 -1.6 -0.9 -4 -1.9 -5.3 -1 -1.4 -2.1 -3.6 -2.3 -4.9 -0.2 -1.4 -0.9 -2.4 -1.6 -2.3 -0.7 0.2 -1.2 -0.8 -1.2 -2.2 0 -1.4 -1.5 -5.3 -3.4 -8.8 -1.8 -3.5 -3.5 -7 -3.8 -7.8 -0.5 -1.2 -0.8 -1.2 -1.9 0.2 -0.8 0.9 -3.5 2.3 -6 3.3 -5.6 2 -7.1 3.5 -17.3 17.9 -9.7 13.3 -13.1 15.7 -23.4 15.7 -9.6 0 -15.9 3.8 -28 16.6 -9.7 10.2 -18.6 18.1 -29.8 26.2 -3.2 2.3 -7.5 5.6 -9.4 7.3 l-3.5 3.1 2.3 1.5 c1.2 0.9 2.2 2 2.2 2.5 0 1.5 4.8 7.4 11.5 14.2 3.3 3.3 9 9.5 12.5 13.6 3.6 4.1 7.7 8.5 9.3 9.8 1.5 1.3 2.7 3 2.7 3.8 0 1.8 -0.9 1.8 -3.2 -0.3 -1.7 -1.5 -1.8 -1.5 -1.8 0.5 0 3.1 -1.4 2.7 -4.3 -1z m-150.7 -61.3 l2.4 -2.6 -3.9 0.6 c-2.2 0.3 -5.1 0.7 -6.5 1 -1.4 0.2 -3.5 0.4 -4.7 0.4 -1.3 0.1 -2.3 0.6 -2.3 1.2 0 0.7 2 1 5.5 0.7 3 -0.1 5.5 0 5.5 0.5 0 1.4 1.7 0.7 4 -1.8z m72.4 -2.3 c-0.7 -2.3 -2.8 -3 -3.9 -1.1 -0.9 1.3 2.6 5.2 3.6 4.2 0.5 -0.5 0.6 -1.8 0.3 -3.1z m180.6 -19.5 c0 -2.9 -0.1 -3 -1.6 -1.5 -1 1 -1.4 2.3 -0.9 3.7 0.9 3 2.5 1.6 2.5 -2.2z m-178 -2.9 c2.2 -3.6 2.6 -5.8 1 -5.8 -1.1 0 -4 5.3 -4 7.5 0 2.3 0.8 1.8 3 -1.7z m-1.1 -6.5 c0.8 -1.8 0.9 -2.9 0.2 -3.6 -1.4 -1.4 -1.7 -0.9 -2.6 3.1 -0.8 3.9 0.7 4.3 2.4 0.5z m-234.9 -1.4 c-0.7 -1.1 -1.4 -1.9 -1.6 -1.6 -0.7 0.7 0.7 3.7 1.7 3.7 0.6 0 0.5 -0.9 -0.1 -2.1z m230.1 -8.2 c-0.8 -0.8 -1.1 0.2 -1 3.4 l0.1 4.4 1 -3.4 c0.6 -2.3 0.6 -3.7 -0.1 -4.4z m-175.1 -4.7 c0.9 -7.9 1.7 -10.9 3.1 -12.3 2.2 -2 2.3 -2.4 1 -3.1 -0.5 -0.4 -1.9 1 -3.1 2.9 -1.6 2.6 -2.3 5.9 -2.9 13.1 -0.6 8.3 -0.4 11.1 0.5 10.2 0.1 -0.2 0.8 -5 1.4 -10.8z m367.9 -3.9 c1.9 -8.2 1.9 -8.7 0.2 -10.4 -1.7 -1.7 -1.8 -1.6 -3.4 3.4 -2.8 8.4 -1.9 11.5 0.9 3.4 2 -5.8 2.3 -6.3 1.9 -2.9 -0.2 2.2 -1.4 6.9 -2.5 10.3 -2.3 7.4 -2.5 9.3 -0.5 6.7 0.7 -1 2.3 -5.7 3.4 -10.5z m-213 6.3 c-0.6 -0.8 -1.5 -1.4 -2 -1.4 -1.4 0 -1.1 2.8 0.4 3.3 2 0.7 2.9 -0.4 1.6 -1.9z m-6.4 -7.4 c-3.8 -3.9 -5.2 -2.8 -1.8 1.5 1.8 2.2 3.1 3.1 3.7 2.5 0.6 -0.6 0 -2 -1.9 -4z m210.5 -4.1 c0 -1.1 -0.4 -1.7 -1 -1.4 -0.5 0.3 -1 1.3 -1 2.1 0 0.8 0.5 1.4 1 1.4 0.6 0 1 -0.9 1 -2.1z m-255.5 -0.1 c3.2 -1.4 3.3 -3.1 0.1 -1.8 -1.3 0.5 -2.7 0.6 -3 0.3 -0.3 -0.4 -0.6 0.1 -0.6 1 0 2 0.2 2 3.5 0.5z m39.2 -3.3 c-0.4 -0.8 -1.1 -1.5 -1.7 -1.5 -1.4 0 -1.3 2.7 0.3 3.3 1.6 0.6 2.1 0.1 1.4 -1.8z m215.3 -8.7 c0 -5.5 -0.1 -5.8 -2.5 -5.8 -2.3 0 -2.5 0.4 -2.5 4.1 0 2.4 0.4 3.8 1 3.4 0.6 -0.4 1 0.6 1 2.3 0 1.6 0.3 3.2 0.7 3.5 1.3 1.4 2.3 -1.9 2.3 -7.5z m3.9 2.8 c0.1 -3.1 -1 -1.1 -1.5 2.6 -0.3 2.6 -0.2 2.9 0.5 1.3 0.5 -1.1 1 -2.9 1 -3.9z m-224.9 -1.6 c-1.4 -3.3 -3 -4 -3 -1.3 0 1.8 3 5.6 3.8 4.8 0.3 -0.2 -0.1 -1.8 -0.8 -3.5z m-192.5 -11.9 c3.8 -3.9 6.5 -7.1 6 -7.1 -1.2 0 -14.2 11.4 -16.9 14.7 l-1.9 2.5 2.9 -1.5 c1.6 -0.9 6 -4.7 9.9 -8.6z m30.6 -11.3 c1.2 -2.3 0.1 -2.3 -2.3 -0.1 -1 0.9 -1.8 2.6 -1.8 3.7 0.1 2.1 0.1 2.1 1.6 0.1 0.9 -1.1 2 -2.8 2.5 -3.7z m2.6 0.6 c-1 -1 -3.7 1.6 -3.7 3.4 0 1.3 0.4 1.2 2.2 -0.5 1.2 -1.3 1.9 -2.5 1.5 -2.9z m-5.7 -4.1 c0 -2.4 -2.5 -0.9 -2.8 1.7 -0.3 2.1 -0.2 2.2 1.2 1.1 0.9 -0.7 1.6 -2 1.6 -2.8z"/>
  <path d="M151.7 317.1 c-0.5 -2.4 -1 -2.8 -2.7 -2.4 -1.5 0.4 -2 0.1 -2 -1.5 0 -1.2 -0.4 -2.4 -1 -2.7 -1.8 -1.1 -1.1 -3.5 1 -3.5 1.3 0 2 0.7 2 2 0 1.1 0.7 2 1.5 2 0.9 0 1.8 0.7 2.1 1.5 0.4 0.8 1.2 1.5 2 1.5 1.6 0 1.6 0.5 0.8 3.8 -0.9 3.1 -3 2.7 -3.7 -0.7z"/>
  <path d="M32 318.6 c0 -2.6 4.4 -9.5 5.5 -8.4 0.6 0.6 -3.5 8.8 -4.5 8.8 -0.6 0 -1 -0.2 -1 -0.4z"/>
  <path d="M537 314.1 c0 -2.5 3.9 -7.4 4 -4.9 0 0.9 -0.4 2 -1 2.3 -0.5 0.3 -1 1.5 -1 2.6 0 1 -0.4 1.9 -1 1.9 -0.5 0 -1 -0.9 -1 -1.9z"/>
  <path d="M140 307.5 c0 -3.8 2.4 -9.5 4 -9.5 1.4 0 1.2 2.2 -0.5 4.4 -0.8 1.1 -1.5 3.5 -1.5 5.3 0 1.8 -0.4 3.3 -1 3.3 -0.5 0 -1 -1.6 -1 -3.5z"/>
  <path d="M135.6 308.3 c-0.9 -0.9 -0.8 -9.3 0.2 -9.3 2.2 0.1 3.1 1.8 2.5 5.3 -0.6 3.8 -1.5 5.2 -2.7 4z"/>
  <path d="M126.5 301.1 c-0.8 -1.3 0.4 -7.9 1.6 -8.7 0.5 -0.3 0.9 0.1 0.9 1 0 0.8 0.5 1.6 1.2 1.8 0.8 0.3 0.8 1.2 0.1 3.3 -1 3.1 -2.7 4.3 -3.8 2.6z"/>
  <path d="M122 299.3 c0 -0.4 0.5 -2.4 1.1 -4.3 0.5 -1.9 1.2 -4.3 1.4 -5.4 0.5 -2.3 1.3 -3.1 2.2 -2.3 0.8 0.9 -2.4 11.4 -3.7 12.2 -0.6 0.4 -1 0.3 -1 -0.2z"/>
  <path d="M119.3 292.5 c1.2 -7.4 3.8 -14.8 4.9 -13.7 0.7 0.7 0.3 3.3 -1.3 8.4 -2.6 8.5 -4.5 11.3 -3.6 5.3z"/>
  <path d="M222.3 287.2 c0.2 -2.4 1 -4.9 1.7 -5.5 1 -1 1.1 -0.3 0.6 3.3 -0.9 6.1 -3 8 -2.3 2.2z"/>
  <path d="M114.8 287.5 c-0.3 -1.3 -0.1 -2.2 0.3 -1.9 0.5 0.3 0.9 -0.1 0.9 -1 0 -0.8 -0.5 -1.6 -1.1 -1.8 -1.3 -0.4 2.6 -13.8 4 -13.8 1.1 0 0.5 10.9 -0.9 16.3 -1.4 5.2 -2.5 6 -3.2 2.2z"/>
  <path d="M226.9 289.5 c-0.3 -2.8 0.4 -6.2 1.7 -7.4 2 -2.2 2.6 -0.9 1.3 3 -1.3 3.7 -2.8 5.9 -3 4.4z"/>
  <path d="M576 284.9 c0 -0.8 3.5 -7.7 7.8 -15.4 6.7 -12 8.2 -14.2 11.7 -15.9 4.2 -2.2 7.6 -7.5 7.2 -11.1 -0.1 -1.1 0.7 -3 1.8 -4.1 1.1 -1.2 2.7 -3 3.5 -4 2.1 -2.5 10 -16.4 10 -17.4 0 -0.4 0.7 -1.3 1.5 -2 4 -3.3 0 5.4 -7.7 16.8 -2.7 4 -5.6 9.4 -6.4 12 -2.1 7.2 -4.9 11.2 -8.5 11.9 -3.5 0.7 -4.8 2.5 -12.9 17.8 -5.6 10.7 -8 14.1 -8 11.4z"/>
  <path d="M175 280.9 c2.7 -5.1 16.7 -26.6 19.3 -29.6 2.5 -2.8 1.6 -4 -1.8 -2.5 -4.4 2 -4.8 1.4 -2.1 -3.4 3.4 -6.1 3.3 -7.1 -0.5 -4 -4 3.4 -6 3.4 -2.8 0 2.2 -2.3 6.9 -5.4 8.4 -5.4 1.1 0 0.4 3.2 -1.5 6.9 l-1.9 3.9 2.9 -1.1 c5.9 -2.2 4.9 0.6 -5.5 15.5 -5.6 8.1 -11.3 16.8 -12.6 19.3 -1.3 2.5 -2.7 4.5 -3.2 4.5 -0.4 0 0.2 -1.8 1.3 -4.1z"/>
  <path d="M234 283.3 c0 -2.3 1.5 -3.9 2.4 -2.5 0.3 0.5 -0.1 1.8 -0.9 2.8 -1.4 1.8 -1.4 1.8 -1.5 -0.3z"/>
  <path d="M239 282 c0 -2.5 2.1 -7 3.3 -7 0.5 0 0.6 1 0.2 2.3 -0.3 1.2 -0.9 3.2 -1.2 4.5 -0.7 2.7 -2.3 2.9 -2.3 0.2z"/>
  <path d="M294.8 282.4 c-0.8 -1.2 12.6 -15.8 14.1 -15.3 0.6 0.2 -2.2 4 -6.2 8.4 -4 4.3 -7.6 7.5 -7.9 6.9z"/>
  <path d="M71.5 279.3 c0.4 -1 1 -2.6 1.2 -3.5 0.4 -1.5 2.3 -2.6 2.3 -1.4 0 1.6 -2.4 6.6 -3.2 6.6 -0.6 0 -0.7 -0.8 -0.3 -1.7z"/>
  <path d="M245 276 c0 -2.2 0.5 -4 1 -4 0.6 0 1 1.8 1 4 0 2.2 -0.4 4 -1 4 -0.5 0 -1 -1.8 -1 -4z"/>
  <path d="M610.2 275.3 c0.3 -4.7 0.4 -4.8 3.3 -4.6 2.7 0.2 3.3 -0.3 5.2 -4.5 1.2 -2.6 2.9 -5.6 3.7 -6.7 2.7 -3.5 1.7 0.5 -1.8 7.5 -2.9 5.7 -3.6 6.5 -5.9 6.3 -2.4 -0.2 -2.7 0.2 -2.7 3.3 0 1.9 -0.5 3.4 -1.1 3.4 -0.6 0 -0.9 -1.9 -0.7 -4.7z"/>
  <path d="M642.3 278.4 c-0.7 -1.9 2.5 -8.5 4.5 -9.2 1.7 -0.5 1.5 2.3 -0.3 3.8 -0.8 0.7 -1.5 2.3 -1.5 3.6 0 2.9 -1.8 4.1 -2.7 1.8z"/>
  <path d="M330.7 269.3 c6 -8.7 6.8 -10.4 6.9 -14.7 0.2 -4.5 0.6 -5.3 5.4 -10 2.9 -2.8 6.9 -7.6 8.8 -10.6 2 -3 3.7 -4.9 4 -4.2 0.6 1.8 -5 10 -10.8 15.7 -4.5 4.5 -5 5.3 -5 9.5 0 2.6 -0.7 5.6 -1.8 7.1 -2.5 3.8 -13.4 16.9 -13.9 16.9 -0.2 0 2.6 -4.4 6.4 -9.7z"/>
  <path d="M494 277.6 c0 -0.8 0.4 -1.8 1 -2.1 0.5 -0.3 1.7 -2.2 2.6 -4.1 1.7 -3.5 5.4 -6.5 5.4 -4.4 0 1.5 -7.1 12 -8.1 12 -0.5 0 -0.9 -0.6 -0.9 -1.4z"/>
  <path d="M534.4 277.6 c-0.6 -1.7 3.2 -9.6 4.6 -9.6 1.3 0 1.2 1 -0.5 4 -0.8 1.4 -1.4 3.5 -1.5 4.8 0 2.4 -1.8 3 -2.6 0.8z"/>
  <path d="M68 277 c0 -2.1 2.9 -8 3.9 -8 1.5 0 1.4 0.7 -0.6 5.2 -1.6 3.6 -3.3 5 -3.3 2.8z"/>
  <path d="M30 276.2 c0 -1.4 3.9 -4.6 4.7 -3.9 0.3 0.4 -0.2 1.6 -1.2 2.7 -1.9 2.1 -3.5 2.6 -3.5 1.2z"/>
  <path d="M248.5 271.9 c-0.7 -3.9 -0.2 -5.9 1.1 -4.6 0.3 0.3 0.8 2.1 1.1 4 0.6 5 -1.4 5.5 -2.2 0.6z"/>
  <path d="M484 275.5 c0 -2.2 7.4 -15.5 8.6 -15.5 0.8 0 1.3 0.3 1.1 0.8 -0.2 0.4 -2.3 4 -4.7 8 -3.9 6.6 -5 8.1 -5 6.7z"/>
  <path d="M65.5 272.3 c0.7 -3 2.1 -5 3 -4.1 0.8 0.8 -1.6 6.8 -2.7 6.8 -0.6 0 -0.7 -1.1 -0.3 -2.7z"/>
  <path d="M0 271.9 c0 -1.7 2.7 -4.5 3.5 -3.7 0.3 0.3 -0.3 1.6 -1.4 2.9 -1.6 1.9 -2 2 -2.1 0.8z"/>
  <path d="M91.1 268.8 c1.2 -2.4 2.4 -3.8 2.6 -3.1 0.5 1.5 -2.4 7.3 -3.7 7.3 -0.6 0 -0.1 -1.9 1.1 -4.2z"/>
  <path d="M27.7 271.4 c-0.8 -0.8 0.3 -3.4 1.4 -3.4 1.1 0 1.2 2.7 0 3.4 -0.4 0.3 -1.1 0.3 -1.4 0z"/>
  <path d="M473.8 269.4 c-1.6 -1.5 9.9 -23.4 12.2 -23.4 1.3 0 1.3 1.3 0.1 2.5 -0.5 0.6 -3.4 5.6 -6.3 11.3 -3 5.6 -5.7 9.9 -6 9.6z"/>
  <path d="M543 267.5 c0 -3.2 2.8 -8.8 3.9 -8 1 0.6 -2 10.5 -3.1 10.5 -0.5 0 -0.8 -1.1 -0.8 -2.5z"/>
  <path d="M87 267.6 c0 -1.7 3.9 -6.6 4 -4.9 0 1.8 -2.2 6.3 -3.2 6.3 -0.4 0 -0.8 -0.6 -0.8 -1.4z"/>
  <path d="M24.1 264 c0.9 -1.3 2.2 -2.6 3 -2.9 1.1 -0.3 1 0.1 -0.2 1.9 -0.9 1.3 -2.2 2.6 -3 2.9 -1.1 0.3 -1 -0.1 0.2 -1.9z"/>
  <path d="M83 263.7 c0 -2 4.2 -7.9 6 -8.5 1.2 -0.4 1.1 0 -0.3 1.9 -0.9 1.3 -2.1 3.4 -2.6 4.6 -1.2 2.6 -3.1 3.9 -3.1 2z"/>
  <path d="M486 264.4 c0 -0.6 0.7 -1.9 1.5 -3 0.8 -1 1.4 -1.4 1.4 -0.9 0 0.6 -0.6 1.9 -1.4 2.9 -0.8 1.1 -1.5 1.5 -1.5 1z"/>
  <path d="M551 261.6 c0 -2.7 3.9 -8.2 4 -5.5 0 2.5 -2.1 7.9 -3.1 7.9 -0.5 0 -0.9 -1.1 -0.9 -2.4z"/>
  <path d="M15.1 259.8 c-0.5 -1.3 -1 -3.2 -1.3 -4.3 -0.2 -1.3 -1 -1.9 -2.3 -1.7 -1.9 0.3 -1.9 0.3 0.1 -1.8 2.8 -2.9 4.4 -1.8 4.4 2.7 0 2 0.7 4.5 1.7 5.5 1.5 1.7 1.5 1.8 -0.1 1.8 -0.9 0 -2 -1 -2.5 -2.2z"/>
  <path d="M560 256 c1 -3.5 3.5 -7.2 4.2 -6.4 0.8 0.8 -2.5 8.3 -3.9 8.8 -0.8 0.3 -0.9 -0.4 -0.3 -2.4z"/>
  <path d="M18 257.2 c0 -1.4 4 -6.2 5.2 -6.2 0.5 0 0.1 1.5 -1.1 3.2 -2 3.3 -4.1 4.8 -4.1 3z"/>
  <path d="M658.4 250.9 c0.4 -3 2.2 -11.2 4 -18.4 2.7 -10.4 3.4 -12.2 3.5 -8.8 0.1 2.3 -1.2 9.6 -2.9 16.1 -1.6 6.6 -3 12.7 -3 13.5 0 0.9 -0.5 1.9 -1.1 2.3 -0.8 0.5 -1 -0.8 -0.5 -4.7z"/>
  <path d="M567 250.2 c0 -2.2 2.6 -5.9 3.5 -5 0.6 0.6 -2.1 6.8 -3 6.8 -0.3 0 -0.5 -0.8 -0.5 -1.8z"/>
  <path d="M15 245.1 c0 -1.8 5.4 -9.5 5.8 -8.3 0.2 0.6 -0.4 2.4 -1.2 4 -1.7 3.4 -4.6 6 -4.6 4.3z"/>
  <path d="M573 245.3 c0 -1.4 5.1 -9.3 6 -9.3 1.5 0 1.2 0.9 -1.5 5.7 -2.3 3.8 -4.5 5.6 -4.5 3.6z"/>
  <path d="M3.2 243.8 c-0.7 -0.7 -1.2 -2 -1.2 -2.9 0 -1 -0.4 -2.1 -1 -2.4 -0.5 -0.3 -1 -1.5 -1 -2.6 0 -1.1 0.4 -1.8 0.9 -1.5 0.9 0.6 5.1 8.7 5.1 9.9 0 1.1 -1.5 0.8 -2.8 -0.5z"/>
  <path d="M56 243.7 c0 -3 6.6 -14.5 7.7 -13.4 0.5 0.5 -2.4 6.6 -5.7 12 -1.4 2.2 -2 2.7 -2 1.4z"/>
  <path d="M130.1 241 c2.7 -4.7 4.7 -6 6 -3.9 0.6 1.1 1.7 0.5 4.8 -2.5 2.1 -2.1 4.4 -3.7 5 -3.5 0.6 0.2 -1.6 3.1 -4.9 6.4 -5.1 5 -6 5.6 -6 3.7 0 -3 -1.6 -2.8 -3.2 0.5 -0.7 1.4 -1.9 2.9 -2.7 3.1 -0.9 0.3 -0.6 -1 1 -3.8z"/>
  <path d="M8 243.3 c0 -1.4 8.5 -13.4 8.8 -12.4 0.3 0.9 -0.7 3.1 -4.6 9.5 -1.7 2.9 -4.2 4.6 -4.2 2.9z"/>
  <path d="M180 243.2 c0 -1.4 15.9 -16.7 17.7 -17.1 1.5 -0.3 1.6 -0.1 0.3 1.4 -2.4 2.8 -15.1 14.9 -16.6 15.8 -0.8 0.4 -1.4 0.4 -1.4 -0.1z"/>
  <path d="M174 234.7 c0 -2.4 3.1 -5.8 4.8 -5.3 1 0.4 3.8 -1 7 -3.4 5.1 -3.9 7.2 -4.8 7.2 -3.2 0 1.2 -12.8 10.2 -14.5 10.2 -0.9 0 -1.8 0.7 -2.1 1.5 -0.7 1.8 -2.4 2 -2.4 0.2z"/>
  <path d="M308 235.5 c0 -0.3 1.4 -1.4 3.2 -2.4 4 -2.5 13 -11.2 18 -17.5 2.8 -3.5 3.8 -5.7 3.5 -7.3 -0.2 -1.3 0.2 -2.8 0.9 -3.4 0.8 -0.6 1.4 -2 1.4 -2.9 0 -2.8 4.9 -8 7.4 -8 1.3 0 4.7 -1.3 7.7 -3 3 -1.6 6.1 -3 6.9 -2.9 2.7 0 -3.1 4 -11.9 8.1 -5.4 2.6 -8 4.3 -7.3 5 0.6 0.6 2.4 0.2 5 -1.1 4.6 -2.3 5.2 -2.5 5.2 -1.3 0 0.5 -2.2 2.1 -4.9 3.6 -4.8 2.6 -10 8.8 -8 9.4 0.5 0.2 3.2 -0.8 5.9 -2.2 2.8 -1.5 5.2 -2.2 5.5 -1.6 0.3 0.5 -1.1 1.6 -3.2 2.5 -6 2.5 -14.3 7.8 -14.3 9.1 0 0.8 2.3 0.1 6 -1.8 3.3 -1.6 7 -2.8 8.2 -2.5 2.2 0.3 2.2 0.4 0.3 1.1 -1.1 0.4 -5.2 2.2 -9.1 4.1 -3.8 1.9 -7.5 3.5 -8.1 3.5 -0.5 0 -4.3 2.7 -8.4 6 -6.4 5.3 -9.9 7.2 -9.9 5.5z"/>
  <path d="M5.1 232.3 c1.6 -4.2 9.9 -15.4 11 -14.8 0.5 0.4 -0.9 3.2 -3.2 6.3 -2.3 3.1 -4.9 6.9 -5.8 8.4 -2.1 3.6 -3.4 3.6 -2 0.1z"/>
  <path d="M0 229.2 c0 -1.5 4 -7.2 5.2 -7.2 1.4 0 0.8 1.4 -2.2 5 -1.6 1.9 -3 2.9 -3 2.2z"/>
  <path d="M204 209.6 c0 -0.3 3 -2.4 6.8 -4.8 3.7 -2.5 8 -5.3 9.6 -6.4 1.6 -1 3.6 -2.4 4.5 -2.9 0.9 -0.6 2.8 -1.8 4.3 -2.9 1.5 -1 3.3 -1.6 3.9 -1.4 1.1 0.4 -5.7 5.2 -21.8 15.5 -4.7 3 -7.3 4 -7.3 2.9z"/>
  <path d="M306 208 c0 -0.6 0.7 -2.6 1.4 -4.5 1.9 -4.5 3.8 -4.7 2.4 -0.2 -0.6 1.7 -1.2 3.8 -1.4 4.5 -0.4 1.5 -2.4 1.6 -2.4 0.2z"/>
  <path d="M311 205.5 c0 -1.6 4.4 -8.8 4.7 -7.8 0.5 1.5 -2.6 8.3 -3.8 8.3 -0.5 0 -0.9 -0.2 -0.9 -0.5z"/>
  <path d="M280 192.8 c0 -1.7 7.7 -10.8 9.1 -10.8 1.2 0 -4 7.7 -7 10.4 -1.7 1.6 -2.1 1.6 -2.1 0.4z"/>
  <path d="M662.3 192.3 c-3.3 -2.3 -2.8 -3.6 0.7 -1.8 1.7 0.9 3 2 3 2.5 0 1.4 -1.1 1.2 -3.7 -0.7z"/>
  <path d="M322.4 186.3 c2.6 -5.1 5.5 -9.3 5.6 -8 0 1.6 -6.1 12.7 -7 12.7 -0.6 0 0.1 -2.1 1.4 -4.7z"/>
  <path d="M327 187.1 c0 -2.5 10.7 -15.4 12.1 -14.5 0.5 0.3 -1.7 3.5 -4.7 7.2 -7.6 9 -7.4 8.8 -7.4 7.3z"/>
  <path d="M271 175.5 c1.3 -1.4 2.6 -2.3 2.8 -2 0.7 0.7 -2.9 4.5 -4.1 4.5 -0.6 0 0 -1.1 1.3 -2.5z"/>
  <path d="M382 169.4 c0 -1 6.2 -10.8 7.4 -11.6 1.9 -1.3 1.7 0 -1.1 5.8 -1.6 3.4 -3.6 6 -4.5 6.2 -1 0.2 -1.8 0 -1.8 -0.4z"/>
 </g>
</svg>